{"glyphs":{"0":{"ha":811,"x_min":44,"x_max":765,"o":"m 338 -15 q 44 311 44 -15 q 78 581 44 444 q 203 817 113 718 q 449 917 293 917 q 765 593 765 917 q 729 323 765 461 q 597 85 693 185 q 338 -15 501 -15 m 378 78 q 466 115 435 78 q 510 205 497 151 q 536 354 524 258 q 552 494 544 411 q 560 626 560 576 q 552 737 560 696 q 518 802 544 778 q 439 826 492 826 q 350 790 382 826 q 305 702 318 753 q 274 550 292 651 q 254 414 258 478 q 250 275 250 350 q 257 165 250 204 q 292 101 264 125 q 378 78 319 78 z "},"1":{"ha":556,"x_min":-21,"x_max":511,"o":"m 167 103 l 258 757 l 61 757 l 61 838 l 354 903 l 461 903 l 349 103 l 511 82 l 500 0 l -21 0 l -11 78 l 167 103 z "},"2":{"ha":694,"x_min":-50,"x_max":624,"o":"m -50 75 l 261 386 q 372 514 336 461 q 418 603 408 567 q 428 683 428 640 q 394 758 428 728 q 303 789 361 789 q 205 767 247 789 q 110 697 163 744 l 61 735 q 182 861 101 806 q 372 917 263 917 q 556 864 489 917 q 624 726 624 811 q 564 533 624 629 q 351 306 504 436 l 140 125 l 143 122 l 160 131 l 479 128 l 540 274 l 622 260 l 581 0 l -15 0 l -50 75 z "},"3":{"ha":628,"x_min":-44,"x_max":588,"o":"m 201 -15 q 16 15 76 -15 q -44 106 -44 44 q -31 158 -44 124 q 1 218 -17 192 q 28 244 18 244 l 92 244 l 104 108 q 147 94 114 100 q 219 89 179 89 q 342 138 301 89 q 382 285 382 186 q 344 387 382 354 q 226 419 307 419 l 167 419 l 140 463 l 140 517 l 146 517 q 331 564 264 518 q 399 690 399 610 q 369 768 399 744 q 275 792 340 792 q 190 776 235 792 q 115 735 146 760 l 65 775 q 182 874 100 832 q 339 917 264 917 q 588 722 588 917 q 544 593 588 653 q 426 499 501 533 l 426 489 q 535 417 496 467 q 575 303 575 368 q 527 139 575 211 q 394 26 479 67 q 201 -15 310 -15 z "},"4":{"ha":729,"x_min":-19,"x_max":664,"o":"m 335 0 l 365 208 l 19 208 l -19 314 l 506 929 l 635 900 l 557 325 l 664 325 l 650 208 l 540 208 l 510 0 l 335 0 m 151 325 l 381 325 l 431 665 l 436 685 l 431 685 l 422 665 l 147 333 l 151 325 z "},"5":{"ha":628,"x_min":-32,"x_max":647,"o":"m 213 -15 q -32 108 -32 -15 q -16 172 -32 142 q 19 224 0 203 q 40 244 38 244 l 104 244 l 117 108 q 128 99 117 107 q 167 85 140 92 q 233 78 193 78 q 354 131 319 78 q 389 289 389 185 q 363 388 389 349 q 270 453 336 428 q 88 493 204 479 l 165 900 l 515 900 l 549 974 l 647 974 l 614 754 l 247 754 l 224 592 q 489 508 396 568 q 582 324 582 449 q 526 136 582 213 q 384 22 469 60 q 213 -15 299 -15 z "},"6":{"ha":740,"x_min":31,"x_max":681,"o":"m 329 -15 q 31 306 31 -15 q 108 595 31 457 q 331 822 185 733 q 675 915 476 910 l 681 851 q 399 725 496 810 q 258 513 303 640 q 284 529 258 514 q 349 557 310 544 q 435 569 389 569 q 664 325 664 569 q 626 166 664 244 q 513 36 589 88 q 329 -15 438 -15 m 343 86 q 451 136 424 86 q 478 299 478 186 q 446 415 478 379 q 347 451 414 451 q 291 445 315 451 q 253 433 267 439 q 236 424 239 426 q 226 361 228 393 q 224 285 224 329 q 251 136 224 186 q 343 86 278 86 z "},"7":{"ha":619,"x_min":50,"x_max":656,"o":"m 528 754 l 169 754 l 143 639 l 50 639 l 50 900 l 656 900 l 656 754 l 194 0 l 74 0 l 74 78 l 528 736 l 528 754 z "},"8":{"ha":694,"x_min":29,"x_max":663,"o":"m 301 -15 q 29 174 29 -15 q 90 328 29 258 q 243 446 150 399 q 144 551 181 499 q 108 663 108 603 q 153 799 108 742 q 269 887 197 857 q 421 917 342 917 q 602 867 542 917 q 663 733 663 817 q 608 598 663 661 q 474 496 553 535 q 562 418 533 447 q 609 349 590 389 q 628 251 628 308 q 587 113 628 174 q 472 18 546 51 q 301 -15 397 -15 m 417 543 q 507 708 507 618 q 479 789 507 758 q 393 819 451 819 q 313 792 343 819 q 283 722 283 764 q 417 543 283 632 m 329 78 q 431 108 397 78 q 465 196 465 139 q 450 252 465 226 q 403 308 435 278 q 297 401 372 338 q 223 306 244 358 q 201 192 201 254 q 233 108 201 138 q 329 78 264 78 z "},"9":{"ha":722,"x_min":46,"x_max":697,"o":"m 183 -15 q 46 -7 97 -15 l 57 67 q 121 63 90 63 q 478 382 411 63 l 474 382 q 461 365 469 374 q 286 303 399 303 q 169 333 222 303 q 85 424 117 364 q 53 567 53 483 q 94 745 53 665 q 211 871 136 825 q 382 917 286 917 q 618 830 539 917 q 697 561 697 743 q 633 266 697 397 q 453 60 569 135 q 183 -15 336 -15 m 372 422 q 431 431 406 422 q 471 449 457 439 q 488 461 485 458 q 499 555 494 500 q 503 651 503 610 q 470 785 503 744 q 374 826 438 826 q 282 772 315 826 q 249 604 249 718 q 278 460 249 499 q 372 422 308 422 z "},"\u0000":{"ha":0,"x_min":0,"x_max":0,"o":""},"\r":{"ha":201,"x_min":0,"x_max":0,"o":""}," ":{"ha":201,"x_min":0,"x_max":0,"o":""},"A":{"ha":756,"x_min":-79,"x_max":763,"o":"m -68 81 l 11 100 l 381 910 l 510 910 l 671 100 l 763 81 l 757 0 l 379 0 l 386 81 l 475 94 l 475 107 l 451 247 l 192 247 l 128 104 l 128 96 l 235 81 l 225 0 l -79 0 l -68 81 m 436 338 l 386 644 l 386 678 l 381 678 l 371 644 l 232 338 l 436 338 z "},"Á":{"ha":756,"x_min":-79,"x_max":763,"o":"m 0 0 m -68 81 l 11 100 l 381 910 l 510 910 l 671 100 l 763 81 l 757 0 l 379 0 l 386 81 l 475 94 l 475 107 l 451 247 l 192 247 l 128 104 l 128 96 l 235 81 l 225 0 l -79 0 l -68 81 m 436 338 l 386 644 l 386 678 l 381 678 l 371 644 l 232 338 l 436 338 m 294 1001 l 556 1165 q 608 1075 608 1136 q 596 1040 608 1054 q 546 1011 583 1025 l 328 935 l 294 1001 z "},"Ă":{"ha":756,"x_min":-79,"x_max":763,"o":"m 713 1131 q 611 1001 672 1060 q 444 943 550 943 q 356 962 400 943 q 283 1013 311 981 q 254 1082 254 1044 q 281 1124 254 1103 q 349 1161 307 1146 q 401 1096 372 1114 q 471 1078 431 1078 q 579 1099 535 1078 q 668 1165 624 1121 l 713 1131 m -68 81 l 11 100 l 381 910 l 510 910 l 671 100 l 763 81 l 757 0 l 379 0 l 386 81 l 475 94 l 475 107 l 451 247 l 192 247 l 128 104 l 128 96 l 235 81 l 225 0 l -79 0 l -68 81 m 436 338 l 386 644 l 386 678 l 381 678 l 371 644 l 232 338 l 436 338 z "},"Ắ":{"ha":756,"x_min":-79,"x_max":763,"o":"m 0 0 m -68 81 l 11 100 l 381 910 l 510 910 l 671 100 l 763 81 l 757 0 l 379 0 l 386 81 l 475 94 l 475 107 l 451 247 l 192 247 l 128 104 l 128 96 l 235 81 l 225 0 l -79 0 l -68 81 m 436 338 l 386 644 l 386 678 l 381 678 l 371 644 l 232 338 l 436 338 m 711 1131 q 610 1001 671 1060 q 443 943 549 943 q 354 962 399 943 q 281 1013 310 981 q 253 1082 253 1044 q 279 1124 253 1103 q 347 1161 306 1146 q 400 1096 371 1114 q 469 1078 429 1078 q 578 1099 533 1078 q 667 1165 622 1121 l 711 1131 m 418 1213 l 679 1376 q 732 1286 732 1347 q 719 1251 732 1265 q 669 1222 707 1236 l 451 1146 l 418 1213 z "},"Ặ":{"ha":756,"x_min":-79,"x_max":763,"o":"m 0 0 m -68 81 l 11 100 l 381 910 l 510 910 l 671 100 l 763 81 l 757 0 l 379 0 l 386 81 l 475 94 l 475 107 l 451 247 l 192 247 l 128 104 l 128 96 l 235 81 l 225 0 l -79 0 l -68 81 m 436 338 l 386 644 l 386 678 l 381 678 l 371 644 l 232 338 l 436 338 m 297 -269 q 228 -242 254 -269 q 201 -172 201 -214 q 231 -86 201 -124 q 314 -49 260 -49 q 384 -76 357 -49 q 411 -150 411 -104 q 381 -233 411 -197 q 297 -269 351 -269 m 707 1131 q 606 1001 667 1060 q 439 943 544 943 q 350 962 394 943 q 277 1013 306 981 q 249 1082 249 1044 q 275 1124 249 1103 q 343 1161 301 1146 q 396 1096 367 1114 q 465 1078 425 1078 q 574 1099 529 1078 q 663 1165 618 1121 l 707 1131 z "},"Ằ":{"ha":756,"x_min":-79,"x_max":763,"o":"m 0 0 m -68 81 l 11 100 l 381 910 l 510 910 l 671 100 l 763 81 l 757 0 l 379 0 l 386 81 l 475 94 l 475 107 l 451 247 l 192 247 l 128 104 l 128 96 l 235 81 l 225 0 l -79 0 l -68 81 m 436 338 l 386 644 l 386 678 l 381 678 l 371 644 l 232 338 l 436 338 m 721 1131 q 619 1001 681 1060 q 453 943 558 943 q 364 962 408 943 q 291 1013 319 981 q 263 1082 263 1044 q 289 1124 263 1103 q 357 1161 315 1146 q 410 1096 381 1114 q 479 1078 439 1078 q 588 1099 543 1078 q 676 1165 632 1121 l 721 1131 m 351 1222 q 301 1249 314 1235 q 289 1285 289 1264 q 303 1342 289 1321 q 342 1376 318 1363 l 603 1213 l 569 1146 l 351 1222 z "},"Ẳ":{"ha":756,"x_min":-79,"x_max":763,"o":"m 0 0 m -68 81 l 11 100 l 381 910 l 510 910 l 671 100 l 763 81 l 757 0 l 379 0 l 386 81 l 475 94 l 475 107 l 451 247 l 192 247 l 128 104 l 128 96 l 235 81 l 225 0 l -79 0 l -68 81 m 436 338 l 386 644 l 386 678 l 381 678 l 371 644 l 232 338 l 436 338 m 721 1131 q 619 1001 681 1060 q 453 943 558 943 q 364 962 408 943 q 291 1013 319 981 q 263 1082 263 1044 q 289 1124 263 1103 q 357 1161 315 1146 q 410 1096 381 1114 q 479 1078 439 1078 q 588 1099 543 1078 q 676 1165 632 1121 l 721 1131 m 457 1133 q 447 1164 447 1153 q 459 1192 447 1181 q 510 1218 471 1203 q 542 1234 532 1226 q 551 1253 551 1242 q 508 1279 551 1279 q 425 1268 467 1279 q 407 1317 407 1293 q 524 1372 407 1372 q 647 1348 603 1372 q 690 1278 690 1324 q 588 1178 690 1218 q 560 1164 567 1169 q 554 1142 554 1158 l 457 1133 z "},"Ẵ":{"ha":756,"x_min":-79,"x_max":768,"o":"m 282 1306 q 329 1340 304 1328 q 375 1353 354 1353 q 422 1349 399 1353 q 468 1338 444 1344 l 614 1299 l 728 1340 l 768 1304 l 699 1242 q 606 1194 647 1194 q 513 1210 563 1194 l 367 1250 l 253 1207 l 213 1244 l 282 1306 m 696 1131 q 594 1001 656 1060 q 428 943 533 943 q 339 962 383 943 q 266 1013 294 981 q 238 1082 238 1044 q 264 1124 238 1103 q 332 1161 290 1146 q 385 1096 356 1114 q 454 1078 414 1078 q 563 1099 518 1078 q 651 1165 607 1121 l 696 1131 m -68 81 l 11 100 l 381 910 l 510 910 l 671 100 l 763 81 l 757 0 l 379 0 l 386 81 l 475 94 l 475 107 l 451 247 l 192 247 l 128 104 l 128 96 l 235 81 l 225 0 l -79 0 l -68 81 m 436 338 l 386 644 l 386 678 l 381 678 l 371 644 l 232 338 l 436 338 z "},"Ǎ":{"ha":756,"x_min":-79,"x_max":763,"o":"m 0 0 m -68 81 l 11 100 l 381 910 l 510 910 l 671 100 l 763 81 l 757 0 l 379 0 l 386 81 l 475 94 l 475 107 l 451 247 l 192 247 l 128 104 l 128 96 l 235 81 l 225 0 l -79 0 l -68 81 m 436 338 l 386 644 l 386 678 l 381 678 l 371 644 l 232 338 l 436 338 m 461 936 q 434 947 449 936 q 406 972 419 958 q 388 989 392 985 l 267 1099 l 321 1165 l 478 1081 l 650 1163 l 686 1108 l 561 1006 q 526 976 553 999 q 484 945 499 954 q 461 936 469 936 z "},"Â":{"ha":756,"x_min":-79,"x_max":763,"o":"m 367 1096 q 402 1125 375 1103 q 444 1156 429 1147 q 467 1165 458 1165 q 491 1156 478 1165 q 519 1133 504 1146 q 540 1113 533 1119 l 661 1003 l 607 936 l 450 1021 l 278 939 l 242 993 l 367 1096 m -68 81 l 11 100 l 381 910 l 510 910 l 671 100 l 763 81 l 757 0 l 379 0 l 386 81 l 475 94 l 475 107 l 451 247 l 192 247 l 128 104 l 128 96 l 235 81 l 225 0 l -79 0 l -68 81 m 436 338 l 386 644 l 386 678 l 381 678 l 371 644 l 232 338 l 436 338 z "},"Ấ":{"ha":756,"x_min":-79,"x_max":850,"o":"m 0 0 m -68 81 l 11 100 l 381 910 l 510 910 l 671 100 l 763 81 l 757 0 l 379 0 l 386 81 l 475 94 l 475 107 l 451 247 l 192 247 l 128 104 l 128 96 l 235 81 l 225 0 l -79 0 l -68 81 m 436 338 l 386 644 l 386 678 l 381 678 l 371 644 l 232 338 l 436 338 m 368 1096 q 403 1125 376 1103 q 445 1156 431 1147 q 468 1165 460 1165 q 492 1156 479 1165 q 520 1133 506 1146 q 542 1113 535 1119 l 663 1003 l 608 936 l 451 1021 l 279 939 l 243 993 l 368 1096 m 536 1203 l 797 1367 q 850 1276 850 1338 q 838 1241 850 1256 q 788 1213 825 1226 l 569 1136 l 536 1203 z "},"Ậ":{"ha":756,"x_min":-79,"x_max":763,"o":"m 0 0 m -68 81 l 11 100 l 381 910 l 510 910 l 671 100 l 763 81 l 757 0 l 379 0 l 386 81 l 475 94 l 475 107 l 451 247 l 192 247 l 128 104 l 128 96 l 235 81 l 225 0 l -79 0 l -68 81 m 436 338 l 386 644 l 386 678 l 381 678 l 371 644 l 232 338 l 436 338 m 297 -269 q 228 -242 254 -269 q 201 -172 201 -214 q 231 -86 201 -124 q 314 -49 260 -49 q 384 -76 357 -49 q 411 -150 411 -104 q 381 -233 411 -197 q 297 -269 351 -269 m 392 1096 q 427 1125 400 1103 q 469 1156 454 1147 q 492 1165 483 1165 q 516 1156 503 1165 q 544 1133 529 1146 q 565 1113 558 1119 l 686 1003 l 632 936 l 475 1021 l 303 939 l 267 993 l 392 1096 z "},"Ầ":{"ha":756,"x_min":-79,"x_max":763,"o":"m 0 0 m -68 81 l 11 100 l 381 910 l 510 910 l 671 100 l 763 81 l 757 0 l 379 0 l 386 81 l 475 94 l 475 107 l 451 247 l 192 247 l 128 104 l 128 96 l 235 81 l 225 0 l -79 0 l -68 81 m 436 338 l 386 644 l 386 678 l 381 678 l 371 644 l 232 338 l 436 338 m 376 1096 q 412 1125 385 1103 q 453 1156 439 1147 q 476 1165 468 1165 q 501 1156 488 1165 q 528 1133 514 1146 q 550 1113 543 1119 l 671 1003 l 617 936 l 460 1021 l 288 939 l 251 993 l 376 1096 m 479 1213 q 429 1240 442 1225 q 417 1275 417 1254 q 431 1332 417 1311 q 469 1367 446 1353 l 731 1203 l 697 1136 l 479 1213 z "},"Ẩ":{"ha":756,"x_min":-79,"x_max":806,"o":"m 0 0 m -68 81 l 11 100 l 381 910 l 510 910 l 671 100 l 763 81 l 757 0 l 379 0 l 386 81 l 475 94 l 475 107 l 451 247 l 192 247 l 128 104 l 128 96 l 235 81 l 225 0 l -79 0 l -68 81 m 436 338 l 386 644 l 386 678 l 381 678 l 371 644 l 232 338 l 436 338 m 356 1096 q 391 1125 364 1103 q 433 1156 418 1147 q 456 1165 447 1165 q 480 1156 467 1165 q 508 1133 493 1146 q 529 1113 522 1119 l 650 1003 l 596 936 l 439 1021 l 267 939 l 231 993 l 356 1096 m 572 1121 q 563 1151 563 1140 q 574 1179 563 1168 q 625 1206 586 1190 q 657 1222 647 1214 q 667 1240 667 1229 q 624 1267 667 1267 q 540 1256 582 1267 q 522 1304 522 1281 q 639 1360 522 1360 q 762 1335 718 1360 q 806 1265 806 1311 q 703 1165 806 1206 q 676 1151 682 1157 q 669 1129 669 1146 l 572 1121 z "},"Ẫ":{"ha":756,"x_min":-79,"x_max":768,"o":"m 282 1306 q 329 1340 304 1328 q 375 1353 354 1353 q 422 1349 399 1353 q 468 1338 444 1344 l 614 1299 l 728 1340 l 768 1304 l 699 1242 q 606 1194 647 1194 q 513 1210 563 1194 l 367 1250 l 253 1207 l 213 1244 l 282 1306 m 382 1096 q 417 1125 390 1103 q 459 1156 444 1147 q 482 1165 474 1165 q 506 1156 493 1165 q 534 1133 519 1146 q 556 1113 549 1119 l 676 1003 l 622 936 l 465 1021 l 293 939 l 257 993 l 382 1096 m -68 81 l 11 100 l 381 910 l 510 910 l 671 100 l 763 81 l 757 0 l 379 0 l 386 81 l 475 94 l 475 107 l 451 247 l 192 247 l 128 104 l 128 96 l 235 81 l 225 0 l -79 0 l -68 81 m 436 338 l 386 644 l 386 678 l 381 678 l 371 644 l 232 338 l 436 338 z "},"Ȁ":{"ha":756,"x_min":-79,"x_max":763,"o":"m 0 0 m -68 81 l 11 100 l 381 910 l 510 910 l 671 100 l 763 81 l 757 0 l 379 0 l 386 81 l 475 94 l 475 107 l 451 247 l 192 247 l 128 104 l 128 96 l 235 81 l 225 0 l -79 0 l -68 81 m 436 338 l 386 644 l 386 678 l 381 678 l 371 644 l 232 338 l 436 338 m 206 1010 q 164 1076 164 1040 q 205 1144 164 1114 q 288 1175 246 1175 l 385 967 l 319 919 l 206 1010 m 468 1010 q 426 1076 426 1040 q 467 1144 426 1114 q 550 1175 508 1175 l 647 967 l 582 919 l 468 1010 z "},"Ä":{"ha":756,"x_min":-79,"x_max":763,"o":"m 292 954 q 230 980 254 954 q 206 1043 206 1006 q 233 1122 206 1088 q 308 1156 260 1156 q 371 1131 346 1156 q 396 1064 396 1106 q 368 987 396 1019 q 292 954 340 954 m 601 954 q 540 980 564 954 q 515 1043 515 1006 q 542 1122 515 1088 q 618 1156 569 1156 q 681 1131 656 1156 q 706 1064 706 1106 q 678 987 706 1019 q 601 954 650 954 m -68 81 l 11 100 l 381 910 l 510 910 l 671 100 l 763 81 l 757 0 l 379 0 l 386 81 l 475 94 l 475 107 l 451 247 l 192 247 l 128 104 l 128 96 l 235 81 l 225 0 l -79 0 l -68 81 m 436 338 l 386 644 l 386 678 l 381 678 l 371 644 l 232 338 l 436 338 z "},"Ạ":{"ha":756,"x_min":-79,"x_max":763,"o":"m 0 0 m -68 81 l 11 100 l 381 910 l 510 910 l 671 100 l 763 81 l 757 0 l 379 0 l 386 81 l 475 94 l 475 107 l 451 247 l 192 247 l 128 104 l 128 96 l 235 81 l 225 0 l -79 0 l -68 81 m 436 338 l 386 644 l 386 678 l 381 678 l 371 644 l 232 338 l 436 338 m 297 -269 q 228 -242 254 -269 q 201 -172 201 -214 q 231 -86 201 -124 q 314 -49 260 -49 q 384 -76 357 -49 q 411 -150 411 -104 q 381 -233 411 -197 q 297 -269 351 -269 z "},"À":{"ha":756,"x_min":-79,"x_max":763,"o":"m 344 1013 q 294 1040 307 1025 q 282 1075 282 1054 q 297 1132 282 1111 q 335 1167 311 1153 l 596 1003 l 563 936 l 344 1013 m -68 81 l 11 100 l 381 910 l 510 910 l 671 100 l 763 81 l 757 0 l 379 0 l 386 81 l 475 94 l 475 107 l 451 247 l 192 247 l 128 104 l 128 96 l 235 81 l 225 0 l -79 0 l -68 81 m 436 338 l 386 644 l 386 678 l 381 678 l 371 644 l 232 338 l 436 338 z "},"Ả":{"ha":756,"x_min":-79,"x_max":763,"o":"m 0 0 m -68 81 l 11 100 l 381 910 l 510 910 l 671 100 l 763 81 l 757 0 l 379 0 l 386 81 l 475 94 l 475 107 l 451 247 l 192 247 l 128 104 l 128 96 l 235 81 l 225 0 l -79 0 l -68 81 m 436 338 l 386 644 l 386 678 l 381 678 l 371 644 l 232 338 l 436 338 m 418 938 q 408 968 408 957 q 420 996 408 985 q 471 1022 432 1007 q 503 1038 493 1031 q 513 1057 513 1046 q 469 1083 513 1083 q 386 1072 428 1083 q 368 1121 368 1097 q 485 1176 368 1176 q 608 1152 564 1176 q 651 1082 651 1128 q 549 982 651 1022 q 522 968 528 974 q 515 946 515 963 l 418 938 z "},"Ȃ":{"ha":756,"x_min":-79,"x_max":763,"o":"m 0 0 m -68 81 l 11 100 l 381 910 l 510 910 l 671 100 l 763 81 l 757 0 l 379 0 l 386 81 l 475 94 l 475 107 l 451 247 l 192 247 l 128 104 l 128 96 l 235 81 l 225 0 l -79 0 l -68 81 m 436 338 l 386 644 l 386 678 l 381 678 l 371 644 l 232 338 l 436 338 m 249 978 q 350 1107 289 1049 q 517 1165 411 1165 q 606 1147 561 1165 q 678 1096 650 1128 q 707 1026 707 1064 q 681 984 707 1006 q 613 947 654 963 q 560 1013 589 994 q 490 1031 531 1031 q 382 1009 426 1031 q 293 943 338 988 l 249 978 z "},"Ā":{"ha":756,"x_min":-79,"x_max":763,"o":"m 221 1108 l 707 1108 l 693 994 l 207 994 l 221 1108 m -68 81 l 11 100 l 381 910 l 510 910 l 671 100 l 763 81 l 757 0 l 379 0 l 386 81 l 475 94 l 475 107 l 451 247 l 192 247 l 128 104 l 128 96 l 235 81 l 225 0 l -79 0 l -68 81 m 436 338 l 386 644 l 386 678 l 381 678 l 371 644 l 232 338 l 436 338 z "},"Ą":{"ha":756,"x_min":-79,"x_max":763,"o":"m 614 0 q 540 -117 540 -54 q 552 -153 540 -143 q 589 -164 564 -164 q 661 -137 618 -164 l 694 -186 q 673 -208 694 -189 q 617 -243 651 -226 q 543 -260 583 -260 q 445 -235 482 -260 q 408 -161 408 -210 q 522 0 408 -67 l 379 0 l 386 81 l 475 94 l 475 107 l 451 247 l 192 247 l 128 104 l 128 96 l 235 81 l 225 0 l -79 0 l -68 81 l 11 100 l 381 910 l 510 910 l 671 100 l 763 81 l 757 0 l 614 0 m 232 338 l 436 338 l 386 644 l 386 678 l 381 678 l 371 644 l 232 338 z "},"Å":{"ha":756,"x_min":-79,"x_max":763,"o":"m 439 921 q 335 948 367 921 q 303 1031 303 975 q 323 1094 303 1063 q 381 1145 343 1125 q 468 1165 418 1165 q 601 1053 601 1165 q 559 960 601 1000 q 439 921 517 921 m 447 986 q 484 999 474 986 q 494 1054 494 1013 q 456 1100 494 1100 q 419 1085 429 1100 q 408 1029 408 1071 q 447 986 408 986 m -68 81 l 11 100 l 381 910 l 510 910 l 671 100 l 763 81 l 757 0 l 379 0 l 386 81 l 475 94 l 475 107 l 451 247 l 192 247 l 128 104 l 128 96 l 235 81 l 225 0 l -79 0 l -68 81 m 436 338 l 386 644 l 386 678 l 381 678 l 371 644 l 232 338 l 436 338 z "},"Ǻ":{"ha":756,"x_min":-79,"x_max":763,"o":"m 0 0 m -68 81 l 11 100 l 381 910 l 510 910 l 671 100 l 763 81 l 757 0 l 379 0 l 386 81 l 475 94 l 475 107 l 451 247 l 192 247 l 128 104 l 128 96 l 235 81 l 225 0 l -79 0 l -68 81 m 436 338 l 386 644 l 386 678 l 381 678 l 371 644 l 232 338 l 436 338 m 463 921 q 358 948 390 921 q 326 1031 326 975 q 347 1094 326 1063 q 404 1145 367 1125 q 492 1165 442 1165 q 625 1053 625 1165 q 583 960 625 1000 q 463 921 540 921 m 471 986 q 508 999 497 986 q 518 1054 518 1013 q 479 1100 518 1100 q 442 1085 453 1100 q 432 1029 432 1071 q 471 986 432 986 m 413 1268 l 674 1432 q 726 1342 726 1403 q 714 1306 726 1321 q 664 1278 701 1292 l 446 1201 l 413 1268 z "},"Ã":{"ha":756,"x_min":-79,"x_max":763,"o":"m 249 1086 q 296 1131 271 1115 q 342 1146 321 1146 q 385 1141 365 1146 q 435 1126 406 1136 l 581 1078 l 694 1131 l 735 1085 l 665 1007 q 572 947 613 947 q 528 952 549 947 q 479 967 508 957 l 333 1017 l 219 964 l 179 1010 l 249 1086 m -68 81 l 11 100 l 381 910 l 510 910 l 671 100 l 763 81 l 757 0 l 379 0 l 386 81 l 475 94 l 475 107 l 451 247 l 192 247 l 128 104 l 128 96 l 235 81 l 225 0 l -79 0 l -68 81 m 436 338 l 386 644 l 386 678 l 381 678 l 371 644 l 232 338 l 436 338 z "},"Æ":{"ha":1076,"x_min":-111,"x_max":1097,"o":"m -21 100 l 492 900 l 1097 900 l 1058 644 l 967 644 l 967 804 l 817 804 l 736 794 l 689 469 l 847 469 l 878 558 l 961 558 l 925 286 l 844 286 l 844 379 l 676 379 l 639 106 l 749 96 l 879 96 l 935 250 l 1019 250 l 989 0 l 339 0 l 351 81 l 450 100 l 489 379 l 271 379 l 96 104 l 96 96 l 203 81 l 193 0 l -111 0 l -100 81 l -21 100 m 501 469 l 549 804 l 540 804 l 328 469 l 501 469 z "},"Ǽ":{"ha":1076,"x_min":-111,"x_max":1097,"o":"m 0 0 m -21 100 l 492 900 l 1097 900 l 1058 644 l 967 644 l 967 804 l 817 804 l 736 794 l 689 469 l 847 469 l 878 558 l 961 558 l 925 286 l 844 286 l 844 379 l 676 379 l 639 106 l 749 96 l 879 96 l 935 250 l 1019 250 l 989 0 l 339 0 l 351 81 l 450 100 l 489 379 l 271 379 l 96 104 l 96 96 l 203 81 l 193 0 l -111 0 l -100 81 l -21 100 m 501 469 l 549 804 l 540 804 l 328 469 l 501 469 m 550 1003 l 811 1167 q 864 1076 864 1138 q 851 1041 864 1056 q 801 1013 839 1026 l 583 936 l 550 1003 z "},"B":{"ha":771,"x_min":-18,"x_max":736,"o":"m 93 100 l 192 800 l 94 819 l 106 900 l 456 900 q 665 857 593 900 q 736 714 736 814 q 666 560 736 624 q 501 472 596 497 q 642 415 583 460 q 701 286 701 369 q 651 128 701 193 q 519 32 601 64 q 343 0 438 0 l -18 0 l -6 81 l 93 100 m 333 500 q 495 569 449 519 q 542 700 542 618 q 418 804 542 804 q 392 803 403 804 q 379 800 382 801 l 333 500 m 279 93 q 335 86 304 86 q 461 137 422 86 q 500 264 500 188 q 456 379 500 342 q 324 421 413 417 l 279 93 z "},"C":{"ha":771,"x_min":42,"x_max":778,"o":"m 701 286 l 679 36 q 538 -2 614 11 q 390 -15 463 -15 q 128 82 215 -15 q 42 339 42 179 q 97 633 42 501 q 260 840 153 764 q 518 917 368 917 q 778 889 671 917 l 739 644 l 643 644 l 638 781 q 479 826 569 826 q 308 710 368 826 q 249 351 249 594 q 266 184 249 243 q 322 101 283 125 q 431 78 361 78 q 503 88 468 78 q 560 114 539 97 l 606 286 l 701 286 z "},"Ć":{"ha":771,"x_min":42,"x_max":778,"o":"m 353 1003 l 614 1167 q 653 1128 639 1151 q 667 1076 667 1106 q 652 1039 667 1054 q 604 1013 638 1024 l 386 936 l 353 1003 m 701 286 l 679 36 q 541 -2 617 11 q 390 -15 465 -15 q 133 78 225 -15 q 42 339 42 171 q 101 642 42 511 q 268 844 160 772 q 518 917 376 917 q 778 889 675 917 l 739 644 l 643 644 l 638 781 q 479 826 569 826 q 306 707 364 826 q 249 351 249 588 q 265 187 249 246 q 321 103 282 128 q 431 78 360 78 q 506 88 471 78 q 560 114 540 97 l 606 286 l 701 286 z "},"Č":{"ha":771,"x_min":42,"x_max":778,"o":"m 353 1165 l 510 1081 l 682 1163 l 718 1108 l 593 1006 q 558 976 585 999 q 516 945 531 954 q 493 936 501 936 q 466 947 481 936 q 438 972 451 958 q 419 989 424 985 l 299 1099 l 353 1165 m 701 286 l 679 36 q 538 -2 614 11 q 390 -15 463 -15 q 128 82 215 -15 q 42 339 42 179 q 97 633 42 501 q 260 840 153 764 q 518 917 368 917 q 778 889 671 917 l 739 644 l 643 644 l 638 781 q 479 826 569 826 q 308 710 368 826 q 249 351 249 594 q 266 184 249 243 q 322 101 283 125 q 431 78 361 78 q 503 88 468 78 q 560 114 539 97 l 606 286 l 701 286 z "},"Ç":{"ha":771,"x_min":42,"x_max":778,"o":"m 294 -167 q 316 -175 299 -168 q 354 -185 333 -182 q 400 -189 375 -189 q 419 -183 413 -189 q 425 -169 425 -178 q 419 -153 425 -160 q 393 -137 413 -147 l 328 -106 l 328 -71 l 363 -14 q 122 90 201 -6 q 42 339 42 186 q 97 633 42 501 q 260 840 153 764 q 518 917 368 917 q 778 889 671 917 l 739 644 l 643 644 l 638 781 q 479 826 569 826 q 308 710 368 826 q 249 351 249 594 q 266 184 249 243 q 322 101 283 125 q 431 78 361 78 q 503 88 468 78 q 560 114 539 97 l 606 286 l 701 286 l 679 36 q 440 -14 571 -6 l 440 -39 l 488 -64 q 541 -103 522 -82 q 560 -156 560 -124 q 520 -240 560 -211 q 421 -269 481 -269 q 258 -232 317 -269 l 294 -167 z "},"Ĉ":{"ha":771,"x_min":42,"x_max":778,"o":"m 42 0 m 701 286 l 679 36 q 538 -2 614 11 q 390 -15 463 -15 q 128 82 215 -15 q 42 339 42 179 q 97 633 42 501 q 260 840 153 764 q 518 917 368 917 q 778 889 671 917 l 739 644 l 643 644 l 638 781 q 479 826 569 826 q 308 710 368 826 q 249 351 249 594 q 266 184 249 243 q 322 101 283 125 q 431 78 361 78 q 503 88 468 78 q 560 114 539 97 l 606 286 l 701 286 m 479 1096 q 515 1125 488 1103 q 556 1156 542 1147 q 579 1165 571 1165 q 603 1156 590 1165 q 631 1133 617 1146 q 653 1113 646 1119 l 774 1003 l 719 936 l 563 1021 l 390 939 l 354 993 l 479 1096 z "},"Ċ":{"ha":771,"x_min":42,"x_max":778,"o":"m 42 0 m 701 286 l 679 36 q 538 -2 614 11 q 390 -15 463 -15 q 128 82 215 -15 q 42 339 42 179 q 97 633 42 501 q 260 840 153 764 q 518 917 368 917 q 778 889 671 917 l 739 644 l 643 644 l 638 781 q 479 826 569 826 q 308 710 368 826 q 249 351 249 594 q 266 184 249 243 q 322 101 283 125 q 431 78 361 78 q 503 88 468 78 q 560 114 539 97 l 606 286 l 701 286 m 556 946 q 490 973 515 946 q 465 1039 465 1000 q 494 1120 465 1085 q 572 1156 522 1156 q 638 1129 613 1156 q 664 1060 664 1103 q 635 980 664 1014 q 556 946 607 946 z "},"D":{"ha":899,"x_min":-18,"x_max":864,"o":"m 93 100 l 192 800 l 94 819 l 106 900 l 481 900 q 767 816 671 900 q 864 567 864 732 q 801 271 864 400 q 622 71 738 142 q 357 0 507 0 l -18 0 l -6 81 l 93 100 m 361 96 q 581 206 504 96 q 657 524 657 317 q 633 690 657 629 q 556 777 610 750 q 411 804 503 804 l 379 804 l 281 96 l 361 96 z "},"Ǳ":{"ha":1635,"x_min":-18,"x_max":1642,"o":"m 0 0 m 93 100 l 192 800 l 94 819 l 106 900 l 481 900 q 767 816 671 900 q 864 567 864 732 q 801 271 864 400 q 622 71 738 142 q 357 0 507 0 l -18 0 l -6 81 l 93 100 m 361 96 q 581 206 504 96 q 657 524 657 317 q 633 690 657 629 q 556 777 610 750 q 411 804 503 804 l 379 804 l 281 96 l 361 96 m 888 96 l 1413 785 l 1401 804 l 1107 804 l 1047 650 l 963 650 l 999 900 l 1578 900 l 1642 800 l 1113 107 l 1118 96 l 1428 96 l 1482 250 l 1567 250 l 1535 0 l 926 0 l 888 96 z "},"Ǆ":{"ha":1635,"x_min":-18,"x_max":1642,"o":"m 0 0 m 93 100 l 192 800 l 94 819 l 106 900 l 481 900 q 767 816 671 900 q 864 567 864 732 q 801 271 864 400 q 622 71 738 142 q 357 0 507 0 l -18 0 l -6 81 l 93 100 m 361 96 q 581 206 504 96 q 657 524 657 317 q 633 690 657 629 q 556 777 610 750 q 411 804 503 804 l 379 804 l 281 96 l 361 96 m 888 96 l 1413 785 l 1401 804 l 1107 804 l 1047 650 l 963 650 l 999 900 l 1578 900 l 1642 800 l 1113 107 l 1118 96 l 1428 96 l 1482 250 l 1567 250 l 1535 0 l 926 0 l 888 96 m 1311 936 q 1284 947 1299 936 q 1256 972 1269 958 q 1238 989 1242 985 l 1117 1099 l 1171 1165 l 1328 1081 l 1500 1163 l 1536 1108 l 1411 1006 q 1376 976 1403 999 q 1334 945 1349 954 q 1311 936 1319 936 z "},"Ð":{"ha":888,"x_min":-22,"x_max":860,"o":"m 89 100 l 133 415 l 32 415 l 46 508 l 146 508 l 188 800 l 90 819 l 101 900 l 476 900 q 763 817 667 900 q 860 567 860 733 q 797 271 860 400 q 618 71 733 142 q 353 0 503 0 l -22 0 l -10 81 l 89 100 m 357 96 q 574 203 494 96 q 653 524 653 310 q 624 703 653 642 q 542 784 594 764 q 407 804 490 804 l 375 804 l 333 508 l 507 508 l 493 415 l 321 415 l 276 96 l 357 96 z "},"Ď":{"ha":899,"x_min":-18,"x_max":864,"o":"m 489 1081 l 661 1163 l 697 1108 l 572 1006 q 537 976 564 999 q 495 945 510 954 q 472 936 481 936 q 445 947 460 936 q 417 972 431 958 q 399 989 403 985 l 278 1099 l 332 1165 l 489 1081 m 93 100 l 192 800 l 94 819 l 106 900 l 481 900 q 767 816 671 900 q 864 567 864 732 q 801 271 864 400 q 622 71 738 142 q 357 0 507 0 l -18 0 l -6 81 l 93 100 m 361 96 q 581 206 504 96 q 657 524 657 317 q 633 690 657 629 q 556 777 610 750 q 411 804 503 804 l 379 804 l 281 96 l 361 96 z "},"Đ":{"ha":899,"x_min":-18,"x_max":864,"o":"m 93 100 l 138 415 l 36 415 l 50 508 l 150 508 l 192 800 l 94 819 l 106 900 l 481 900 q 767 817 671 900 q 864 567 864 733 q 801 271 864 400 q 622 71 738 142 q 357 0 507 0 l -18 0 l -6 81 l 93 100 m 361 96 q 578 203 499 96 q 657 524 657 310 q 628 703 657 642 q 547 784 599 764 q 411 804 494 804 l 379 804 l 338 508 l 511 508 l 497 415 l 325 415 l 281 96 l 361 96 z "},"Ḍ":{"ha":899,"x_min":-18,"x_max":864,"o":"m 0 0 m 93 100 l 192 800 l 94 819 l 106 900 l 481 900 q 767 816 671 900 q 864 567 864 732 q 801 271 864 400 q 622 71 738 142 q 357 0 507 0 l -18 0 l -6 81 l 93 100 m 361 96 q 581 206 504 96 q 657 524 657 317 q 633 690 657 629 q 556 777 610 750 q 411 804 503 804 l 379 804 l 281 96 l 361 96 m 369 -269 q 300 -242 326 -269 q 274 -172 274 -214 q 303 -86 274 -124 q 386 -49 332 -49 q 456 -76 429 -49 q 483 -150 483 -104 q 453 -233 483 -197 q 369 -269 424 -269 z "},"ǲ":{"ha":1454,"x_min":-18,"x_max":1503,"o":"m 0 0 m 93 100 l 192 800 l 94 819 l 106 900 l 481 900 q 767 816 671 900 q 864 567 864 732 q 801 271 864 400 q 622 71 738 142 q 357 0 507 0 l -18 0 l -6 81 l 93 100 m 361 96 q 581 206 504 96 q 657 524 657 317 q 633 690 657 629 q 556 777 610 750 q 411 804 503 804 l 379 804 l 281 96 l 361 96 m 1231 515 l 1079 613 l 1046 493 l 972 493 q 959 512 969 497 q 940 551 949 526 q 931 606 931 576 q 967 684 931 656 q 1057 713 1004 713 q 1214 689 1117 713 l 1361 654 l 1439 710 l 1503 658 l 1125 188 l 1125 172 l 1288 85 l 1321 204 l 1390 204 q 1402 182 1393 200 q 1419 137 1411 164 q 1428 81 1428 110 q 1392 8 1428 32 q 1314 -15 1357 -15 q 1143 1 1229 -15 l 989 32 l 924 -10 l 854 47 l 1231 499 l 1231 515 z "},"ǅ":{"ha":1454,"x_min":-18,"x_max":1503,"o":"m 0 0 m 93 100 l 192 800 l 94 819 l 106 900 l 481 900 q 767 816 671 900 q 864 567 864 732 q 801 271 864 400 q 622 71 738 142 q 357 0 507 0 l -18 0 l -6 81 l 93 100 m 361 96 q 581 206 504 96 q 657 524 657 317 q 633 690 657 629 q 556 777 610 750 q 411 804 503 804 l 379 804 l 281 96 l 361 96 m 1231 515 l 1079 613 l 1046 493 l 972 493 q 959 512 969 497 q 940 551 949 526 q 931 606 931 576 q 967 684 931 656 q 1057 713 1004 713 q 1214 689 1117 713 l 1361 654 l 1439 710 l 1503 658 l 1125 188 l 1125 172 l 1288 85 l 1321 204 l 1390 204 q 1402 182 1393 200 q 1419 137 1411 164 q 1428 81 1428 110 q 1392 8 1428 32 q 1314 -15 1357 -15 q 1143 1 1229 -15 l 989 32 l 924 -10 l 854 47 l 1231 499 l 1231 515 m 1094 1025 l 1235 926 l 1406 1019 l 1449 972 l 1322 850 q 1253 787 1276 806 q 1217 768 1231 768 q 1188 781 1201 768 q 1164 808 1175 793 q 1149 829 1153 824 l 1039 976 l 1094 1025 z "},"E":{"ha":733,"x_min":-18,"x_max":740,"o":"m 93 100 l 192 800 l 94 819 l 106 900 l 740 900 l 701 644 l 610 644 l 610 804 l 460 804 l 379 794 l 338 508 l 496 508 l 526 597 l 610 597 l 574 325 l 493 325 l 493 418 l 325 418 l 282 106 l 392 96 l 522 96 l 578 250 l 663 250 l 632 0 l -18 0 l -6 81 l 93 100 z "},"É":{"ha":733,"x_min":-18,"x_max":740,"o":"m 313 1003 l 574 1167 q 626 1076 626 1138 q 614 1040 626 1056 q 564 1013 601 1025 l 346 936 l 313 1003 m 93 100 l 192 800 l 94 819 l 106 900 l 740 900 l 701 644 l 610 644 l 610 804 l 460 804 l 379 794 l 338 508 l 496 508 l 526 597 l 610 597 l 574 325 l 493 325 l 493 418 l 325 418 l 282 106 l 392 96 l 522 96 l 578 250 l 663 250 l 632 0 l -18 0 l -6 81 l 93 100 z "},"Ĕ":{"ha":733,"x_min":-18,"x_max":740,"o":"m 0 0 m 93 100 l 192 800 l 94 819 l 106 900 l 740 900 l 701 644 l 610 644 l 610 804 l 460 804 l 379 794 l 338 508 l 496 508 l 526 597 l 610 597 l 574 325 l 493 325 l 493 418 l 325 418 l 282 106 l 392 96 l 522 96 l 578 250 l 663 250 l 632 0 l -18 0 l -6 81 l 93 100 m 696 1131 q 594 1001 656 1060 q 428 943 533 943 q 339 962 383 943 q 266 1013 294 981 q 238 1082 238 1044 q 264 1124 238 1103 q 332 1161 290 1146 q 385 1096 356 1114 q 454 1078 414 1078 q 563 1099 518 1078 q 651 1165 607 1121 l 696 1131 z "},"Ě":{"ha":733,"x_min":-18,"x_max":740,"o":"m 310 1165 l 467 1081 l 639 1163 l 675 1108 l 550 1006 q 515 976 542 999 q 473 945 488 954 q 450 936 458 936 q 423 947 438 936 q 394 972 408 958 q 376 989 381 985 l 256 1099 l 310 1165 m 93 100 l 192 800 l 94 819 l 106 900 l 740 900 l 701 644 l 610 644 l 610 804 l 460 804 l 379 794 l 338 508 l 496 508 l 526 597 l 610 597 l 574 325 l 493 325 l 493 418 l 325 418 l 282 106 l 392 96 l 522 96 l 578 250 l 663 250 l 632 0 l -18 0 l -6 81 l 93 100 z "},"Ê":{"ha":733,"x_min":-18,"x_max":740,"o":"m 379 1096 q 415 1125 388 1103 q 456 1156 442 1147 q 479 1165 471 1165 q 503 1156 490 1165 q 531 1133 517 1146 q 553 1113 546 1119 l 674 1003 l 619 936 l 463 1021 l 290 939 l 254 993 l 379 1096 m 93 100 l 192 800 l 94 819 l 106 900 l 740 900 l 701 644 l 610 644 l 610 804 l 460 804 l 379 794 l 338 508 l 496 508 l 526 597 l 610 597 l 574 325 l 493 325 l 493 418 l 325 418 l 282 106 l 392 96 l 522 96 l 578 250 l 663 250 l 632 0 l -18 0 l -6 81 l 93 100 z "},"Ế":{"ha":733,"x_min":-18,"x_max":839,"o":"m 0 0 m 93 100 l 192 800 l 94 819 l 106 900 l 740 900 l 701 644 l 610 644 l 610 804 l 460 804 l 379 794 l 338 508 l 496 508 l 526 597 l 610 597 l 574 325 l 493 325 l 493 418 l 325 418 l 282 106 l 392 96 l 522 96 l 578 250 l 663 250 l 632 0 l -18 0 l -6 81 l 93 100 m 357 1096 q 392 1125 365 1103 q 434 1156 419 1147 q 457 1165 449 1165 q 481 1156 468 1165 q 509 1133 494 1146 q 531 1113 524 1119 l 651 1003 l 597 936 l 440 1021 l 268 939 l 232 993 l 357 1096 m 525 1203 l 786 1367 q 839 1276 839 1338 q 826 1241 839 1256 q 776 1213 814 1226 l 558 1136 l 525 1203 z "},"Ệ":{"ha":733,"x_min":-18,"x_max":740,"o":"m 0 0 m 93 100 l 192 800 l 94 819 l 106 900 l 740 900 l 701 644 l 610 644 l 610 804 l 460 804 l 379 794 l 338 508 l 496 508 l 526 597 l 610 597 l 574 325 l 493 325 l 493 418 l 325 418 l 282 106 l 392 96 l 522 96 l 578 250 l 663 250 l 632 0 l -18 0 l -6 81 l 93 100 m 286 -269 q 217 -242 243 -269 q 190 -172 190 -214 q 219 -86 190 -124 q 303 -49 249 -49 q 373 -76 346 -49 q 400 -150 400 -104 q 370 -233 400 -197 q 286 -269 340 -269 m 381 1096 q 416 1125 389 1103 q 458 1156 443 1147 q 481 1165 472 1165 q 505 1156 492 1165 q 533 1133 518 1146 q 554 1113 547 1119 l 675 1003 l 621 936 l 464 1021 l 292 939 l 256 993 l 381 1096 z "},"Ề":{"ha":733,"x_min":-18,"x_max":740,"o":"m 0 0 m 93 100 l 192 800 l 94 819 l 106 900 l 740 900 l 701 644 l 610 644 l 610 804 l 460 804 l 379 794 l 338 508 l 496 508 l 526 597 l 610 597 l 574 325 l 493 325 l 493 418 l 325 418 l 282 106 l 392 96 l 522 96 l 578 250 l 663 250 l 632 0 l -18 0 l -6 81 l 93 100 m 365 1096 q 401 1125 374 1103 q 442 1156 428 1147 q 465 1165 457 1165 q 490 1156 476 1165 q 517 1133 503 1146 q 539 1113 532 1119 l 660 1003 l 606 936 l 449 1021 l 276 939 l 240 993 l 365 1096 m 468 1213 q 418 1240 431 1225 q 406 1275 406 1254 q 420 1332 406 1311 q 458 1367 435 1353 l 719 1203 l 686 1136 l 468 1213 z "},"Ể":{"ha":733,"x_min":-18,"x_max":794,"o":"m 0 0 m 93 100 l 192 800 l 94 819 l 106 900 l 740 900 l 701 644 l 610 644 l 610 804 l 460 804 l 379 794 l 338 508 l 496 508 l 526 597 l 610 597 l 574 325 l 493 325 l 493 418 l 325 418 l 282 106 l 392 96 l 522 96 l 578 250 l 663 250 l 632 0 l -18 0 l -6 81 l 93 100 m 344 1096 q 380 1125 353 1103 q 422 1156 407 1147 q 444 1165 436 1165 q 469 1156 456 1165 q 497 1133 482 1146 q 518 1113 511 1119 l 639 1003 l 585 936 l 428 1021 l 256 939 l 219 993 l 344 1096 m 561 1121 q 551 1151 551 1140 q 563 1179 551 1168 q 614 1206 575 1190 q 646 1222 636 1214 q 656 1240 656 1229 q 613 1267 656 1267 q 529 1256 571 1267 q 511 1304 511 1281 q 628 1360 511 1360 q 751 1335 707 1360 q 794 1265 794 1311 q 692 1165 794 1206 q 665 1151 671 1157 q 658 1129 658 1146 l 561 1121 z "},"Ễ":{"ha":733,"x_min":-18,"x_max":757,"o":"m 271 1306 q 318 1340 293 1328 q 364 1353 343 1353 q 410 1349 388 1353 q 457 1338 433 1344 l 603 1299 l 717 1340 l 757 1304 l 688 1242 q 594 1194 636 1194 q 501 1210 551 1194 l 356 1250 l 242 1207 l 201 1244 l 271 1306 m 371 1096 q 406 1125 379 1103 q 448 1156 433 1147 q 471 1165 463 1165 q 495 1156 482 1165 q 523 1133 508 1146 q 544 1113 538 1119 l 665 1003 l 611 936 l 454 1021 l 282 939 l 246 993 l 371 1096 m 93 100 l 192 800 l 94 819 l 106 900 l 740 900 l 701 644 l 610 644 l 610 804 l 460 804 l 379 794 l 338 508 l 496 508 l 526 597 l 610 597 l 574 325 l 493 325 l 493 418 l 325 418 l 282 106 l 392 96 l 522 96 l 578 250 l 663 250 l 632 0 l -18 0 l -6 81 l 93 100 z "},"Ȅ":{"ha":733,"x_min":-18,"x_max":740,"o":"m 0 0 m 93 100 l 192 800 l 94 819 l 106 900 l 740 900 l 701 644 l 610 644 l 610 804 l 460 804 l 379 794 l 338 508 l 496 508 l 526 597 l 610 597 l 574 325 l 493 325 l 493 418 l 325 418 l 282 106 l 392 96 l 522 96 l 578 250 l 663 250 l 632 0 l -18 0 l -6 81 l 93 100 m 194 1010 q 153 1076 153 1040 q 194 1144 153 1114 q 276 1175 235 1175 l 374 967 l 308 919 l 194 1010 m 457 1010 q 415 1076 415 1040 q 456 1144 415 1114 q 539 1175 497 1175 l 636 967 l 571 919 l 457 1010 z "},"Ë":{"ha":733,"x_min":-18,"x_max":740,"o":"m 301 954 q 240 980 264 954 q 215 1043 215 1006 q 242 1122 215 1088 q 318 1156 269 1156 q 381 1131 356 1156 q 406 1064 406 1106 q 378 987 406 1019 q 301 954 350 954 m 611 954 q 549 980 574 954 q 525 1043 525 1006 q 552 1122 525 1088 q 628 1156 579 1156 q 690 1131 665 1156 q 715 1064 715 1106 q 688 987 715 1019 q 611 954 660 954 m 93 100 l 192 800 l 94 819 l 106 900 l 740 900 l 701 644 l 610 644 l 610 804 l 460 804 l 379 794 l 338 508 l 496 508 l 526 597 l 610 597 l 574 325 l 493 325 l 493 418 l 325 418 l 282 106 l 392 96 l 522 96 l 578 250 l 663 250 l 632 0 l -18 0 l -6 81 l 93 100 z "},"Ė":{"ha":733,"x_min":-18,"x_max":740,"o":"m 454 946 q 389 973 414 946 q 364 1039 364 1000 q 392 1120 364 1085 q 471 1156 421 1156 q 537 1129 511 1156 q 563 1060 563 1103 q 534 980 563 1014 q 454 946 506 946 m 93 100 l 192 800 l 94 819 l 106 900 l 740 900 l 701 644 l 610 644 l 610 804 l 460 804 l 379 794 l 338 508 l 496 508 l 526 597 l 610 597 l 574 325 l 493 325 l 493 418 l 325 418 l 282 106 l 392 96 l 522 96 l 578 250 l 663 250 l 632 0 l -18 0 l -6 81 l 93 100 z "},"Ẹ":{"ha":733,"x_min":-18,"x_max":740,"o":"m 0 0 m 93 100 l 192 800 l 94 819 l 106 900 l 740 900 l 701 644 l 610 644 l 610 804 l 460 804 l 379 794 l 338 508 l 496 508 l 526 597 l 610 597 l 574 325 l 493 325 l 493 418 l 325 418 l 282 106 l 392 96 l 522 96 l 578 250 l 663 250 l 632 0 l -18 0 l -6 81 l 93 100 m 286 -269 q 217 -242 243 -269 q 190 -172 190 -214 q 219 -86 190 -124 q 303 -49 249 -49 q 373 -76 346 -49 q 400 -150 400 -104 q 370 -233 400 -197 q 286 -269 340 -269 z "},"È":{"ha":733,"x_min":-18,"x_max":740,"o":"m 353 1013 q 303 1040 315 1025 q 290 1075 290 1054 q 305 1132 290 1111 q 343 1167 319 1153 l 604 1003 l 571 936 l 353 1013 m 93 100 l 192 800 l 94 819 l 106 900 l 740 900 l 701 644 l 610 644 l 610 804 l 460 804 l 379 794 l 338 508 l 496 508 l 526 597 l 610 597 l 574 325 l 493 325 l 493 418 l 325 418 l 282 106 l 392 96 l 522 96 l 578 250 l 663 250 l 632 0 l -18 0 l -6 81 l 93 100 z "},"Ẻ":{"ha":733,"x_min":-18,"x_max":740,"o":"m 0 0 m 93 100 l 192 800 l 94 819 l 106 900 l 740 900 l 701 644 l 610 644 l 610 804 l 460 804 l 379 794 l 338 508 l 496 508 l 526 597 l 610 597 l 574 325 l 493 325 l 493 418 l 325 418 l 282 106 l 392 96 l 522 96 l 578 250 l 663 250 l 632 0 l -18 0 l -6 81 l 93 100 m 407 938 q 397 968 397 957 q 409 996 397 985 q 460 1022 421 1007 q 492 1038 482 1031 q 501 1057 501 1046 q 458 1083 501 1083 q 375 1072 417 1083 q 357 1121 357 1097 q 474 1176 357 1176 q 597 1152 553 1176 q 640 1082 640 1128 q 538 982 640 1022 q 510 968 517 974 q 504 946 504 963 l 407 938 z "},"Ȇ":{"ha":733,"x_min":-18,"x_max":740,"o":"m 0 0 m 93 100 l 192 800 l 94 819 l 106 900 l 740 900 l 701 644 l 610 644 l 610 804 l 460 804 l 379 794 l 338 508 l 496 508 l 526 597 l 610 597 l 574 325 l 493 325 l 493 418 l 325 418 l 282 106 l 392 96 l 522 96 l 578 250 l 663 250 l 632 0 l -18 0 l -6 81 l 93 100 m 238 978 q 339 1107 278 1049 q 506 1165 400 1165 q 594 1147 550 1165 q 667 1096 639 1128 q 696 1026 696 1064 q 669 984 696 1006 q 601 947 643 963 q 549 1013 578 994 q 479 1031 519 1031 q 371 1009 415 1031 q 282 943 326 988 l 238 978 z "},"Ē":{"ha":733,"x_min":-18,"x_max":740,"o":"m 225 1108 l 711 1108 l 697 994 l 211 994 l 225 1108 m 93 100 l 192 800 l 94 819 l 106 900 l 740 900 l 701 644 l 610 644 l 610 804 l 460 804 l 379 794 l 338 508 l 496 508 l 526 597 l 610 597 l 574 325 l 493 325 l 493 418 l 325 418 l 282 106 l 392 96 l 522 96 l 578 250 l 663 250 l 632 0 l -18 0 l -6 81 l 93 100 z "},"Ę":{"ha":733,"x_min":-18,"x_max":740,"o":"m 610 644 l 610 804 l 460 804 l 379 794 l 338 508 l 496 508 l 526 597 l 610 597 l 574 325 l 493 325 l 493 418 l 325 418 l 282 106 l 392 96 l 522 96 l 578 250 l 663 250 l 632 0 l 592 0 q 518 -117 518 -54 q 530 -153 518 -143 q 567 -164 542 -164 q 639 -137 596 -164 l 672 -186 q 651 -208 672 -189 q 595 -243 629 -226 q 521 -260 561 -260 q 423 -235 460 -260 q 386 -161 386 -210 q 500 0 386 -67 l -18 0 l -6 81 l 93 100 l 192 800 l 94 819 l 106 900 l 740 900 l 701 644 l 610 644 z "},"Ẽ":{"ha":733,"x_min":-18,"x_max":743,"o":"m 0 0 m 93 100 l 192 800 l 94 819 l 106 900 l 740 900 l 701 644 l 610 644 l 610 804 l 460 804 l 379 794 l 338 508 l 496 508 l 526 597 l 610 597 l 574 325 l 493 325 l 493 418 l 325 418 l 282 106 l 392 96 l 522 96 l 578 250 l 663 250 l 632 0 l -18 0 l -6 81 l 93 100 m 257 1086 q 304 1131 279 1115 q 350 1146 329 1146 q 394 1141 374 1146 q 443 1126 414 1136 l 589 1078 l 703 1131 l 743 1085 l 674 1007 q 581 947 621 947 q 537 952 557 947 q 488 967 517 957 l 342 1017 l 228 964 l 188 1010 l 257 1086 z "},"F":{"ha":696,"x_min":-18,"x_max":746,"o":"m -6 81 l 93 100 l 192 800 l 94 819 l 106 900 l 746 900 l 706 644 l 614 644 l 614 804 l 458 804 l 378 794 l 333 482 l 508 482 l 535 571 l 615 571 l 575 293 l 497 293 l 497 386 l 321 386 l 279 93 l 414 75 l 406 0 l -18 0 l -6 81 z "},"G":{"ha":825,"x_min":42,"x_max":790,"o":"m 547 32 q 513 12 536 25 q 460 -8 490 -1 q 379 -15 429 -15 q 132 70 222 -15 q 42 333 42 156 q 97 627 42 494 q 260 838 151 760 q 524 917 368 917 q 679 908 610 917 q 790 889 749 900 l 751 643 l 656 643 l 647 783 q 486 826 575 826 q 307 708 365 826 q 249 335 249 589 q 264 188 249 243 q 318 105 279 133 q 429 76 357 76 q 482 84 457 76 q 521 99 507 92 q 539 110 535 107 l 574 363 l 425 386 l 432 464 l 763 464 l 703 0 l 579 0 l 557 32 l 547 32 z "},"Ǵ":{"ha":825,"x_min":42,"x_max":790,"o":"m 42 0 m 547 32 q 513 12 536 25 q 460 -8 490 -1 q 379 -15 429 -15 q 132 70 222 -15 q 42 333 42 156 q 97 627 42 494 q 260 838 151 760 q 524 917 368 917 q 679 908 610 917 q 790 889 749 900 l 751 643 l 656 643 l 647 783 q 486 826 575 826 q 307 708 365 826 q 249 335 249 589 q 264 188 249 243 q 318 105 279 133 q 429 76 357 76 q 482 84 457 76 q 521 99 507 92 q 539 110 535 107 l 574 363 l 425 386 l 432 464 l 763 464 l 703 0 l 579 0 l 557 32 l 547 32 m 465 1003 l 726 1167 q 779 1076 779 1138 q 767 1041 779 1056 q 717 1013 754 1026 l 499 936 l 465 1003 z "},"Ğ":{"ha":825,"x_min":42,"x_max":790,"o":"m 765 1131 q 664 1001 725 1060 q 497 943 603 943 q 408 962 453 943 q 335 1013 364 981 q 307 1082 307 1044 q 333 1124 307 1103 q 401 1161 360 1146 q 454 1096 425 1114 q 524 1078 483 1078 q 632 1099 588 1078 q 721 1165 676 1121 l 765 1131 m 547 32 q 513 12 536 25 q 460 -8 490 -1 q 379 -15 429 -15 q 132 70 222 -15 q 42 333 42 156 q 97 627 42 494 q 260 838 151 760 q 524 917 368 917 q 679 908 610 917 q 790 889 749 900 l 751 643 l 656 643 l 647 783 q 486 826 575 826 q 307 708 365 826 q 249 335 249 589 q 264 188 249 243 q 318 105 279 133 q 429 76 357 76 q 482 84 457 76 q 521 99 507 92 q 539 110 535 107 l 574 363 l 425 386 l 432 464 l 763 464 l 703 0 l 579 0 l 557 32 l 547 32 z "},"Ǧ":{"ha":825,"x_min":42,"x_max":790,"o":"m 42 0 m 547 32 q 513 12 536 25 q 460 -8 490 -1 q 379 -15 429 -15 q 132 70 222 -15 q 42 333 42 156 q 97 627 42 494 q 260 838 151 760 q 524 917 368 917 q 679 908 610 917 q 790 889 749 900 l 751 643 l 656 643 l 647 783 q 486 826 575 826 q 307 708 365 826 q 249 335 249 589 q 264 188 249 243 q 318 105 279 133 q 429 76 357 76 q 482 84 457 76 q 521 99 507 92 q 539 110 535 107 l 574 363 l 425 386 l 432 464 l 763 464 l 703 0 l 579 0 l 557 32 l 547 32 m 538 936 q 510 947 525 936 q 482 972 496 958 q 464 989 468 985 l 343 1099 l 397 1165 l 554 1081 l 726 1163 l 763 1108 l 638 1006 q 602 976 629 999 q 560 945 575 954 q 538 936 546 936 z "},"Ĝ":{"ha":825,"x_min":42,"x_max":790,"o":"m 42 0 m 547 32 q 513 12 536 25 q 460 -8 490 -1 q 379 -15 429 -15 q 132 70 222 -15 q 42 333 42 156 q 97 627 42 494 q 260 838 151 760 q 524 917 368 917 q 679 908 610 917 q 790 889 749 900 l 751 643 l 656 643 l 647 783 q 486 826 575 826 q 307 708 365 826 q 249 335 249 589 q 264 188 249 243 q 318 105 279 133 q 429 76 357 76 q 482 84 457 76 q 521 99 507 92 q 539 110 535 107 l 574 363 l 425 386 l 432 464 l 763 464 l 703 0 l 579 0 l 557 32 l 547 32 m 468 1096 q 503 1125 476 1103 q 545 1156 531 1147 q 568 1165 560 1165 q 592 1156 579 1165 q 620 1133 606 1146 q 642 1113 635 1119 l 763 1003 l 708 936 l 551 1021 l 379 939 l 343 993 l 468 1096 z "},"Ģ":{"ha":825,"x_min":42,"x_max":790,"o":"m 547 32 q 513 12 536 25 q 460 -8 490 -1 q 379 -15 429 -15 q 132 70 222 -15 q 42 333 42 156 q 97 627 42 494 q 260 838 151 760 q 524 917 368 917 q 679 908 610 917 q 790 889 749 900 l 751 643 l 656 643 l 647 783 q 486 826 575 826 q 307 708 365 826 q 249 335 249 589 q 264 188 249 243 q 318 105 279 133 q 429 76 357 76 q 482 84 457 76 q 521 99 507 92 q 539 110 535 107 l 574 363 l 425 386 l 432 464 l 763 464 l 703 0 l 579 0 l 557 32 l 547 32 m 297 -258 q 313 -240 301 -254 q 336 -200 325 -225 q 347 -146 347 -175 q 342 -114 347 -129 q 329 -90 336 -99 q 321 -79 322 -82 q 353 -47 332 -60 q 400 -33 375 -33 q 465 -58 443 -33 q 486 -115 486 -82 q 451 -211 486 -171 q 374 -276 417 -251 q 331 -299 331 -301 l 297 -258 z "},"Ġ":{"ha":825,"x_min":42,"x_max":790,"o":"m 42 0 m 547 32 q 513 12 536 25 q 460 -8 490 -1 q 379 -15 429 -15 q 132 70 222 -15 q 42 333 42 156 q 97 627 42 494 q 260 838 151 760 q 524 917 368 917 q 679 908 610 917 q 790 889 749 900 l 751 643 l 656 643 l 647 783 q 486 826 575 826 q 307 708 365 826 q 249 335 249 589 q 264 188 249 243 q 318 105 279 133 q 429 76 357 76 q 482 84 457 76 q 521 99 507 92 q 539 110 535 107 l 574 363 l 425 386 l 432 464 l 763 464 l 703 0 l 579 0 l 557 32 l 547 32 m 544 946 q 479 973 504 946 q 454 1039 454 1000 q 483 1120 454 1085 q 561 1156 511 1156 q 627 1129 601 1156 q 653 1060 653 1103 q 624 980 653 1014 q 544 946 596 946 z "},"H":{"ha":935,"x_min":-18,"x_max":958,"o":"m -7 81 l 92 100 l 190 800 l 93 819 l 104 900 l 486 900 l 475 819 l 376 800 l 335 503 l 619 503 l 663 800 l 565 819 l 576 900 l 958 900 l 947 819 l 849 800 l 749 100 l 846 81 l 835 0 l 453 0 l 464 81 l 563 100 l 606 410 l 321 410 l 278 100 l 375 81 l 364 0 l -18 0 l -7 81 z "},"Ħ":{"ha":935,"x_min":-18,"x_max":958,"o":"m 947 819 l 849 800 l 832 686 l 929 686 l 915 593 l 819 593 l 749 100 l 846 81 l 835 0 l 453 0 l 464 81 l 563 100 l 601 368 l 315 368 l 278 100 l 375 81 l 364 0 l -18 0 l -7 81 l 92 100 l 161 593 l 65 593 l 79 686 l 174 686 l 190 800 l 93 819 l 104 900 l 486 900 l 475 819 l 376 800 l 360 686 l 646 686 l 663 800 l 565 819 l 576 900 l 958 900 l 947 819 m 614 461 l 633 593 l 347 593 l 329 461 l 614 461 z "},"Ĥ":{"ha":935,"x_min":-18,"x_max":958,"o":"m 0 0 m -7 81 l 92 100 l 190 800 l 93 819 l 104 900 l 486 900 l 475 819 l 376 800 l 335 503 l 619 503 l 663 800 l 565 819 l 576 900 l 958 900 l 947 819 l 849 800 l 749 100 l 846 81 l 835 0 l 453 0 l 464 81 l 563 100 l 606 410 l 321 410 l 278 100 l 375 81 l 364 0 l -18 0 l -7 81 m 468 1096 q 503 1125 476 1103 q 545 1156 531 1147 q 568 1165 560 1165 q 592 1156 579 1165 q 620 1133 606 1146 q 642 1113 635 1119 l 763 1003 l 708 936 l 551 1021 l 379 939 l 343 993 l 468 1096 z "},"Ḥ":{"ha":935,"x_min":-18,"x_max":958,"o":"m 0 0 m -7 81 l 92 100 l 190 800 l 93 819 l 104 900 l 486 900 l 475 819 l 376 800 l 335 503 l 619 503 l 663 800 l 565 819 l 576 900 l 958 900 l 947 819 l 849 800 l 749 100 l 846 81 l 835 0 l 453 0 l 464 81 l 563 100 l 606 410 l 321 410 l 278 100 l 375 81 l 364 0 l -18 0 l -7 81 m 376 -269 q 307 -242 333 -269 q 281 -172 281 -214 q 310 -86 281 -124 q 393 -49 339 -49 q 463 -76 436 -49 q 490 -150 490 -104 q 460 -233 490 -197 q 376 -269 431 -269 z "},"I":{"ha":464,"x_min":-18,"x_max":488,"o":"m -6 81 l 93 100 l 192 800 l 94 819 l 106 900 l 488 900 l 476 819 l 378 800 l 279 100 l 376 81 l 364 0 l -18 0 l -6 81 z "},"Ĳ":{"ha":1049,"x_min":-18,"x_max":1104,"o":"m 0 0 m -6 81 l 93 100 l 192 800 l 94 819 l 106 900 l 488 900 l 476 819 l 378 800 l 279 100 l 376 81 l 364 0 l -18 0 l -6 81 m 567 268 l 586 94 q 594 88 588 93 q 615 79 601 83 q 644 75 628 75 q 697 92 681 75 q 722 167 714 110 l 810 800 l 713 819 l 722 900 l 1104 900 l 1094 819 l 996 800 l 911 179 q 874 67 901 110 q 789 3 847 25 q 631 -19 731 -19 q 524 -8 583 -19 q 435 18 464 4 l 468 268 l 567 268 z "},"Í":{"ha":464,"x_min":-18,"x_max":488,"o":"m 174 1003 l 435 1167 q 488 1076 488 1138 q 475 1040 488 1056 q 425 1013 463 1025 l 207 936 l 174 1003 m -6 81 l 93 100 l 192 800 l 94 819 l 106 900 l 488 900 l 476 819 l 378 800 l 279 100 l 376 81 l 364 0 l -18 0 l -6 81 z "},"Ĭ":{"ha":464,"x_min":-18,"x_max":549,"o":"m 0 0 m -6 81 l 93 100 l 192 800 l 94 819 l 106 900 l 488 900 l 476 819 l 378 800 l 279 100 l 376 81 l 364 0 l -18 0 l -6 81 m 549 1131 q 447 1001 508 1060 q 281 943 386 943 q 192 962 236 943 q 119 1013 147 981 q 90 1082 90 1044 q 117 1124 90 1103 q 185 1161 143 1146 q 238 1096 208 1114 q 307 1078 267 1078 q 415 1099 371 1078 q 504 1165 460 1121 l 549 1131 z "},"Ǐ":{"ha":464,"x_min":-18,"x_max":528,"o":"m 0 0 m -6 81 l 93 100 l 192 800 l 94 819 l 106 900 l 488 900 l 476 819 l 378 800 l 279 100 l 376 81 l 364 0 l -18 0 l -6 81 m 303 936 q 276 947 290 936 q 247 972 261 958 q 229 989 233 985 l 108 1099 l 163 1165 l 319 1081 l 492 1163 l 528 1108 l 403 1006 q 367 976 394 999 q 326 945 340 954 q 303 936 311 936 z "},"Î":{"ha":464,"x_min":-18,"x_max":532,"o":"m 238 1096 q 273 1125 246 1103 q 315 1156 300 1147 q 338 1165 329 1165 q 362 1156 349 1165 q 390 1133 375 1146 q 411 1113 404 1119 l 532 1003 l 478 936 l 321 1021 l 149 939 l 113 993 l 238 1096 m -6 81 l 93 100 l 192 800 l 94 819 l 106 900 l 488 900 l 476 819 l 378 800 l 279 100 l 376 81 l 364 0 l -18 0 l -6 81 z "},"Ȉ":{"ha":464,"x_min":-18,"x_max":489,"o":"m 0 0 m -6 81 l 93 100 l 192 800 l 94 819 l 106 900 l 488 900 l 476 819 l 378 800 l 279 100 l 376 81 l 364 0 l -18 0 l -6 81 m 47 1010 q 6 1076 6 1040 q 47 1144 6 1114 q 129 1175 88 1175 l 226 967 l 161 919 l 47 1010 m 310 1010 q 268 1076 268 1040 q 309 1144 268 1114 q 392 1175 350 1175 l 489 967 l 424 919 l 310 1010 z "},"Ï":{"ha":464,"x_min":-18,"x_max":567,"o":"m 153 954 q 91 980 115 954 q 67 1043 67 1006 q 94 1122 67 1088 q 169 1156 121 1156 q 232 1131 207 1156 q 257 1064 257 1106 q 229 987 257 1019 q 153 954 201 954 m 463 954 q 401 980 425 954 q 376 1043 376 1006 q 403 1122 376 1088 q 479 1156 431 1156 q 542 1131 517 1156 q 567 1064 567 1106 q 539 987 567 1019 q 463 954 511 954 m -6 81 l 93 100 l 192 800 l 94 819 l 106 900 l 488 900 l 476 819 l 378 800 l 279 100 l 376 81 l 364 0 l -18 0 l -6 81 z "},"İ":{"ha":464,"x_min":-18,"x_max":488,"o":"m 318 946 q 253 973 278 946 q 228 1039 228 1000 q 256 1120 228 1085 q 335 1156 285 1156 q 401 1129 375 1156 q 426 1060 426 1103 q 398 980 426 1014 q 318 946 369 946 m -6 81 l 93 100 l 192 800 l 94 819 l 106 900 l 488 900 l 476 819 l 378 800 l 279 100 l 376 81 l 364 0 l -18 0 l -6 81 z "},"Ị":{"ha":464,"x_min":-18,"x_max":488,"o":"m 0 0 m -6 81 l 93 100 l 192 800 l 94 819 l 106 900 l 488 900 l 476 819 l 378 800 l 279 100 l 376 81 l 364 0 l -18 0 l -6 81 m 142 -269 q 72 -242 99 -269 q 46 -172 46 -214 q 75 -86 46 -124 q 158 -49 104 -49 q 228 -76 201 -49 q 256 -150 256 -104 q 226 -233 256 -197 q 142 -269 196 -269 z "},"Ì":{"ha":464,"x_min":-18,"x_max":488,"o":"m 213 1013 q 163 1040 175 1025 q 150 1075 150 1054 q 165 1132 150 1111 q 203 1167 179 1153 l 464 1003 l 431 936 l 213 1013 m -6 81 l 93 100 l 192 800 l 94 819 l 106 900 l 488 900 l 476 819 l 378 800 l 279 100 l 376 81 l 364 0 l -18 0 l -6 81 z "},"Ỉ":{"ha":464,"x_min":-18,"x_max":493,"o":"m 0 0 m -6 81 l 93 100 l 192 800 l 94 819 l 106 900 l 488 900 l 476 819 l 378 800 l 279 100 l 376 81 l 364 0 l -18 0 l -6 81 m 260 938 q 250 968 250 957 q 262 996 250 985 q 313 1022 274 1007 q 344 1038 335 1031 q 354 1057 354 1046 q 311 1083 354 1083 q 228 1072 269 1083 q 210 1121 210 1097 q 326 1176 210 1176 q 449 1152 406 1176 q 493 1082 493 1128 q 390 982 493 1022 q 363 968 369 974 q 357 946 357 963 l 260 938 z "},"Ȋ":{"ha":464,"x_min":-18,"x_max":549,"o":"m 0 0 m -6 81 l 93 100 l 192 800 l 94 819 l 106 900 l 488 900 l 476 819 l 378 800 l 279 100 l 376 81 l 364 0 l -18 0 l -6 81 m 90 978 q 192 1107 131 1049 q 358 1165 253 1165 q 447 1147 403 1165 q 520 1096 492 1128 q 549 1026 549 1064 q 522 984 549 1006 q 454 947 496 963 q 401 1013 431 994 q 332 1031 372 1031 q 224 1009 268 1031 q 135 943 179 988 l 90 978 z "},"Ī":{"ha":464,"x_min":-18,"x_max":544,"o":"m 86 1108 l 544 1108 l 531 994 l 72 994 l 86 1108 m -6 81 l 93 100 l 192 800 l 94 819 l 106 900 l 488 900 l 476 819 l 378 800 l 279 100 l 376 81 l 364 0 l -18 0 l -6 81 z "},"Į":{"ha":464,"x_min":-18,"x_max":488,"o":"m 93 100 l 192 800 l 94 819 l 106 900 l 488 900 l 476 819 l 378 800 l 279 100 l 376 81 l 364 0 l 250 0 q 176 -117 176 -54 q 188 -153 176 -143 q 225 -164 200 -164 q 297 -137 254 -164 l 331 -186 q 309 -208 331 -189 q 253 -243 288 -226 q 179 -260 219 -260 q 81 -235 118 -260 q 44 -161 44 -210 q 158 0 44 -67 l -18 0 l -6 81 l 93 100 z "},"Ĩ":{"ha":464,"x_min":-18,"x_max":596,"o":"m 0 0 m -6 81 l 93 100 l 192 800 l 94 819 l 106 900 l 488 900 l 476 819 l 378 800 l 279 100 l 376 81 l 364 0 l -18 0 l -6 81 m 110 1086 q 157 1131 132 1115 q 203 1146 182 1146 q 247 1141 226 1146 q 296 1126 267 1136 l 442 1078 l 556 1131 l 596 1085 l 526 1007 q 433 947 474 947 q 390 952 410 947 q 340 967 369 957 l 194 1017 l 81 964 l 40 1010 l 110 1086 z "},"J":{"ha":585,"x_min":-29,"x_max":640,"o":"m 103 268 l 122 94 q 131 88 124 93 q 151 79 138 83 q 181 75 164 75 q 233 92 217 75 q 258 167 250 110 l 346 800 l 249 819 l 258 900 l 640 900 l 631 819 l 532 800 l 447 179 q 410 67 438 110 q 325 3 383 25 q 167 -19 267 -19 q 60 -8 119 -19 q -29 18 0 4 l 4 268 l 103 268 z "},"Ĵ":{"ha":585,"x_min":-29,"x_max":683,"o":"m 0 0 m 103 268 l 122 94 q 131 88 124 93 q 151 79 138 83 q 181 75 164 75 q 233 92 217 75 q 258 167 250 110 l 346 800 l 249 819 l 258 900 l 640 900 l 631 819 l 532 800 l 447 179 q 410 67 438 110 q 325 3 383 25 q 167 -19 267 -19 q 60 -8 119 -19 q -29 18 0 4 l 4 268 l 103 268 m 389 1096 q 424 1125 397 1103 q 466 1156 451 1147 q 489 1165 481 1165 q 513 1156 500 1165 q 541 1133 526 1146 q 563 1113 556 1119 l 683 1003 l 629 936 l 472 1021 l 300 939 l 264 993 l 389 1096 z "},"K":{"ha":778,"x_min":-18,"x_max":854,"o":"m 93 100 l 192 800 l 94 819 l 106 900 l 488 900 l 476 819 l 378 800 l 335 500 l 346 500 l 615 796 l 615 804 l 546 819 l 556 900 l 854 900 l 842 819 l 758 801 l 482 500 l 689 103 l 796 81 l 783 0 l 581 0 q 537 15 551 0 q 506 64 522 29 l 335 417 l 324 417 l 279 100 l 376 81 l 364 0 l -18 0 l -6 81 l 93 100 z "},"Ķ":{"ha":778,"x_min":-18,"x_max":854,"o":"m 93 100 l 192 800 l 94 819 l 106 900 l 488 900 l 476 819 l 378 800 l 335 500 l 346 500 l 615 796 l 615 804 l 546 819 l 556 900 l 854 900 l 842 819 l 758 801 l 482 500 l 689 103 l 796 81 l 783 0 l 581 0 q 537 15 551 0 q 506 64 522 29 l 335 417 l 324 417 l 279 100 l 376 81 l 364 0 l -18 0 l -6 81 l 93 100 m 292 -258 q 308 -240 296 -254 q 331 -200 319 -225 q 342 -146 342 -175 q 336 -114 342 -129 q 324 -90 331 -99 q 315 -79 317 -82 q 348 -47 326 -60 q 394 -33 369 -33 q 459 -58 438 -33 q 481 -115 481 -82 q 446 -211 481 -171 q 368 -276 411 -251 q 325 -299 325 -301 l 292 -258 z "},"L":{"ha":631,"x_min":-18,"x_max":624,"o":"m -6 81 l 93 100 l 192 800 l 94 819 l 106 900 l 488 900 l 476 819 l 378 800 l 279 100 l 339 90 l 479 90 l 538 250 l 624 250 l 594 0 l -18 0 l -6 81 z "},"Ǉ":{"ha":1243,"x_min":-18,"x_max":1299,"o":"m 0 0 m -6 81 l 93 100 l 192 800 l 94 819 l 106 900 l 488 900 l 476 819 l 378 800 l 279 100 l 339 90 l 479 90 l 538 250 l 624 250 l 594 0 l -18 0 l -6 81 m 761 268 l 781 94 q 789 88 782 93 q 809 79 796 83 q 839 75 822 75 q 892 92 875 75 q 917 167 908 110 l 1004 800 l 907 819 l 917 900 l 1299 900 l 1289 819 l 1190 800 l 1106 179 q 1069 67 1096 110 q 983 3 1042 25 q 825 -19 925 -19 q 718 -8 778 -19 q 629 18 658 4 l 663 268 l 761 268 z "},"Ĺ":{"ha":631,"x_min":-18,"x_max":624,"o":"m 175 1003 l 436 1167 q 489 1076 489 1138 q 476 1040 489 1056 q 426 1013 464 1025 l 208 936 l 175 1003 m -6 81 l 93 100 l 192 800 l 94 819 l 106 900 l 488 900 l 476 819 l 378 800 l 279 100 l 339 90 l 479 90 l 538 250 l 624 250 l 594 0 l -18 0 l -6 81 z "},"Ľ":{"ha":631,"x_min":-18,"x_max":725,"o":"m 551 794 q 565 813 554 799 q 584 853 575 828 q 593 907 593 878 q 590 940 593 924 q 583 963 586 956 q 578 974 579 971 q 649 1019 604 1019 q 706 999 688 1019 q 725 946 725 979 q 694 848 725 890 q 624 778 663 806 q 585 754 585 751 l 551 794 m -6 81 l 93 100 l 192 800 l 94 819 l 106 900 l 488 900 l 476 819 l 378 800 l 279 100 l 339 90 l 479 90 l 538 250 l 624 250 l 594 0 l -18 0 l -6 81 z "},"Ļ":{"ha":631,"x_min":-18,"x_max":624,"o":"m -6 81 l 93 100 l 192 800 l 94 819 l 106 900 l 488 900 l 476 819 l 378 800 l 279 100 l 339 90 l 479 90 l 538 250 l 624 250 l 594 0 l -18 0 l -6 81 m 186 -258 q 202 -240 190 -254 q 225 -200 214 -225 q 236 -146 236 -175 q 231 -114 236 -129 q 218 -90 225 -99 q 210 -79 211 -82 q 242 -47 221 -60 q 289 -33 264 -33 q 353 -58 332 -33 q 375 -115 375 -82 q 340 -211 375 -171 q 263 -276 306 -251 q 219 -299 219 -301 l 186 -258 z "},"Ŀ":{"ha":631,"x_min":-18,"x_max":631,"o":"m 0 0 m -6 81 l 93 100 l 192 800 l 94 819 l 106 900 l 488 900 l 476 819 l 378 800 l 279 100 l 339 90 l 479 90 l 538 250 l 624 250 l 594 0 l -18 0 l -6 81 m 517 431 q 453 454 478 431 q 429 519 429 478 q 459 605 429 568 q 543 642 489 642 q 606 617 581 642 q 631 554 631 593 q 599 467 631 503 q 517 431 568 431 z "},"ǈ":{"ha":1019,"x_min":-18,"x_max":997,"o":"m 0 0 m -6 81 l 93 100 l 192 800 l 94 819 l 106 900 l 488 900 l 476 819 l 378 800 l 279 100 l 339 90 l 479 90 l 538 250 l 624 250 l 594 0 l -18 0 l -6 81 m 900 1007 q 970 979 943 1007 q 997 906 997 951 q 967 822 997 858 q 883 786 938 786 q 814 814 840 786 q 788 883 788 842 q 817 969 788 932 q 900 1007 846 1007 m 689 675 l 960 701 l 960 567 l 889 57 q 835 -92 878 -24 q 724 -199 792 -160 q 574 -239 657 -239 q 497 -222 521 -239 q 474 -164 474 -204 q 482 -122 474 -140 q 494 -100 490 -104 l 607 -100 q 653 -95 633 -100 q 676 -86 674 -90 q 714 56 697 -49 l 793 567 l 689 589 l 689 675 z "},"Ł":{"ha":629,"x_min":-18,"x_max":624,"o":"m -6 81 l 93 100 l 128 349 l 25 308 l 25 404 l 143 451 l 192 800 l 94 819 l 106 900 l 488 900 l 476 819 l 378 800 l 339 531 l 483 589 l 483 489 l 325 426 l 279 100 l 339 90 l 479 90 l 538 250 l 624 250 l 594 0 l -18 0 l -6 81 z "},"M":{"ha":1078,"x_min":-15,"x_max":1096,"o":"m -3 81 l 96 100 l 194 800 l 97 819 l 108 900 l 419 900 l 507 319 l 507 289 l 513 289 l 518 319 l 778 900 l 1096 900 l 1086 819 l 988 800 l 889 100 l 986 81 l 974 0 l 592 0 l 604 81 l 703 100 l 776 600 l 788 644 l 781 644 l 496 0 l 394 0 l 293 639 l 288 639 l 288 601 l 217 100 l 315 81 l 306 0 l -15 0 l -3 81 z "},"N":{"ha":892,"x_min":-22,"x_max":931,"o":"m -10 81 l 89 100 l 188 800 l 90 819 l 101 900 l 369 900 l 622 296 l 625 274 l 631 274 l 631 296 l 703 800 l 606 819 l 615 900 l 931 900 l 921 819 l 822 800 l 713 0 l 554 0 l 294 622 l 293 643 l 288 643 l 210 100 l 308 81 l 299 0 l -22 0 l -10 81 z "},"Ǌ":{"ha":1476,"x_min":-22,"x_max":1532,"o":"m 0 0 m -10 81 l 89 100 l 188 800 l 90 819 l 101 900 l 369 900 l 622 296 l 625 274 l 631 274 l 631 296 l 703 800 l 606 819 l 615 900 l 931 900 l 921 819 l 822 800 l 713 0 l 554 0 l 294 622 l 293 643 l 288 643 l 210 100 l 308 81 l 299 0 l -22 0 l -10 81 m 994 268 l 1014 94 q 1022 88 1015 93 q 1042 79 1029 83 q 1072 75 1056 75 q 1125 92 1108 75 q 1150 167 1142 110 l 1238 800 l 1140 819 l 1150 900 l 1532 900 l 1522 819 l 1424 800 l 1339 179 q 1302 67 1329 110 q 1217 3 1275 25 q 1058 -19 1158 -19 q 951 -8 1011 -19 q 863 18 892 4 l 896 268 l 994 268 z "},"Ń":{"ha":892,"x_min":-22,"x_max":931,"o":"m 390 1003 l 651 1167 q 704 1076 704 1138 q 692 1040 704 1056 q 642 1013 679 1025 l 424 936 l 390 1003 m -10 81 l 89 100 l 188 800 l 90 819 l 101 900 l 369 900 l 622 296 l 625 274 l 631 274 l 631 296 l 703 800 l 606 819 l 615 900 l 931 900 l 921 819 l 822 800 l 713 0 l 554 0 l 294 622 l 293 643 l 288 643 l 210 100 l 308 81 l 299 0 l -22 0 l -10 81 z "},"Ň":{"ha":892,"x_min":-22,"x_max":931,"o":"m 382 1165 l 539 1081 l 711 1163 l 747 1108 l 622 1006 q 587 976 614 999 q 545 945 560 954 q 522 936 531 936 q 495 947 510 936 q 467 972 481 958 q 449 989 453 985 l 328 1099 l 382 1165 m -10 81 l 89 100 l 188 800 l 90 819 l 101 900 l 369 900 l 622 296 l 625 274 l 631 274 l 631 296 l 703 800 l 606 819 l 615 900 l 931 900 l 921 819 l 822 800 l 713 0 l 554 0 l 294 622 l 293 643 l 288 643 l 210 100 l 308 81 l 299 0 l -22 0 l -10 81 z "},"Ņ":{"ha":892,"x_min":-22,"x_max":931,"o":"m -10 81 l 89 100 l 188 800 l 90 819 l 101 900 l 369 900 l 622 296 l 625 274 l 631 274 l 631 296 l 703 800 l 606 819 l 615 900 l 931 900 l 921 819 l 822 800 l 713 0 l 554 0 l 294 622 l 293 643 l 288 643 l 210 100 l 308 81 l 299 0 l -22 0 l -10 81 m 285 -258 q 301 -240 289 -254 q 324 -200 313 -225 q 335 -146 335 -175 q 329 -114 335 -129 q 317 -90 324 -99 q 308 -79 310 -82 q 341 -47 319 -60 q 388 -33 363 -33 q 452 -58 431 -33 q 474 -115 474 -82 q 439 -211 474 -171 q 361 -276 404 -251 q 318 -299 318 -301 l 285 -258 z "},"Ṅ":{"ha":892,"x_min":-22,"x_max":931,"o":"m 0 0 m -10 81 l 89 100 l 188 800 l 90 819 l 101 900 l 369 900 l 622 296 l 625 274 l 631 274 l 631 296 l 703 800 l 606 819 l 615 900 l 931 900 l 921 819 l 822 800 l 713 0 l 554 0 l 294 622 l 293 643 l 288 643 l 210 100 l 308 81 l 299 0 l -22 0 l -10 81 m 536 946 q 471 973 496 946 q 446 1039 446 1000 q 474 1120 446 1085 q 553 1156 503 1156 q 619 1129 593 1156 q 644 1060 644 1103 q 616 980 644 1014 q 536 946 588 946 z "},"Ŋ":{"ha":892,"x_min":-22,"x_max":931,"o":"m 931 900 l 921 819 l 822 800 l 721 60 q 667 -90 710 -22 q 557 -199 625 -158 q 406 -239 489 -239 q 329 -222 353 -239 q 306 -164 306 -204 q 314 -122 306 -140 q 326 -100 322 -104 l 439 -100 q 485 -95 465 -100 q 508 -86 506 -90 q 542 31 528 -50 l 294 622 l 293 643 l 288 643 l 210 100 l 308 81 l 299 0 l -22 0 l -10 81 l 89 100 l 188 800 l 90 819 l 101 900 l 369 900 l 622 296 l 625 274 l 631 274 l 631 296 l 703 800 l 606 819 l 615 900 l 931 900 z "},"Ɲ":{"ha":892,"x_min":-160,"x_max":931,"o":"m 931 900 l 921 819 l 822 800 l 713 0 l 554 0 l 294 622 l 293 643 l 288 643 l 204 57 q 115 -154 186 -69 q -60 -239 44 -239 q -136 -222 -112 -239 q -160 -164 -160 -204 q -151 -122 -160 -140 q -139 -100 -143 -104 l -26 -100 q 20 -95 0 -100 q 43 -86 40 -90 q 81 56 64 -49 l 188 800 l 90 819 l 101 900 l 369 900 l 622 296 l 625 274 l 631 274 l 631 296 l 703 800 l 606 819 l 615 900 l 931 900 z "},"ǋ":{"ha":1281,"x_min":-22,"x_max":1258,"o":"m 0 0 m -10 81 l 89 100 l 188 800 l 90 819 l 101 900 l 369 900 l 622 296 l 625 274 l 631 274 l 631 296 l 703 800 l 606 819 l 615 900 l 931 900 l 921 819 l 822 800 l 713 0 l 554 0 l 294 622 l 293 643 l 288 643 l 210 100 l 308 81 l 299 0 l -22 0 l -10 81 m 1161 1007 q 1231 979 1204 1007 q 1258 906 1258 951 q 1228 822 1258 858 q 1144 786 1199 786 q 1075 814 1101 786 q 1049 883 1049 842 q 1078 969 1049 932 q 1161 1007 1107 1007 m 950 675 l 1221 701 l 1221 567 l 1150 57 q 1096 -92 1139 -24 q 985 -199 1053 -160 q 835 -239 918 -239 q 758 -222 782 -239 q 735 -164 735 -204 q 743 -122 735 -140 q 756 -100 751 -104 l 868 -100 q 915 -95 894 -100 q 938 -86 935 -90 q 975 56 958 -49 l 1054 567 l 950 589 l 950 675 z "},"Ñ":{"ha":892,"x_min":-22,"x_max":931,"o":"m 343 1086 q 390 1131 365 1115 q 436 1146 415 1146 q 480 1141 460 1146 q 529 1126 500 1136 l 675 1078 l 789 1131 l 829 1085 l 760 1007 q 667 947 707 947 q 623 952 643 947 q 574 967 603 957 l 428 1017 l 314 964 l 274 1010 l 343 1086 m -10 81 l 89 100 l 188 800 l 90 819 l 101 900 l 369 900 l 622 296 l 625 274 l 631 274 l 631 296 l 703 800 l 606 819 l 615 900 l 931 900 l 921 819 l 822 800 l 713 0 l 554 0 l 294 622 l 293 643 l 288 643 l 210 100 l 308 81 l 299 0 l -22 0 l -10 81 z "},"O":{"ha":910,"x_min":42,"x_max":868,"o":"m 393 -15 q 216 25 296 -15 q 89 146 136 65 q 42 343 42 226 q 103 656 42 526 q 270 851 165 785 q 503 917 375 917 q 713 866 631 917 q 831 734 794 815 q 868 558 868 653 q 814 256 868 385 q 653 56 760 126 q 393 -15 546 -15 m 421 76 q 560 126 507 76 q 637 284 613 176 q 661 571 661 392 q 615 769 661 713 q 488 826 568 826 q 349 776 401 826 q 273 619 297 726 q 249 332 249 511 q 294 133 249 190 q 421 76 340 76 z "},"Ó":{"ha":910,"x_min":42,"x_max":868,"o":"m 633 1167 q 686 1076 686 1138 q 674 1040 686 1056 q 624 1013 661 1025 l 406 936 l 372 1003 l 633 1167 m 393 -15 q 216 25 296 -15 q 89 146 136 65 q 42 343 42 226 q 103 656 42 526 q 270 851 165 785 q 503 917 375 917 q 713 866 631 917 q 831 734 794 815 q 868 558 868 653 q 814 256 868 385 q 653 56 760 126 q 393 -15 546 -15 m 421 76 q 560 126 507 76 q 637 284 613 176 q 661 571 661 392 q 615 769 661 713 q 488 826 568 826 q 349 776 401 826 q 273 619 297 726 q 249 332 249 511 q 294 133 249 190 q 421 76 340 76 z "},"Ŏ":{"ha":910,"x_min":42,"x_max":868,"o":"m 42 0 m 393 -15 q 216 25 296 -15 q 89 146 136 65 q 42 343 42 226 q 103 656 42 526 q 270 851 165 785 q 503 917 375 917 q 713 866 631 917 q 831 734 794 815 q 868 558 868 653 q 814 256 868 385 q 653 56 760 126 q 393 -15 546 -15 m 421 76 q 560 126 507 76 q 637 284 613 176 q 661 571 661 392 q 615 769 661 713 q 488 826 568 826 q 349 776 401 826 q 273 619 297 726 q 249 332 249 511 q 294 133 249 190 q 421 76 340 76 m 754 1131 q 653 1001 714 1060 q 486 943 592 943 q 397 962 442 943 q 324 1013 353 981 q 296 1082 296 1044 q 322 1124 296 1103 q 390 1161 349 1146 q 443 1096 414 1114 q 513 1078 472 1078 q 621 1099 576 1078 q 710 1165 665 1121 l 754 1131 z "},"Ǒ":{"ha":910,"x_min":42,"x_max":868,"o":"m 42 0 m 393 -15 q 216 25 296 -15 q 89 146 136 65 q 42 343 42 226 q 103 656 42 526 q 270 851 165 785 q 503 917 375 917 q 713 866 631 917 q 831 734 794 815 q 868 558 868 653 q 814 256 868 385 q 653 56 760 126 q 393 -15 546 -15 m 421 76 q 560 126 507 76 q 637 284 613 176 q 661 571 661 392 q 615 769 661 713 q 488 826 568 826 q 349 776 401 826 q 273 619 297 726 q 249 332 249 511 q 294 133 249 190 q 421 76 340 76 m 508 936 q 481 947 496 936 q 453 972 467 958 q 435 989 439 985 l 314 1099 l 368 1165 l 525 1081 l 697 1163 l 733 1108 l 608 1006 q 573 976 600 999 q 531 945 546 954 q 508 936 517 936 z "},"Ô":{"ha":910,"x_min":42,"x_max":868,"o":"m 433 1096 q 469 1125 442 1103 q 510 1156 496 1147 q 533 1165 525 1165 q 558 1156 544 1165 q 585 1133 571 1146 q 607 1113 600 1119 l 728 1003 l 674 936 l 517 1021 l 344 939 l 308 993 l 433 1096 m 393 -15 q 216 25 296 -15 q 89 146 136 65 q 42 343 42 226 q 103 656 42 526 q 270 851 165 785 q 503 917 375 917 q 713 866 631 917 q 831 734 794 815 q 868 558 868 653 q 814 256 868 385 q 653 56 760 126 q 393 -15 546 -15 m 421 76 q 560 126 507 76 q 637 284 613 176 q 661 571 661 392 q 615 769 661 713 q 488 826 568 826 q 349 776 401 826 q 273 619 297 726 q 249 332 249 511 q 294 133 249 190 q 421 76 340 76 z "},"Ố":{"ha":910,"x_min":42,"x_max":897,"o":"m 42 0 m 393 -15 q 216 25 296 -15 q 89 146 136 65 q 42 343 42 226 q 103 656 42 526 q 270 851 165 785 q 503 917 375 917 q 713 866 631 917 q 831 734 794 815 q 868 558 868 653 q 814 256 868 385 q 653 56 760 126 q 393 -15 546 -15 m 421 76 q 560 126 507 76 q 637 284 613 176 q 661 571 661 392 q 615 769 661 713 q 488 826 568 826 q 349 776 401 826 q 273 619 297 726 q 249 332 249 511 q 294 133 249 190 q 421 76 340 76 m 415 1096 q 451 1125 424 1103 q 492 1156 478 1147 q 515 1165 507 1165 q 540 1156 526 1165 q 567 1133 553 1146 q 589 1113 582 1119 l 710 1003 l 656 936 l 499 1021 l 326 939 l 290 993 l 415 1096 m 583 1203 l 844 1367 q 897 1276 897 1338 q 885 1241 897 1256 q 835 1213 872 1226 l 617 1136 l 583 1203 z "},"Ộ":{"ha":910,"x_min":42,"x_max":868,"o":"m 42 0 m 393 -15 q 216 25 296 -15 q 89 146 136 65 q 42 343 42 226 q 103 656 42 526 q 270 851 165 785 q 503 917 375 917 q 713 866 631 917 q 831 734 794 815 q 868 558 868 653 q 814 256 868 385 q 653 56 760 126 q 393 -15 546 -15 m 421 76 q 560 126 507 76 q 637 284 613 176 q 661 571 661 392 q 615 769 661 713 q 488 826 568 826 q 349 776 401 826 q 273 619 297 726 q 249 332 249 511 q 294 133 249 190 q 421 76 340 76 m 375 -269 q 306 -242 332 -269 q 279 -172 279 -214 q 308 -86 279 -124 q 392 -49 338 -49 q 462 -76 435 -49 q 489 -150 489 -104 q 459 -233 489 -197 q 375 -269 429 -269 m 439 1096 q 474 1125 447 1103 q 516 1156 501 1147 q 539 1165 531 1165 q 563 1156 550 1165 q 591 1133 576 1146 q 613 1113 606 1119 l 733 1003 l 679 936 l 522 1021 l 350 939 l 314 993 l 439 1096 z "},"Ồ":{"ha":910,"x_min":42,"x_max":868,"o":"m 42 0 m 393 -15 q 216 25 296 -15 q 89 146 136 65 q 42 343 42 226 q 103 656 42 526 q 270 851 165 785 q 503 917 375 917 q 713 866 631 917 q 831 734 794 815 q 868 558 868 653 q 814 256 868 385 q 653 56 760 126 q 393 -15 546 -15 m 421 76 q 560 126 507 76 q 637 284 613 176 q 661 571 661 392 q 615 769 661 713 q 488 826 568 826 q 349 776 401 826 q 273 619 297 726 q 249 332 249 511 q 294 133 249 190 q 421 76 340 76 m 424 1096 q 459 1125 432 1103 q 501 1156 486 1147 q 524 1165 515 1165 q 548 1156 535 1165 q 576 1133 561 1146 q 597 1113 590 1119 l 718 1003 l 664 936 l 507 1021 l 335 939 l 299 993 l 424 1096 m 526 1213 q 476 1240 489 1225 q 464 1275 464 1254 q 478 1332 464 1311 q 517 1367 493 1353 l 778 1203 l 744 1136 l 526 1213 z "},"Ổ":{"ha":910,"x_min":42,"x_max":868,"o":"m 42 0 m 393 -15 q 216 25 296 -15 q 89 146 136 65 q 42 343 42 226 q 103 656 42 526 q 270 851 165 785 q 503 917 375 917 q 713 866 631 917 q 831 734 794 815 q 868 558 868 653 q 814 256 868 385 q 653 56 760 126 q 393 -15 546 -15 m 421 76 q 560 126 507 76 q 637 284 613 176 q 661 571 661 392 q 615 769 661 713 q 488 826 568 826 q 349 776 401 826 q 273 619 297 726 q 249 332 249 511 q 294 133 249 190 q 421 76 340 76 m 403 1096 q 438 1125 411 1103 q 480 1156 465 1147 q 503 1165 494 1165 q 527 1156 514 1165 q 555 1133 540 1146 q 576 1113 569 1119 l 697 1003 l 643 936 l 486 1021 l 314 939 l 278 993 l 403 1096 m 619 1121 q 610 1151 610 1140 q 622 1179 610 1168 q 672 1206 633 1190 q 704 1222 694 1214 q 714 1240 714 1229 q 671 1267 714 1267 q 588 1256 629 1267 q 569 1304 569 1281 q 686 1360 569 1360 q 809 1335 765 1360 q 853 1265 853 1311 q 750 1165 853 1206 q 723 1151 729 1157 q 717 1129 717 1146 l 619 1121 z "},"Ỗ":{"ha":910,"x_min":42,"x_max":868,"o":"m 329 1306 q 376 1340 351 1328 q 422 1353 401 1353 q 469 1349 446 1353 q 515 1338 492 1344 l 661 1299 l 775 1340 l 815 1304 l 746 1242 q 653 1194 694 1194 q 560 1210 610 1194 l 414 1250 l 300 1207 l 260 1244 l 329 1306 m 429 1096 q 465 1125 438 1103 q 506 1156 492 1147 q 529 1165 521 1165 q 553 1156 540 1165 q 581 1133 567 1146 q 603 1113 596 1119 l 724 1003 l 669 936 l 513 1021 l 340 939 l 304 993 l 429 1096 m 393 -15 q 216 25 296 -15 q 89 146 136 65 q 42 343 42 226 q 103 656 42 526 q 270 851 165 785 q 503 917 375 917 q 713 866 631 917 q 831 734 794 815 q 868 558 868 653 q 814 256 868 385 q 653 56 760 126 q 393 -15 546 -15 m 421 76 q 560 126 507 76 q 637 284 613 176 q 661 571 661 392 q 615 769 661 713 q 488 826 568 826 q 349 776 401 826 q 273 619 297 726 q 249 332 249 511 q 294 133 249 190 q 421 76 340 76 z "},"Ȍ":{"ha":910,"x_min":42,"x_max":868,"o":"m 42 0 m 393 -15 q 216 25 296 -15 q 89 146 136 65 q 42 343 42 226 q 103 656 42 526 q 270 851 165 785 q 503 917 375 917 q 713 866 631 917 q 831 734 794 815 q 868 558 868 653 q 814 256 868 385 q 653 56 760 126 q 393 -15 546 -15 m 421 76 q 560 126 507 76 q 637 284 613 176 q 661 571 661 392 q 615 769 661 713 q 488 826 568 826 q 349 776 401 826 q 273 619 297 726 q 249 332 249 511 q 294 133 249 190 q 421 76 340 76 m 253 1010 q 211 1076 211 1040 q 252 1144 211 1114 q 335 1175 293 1175 l 432 967 l 367 919 l 253 1010 m 515 1010 q 474 1076 474 1040 q 515 1144 474 1114 q 597 1175 556 1175 l 694 967 l 629 919 l 515 1010 z "},"Ö":{"ha":910,"x_min":42,"x_max":868,"o":"m 354 954 q 292 980 317 954 q 268 1043 268 1006 q 295 1122 268 1088 q 371 1156 322 1156 q 433 1131 408 1156 q 458 1064 458 1106 q 431 987 458 1019 q 354 954 403 954 m 664 954 q 602 980 626 954 q 578 1043 578 1006 q 605 1122 578 1088 q 681 1156 632 1156 q 743 1131 718 1156 q 768 1064 768 1106 q 740 987 768 1019 q 664 954 713 954 m 393 -15 q 216 25 296 -15 q 89 146 136 65 q 42 343 42 226 q 103 656 42 526 q 270 851 165 785 q 503 917 375 917 q 713 866 631 917 q 831 734 794 815 q 868 558 868 653 q 814 256 868 385 q 653 56 760 126 q 393 -15 546 -15 m 421 76 q 560 126 507 76 q 637 284 613 176 q 661 571 661 392 q 615 769 661 713 q 488 826 568 826 q 349 776 401 826 q 273 619 297 726 q 249 332 249 511 q 294 133 249 190 q 421 76 340 76 z "},"Ọ":{"ha":910,"x_min":42,"x_max":868,"o":"m 42 0 m 393 -15 q 216 25 296 -15 q 89 146 136 65 q 42 343 42 226 q 103 656 42 526 q 270 851 165 785 q 503 917 375 917 q 713 866 631 917 q 831 734 794 815 q 868 558 868 653 q 814 256 868 385 q 653 56 760 126 q 393 -15 546 -15 m 421 76 q 560 126 507 76 q 637 284 613 176 q 661 571 661 392 q 615 769 661 713 q 488 826 568 826 q 349 776 401 826 q 273 619 297 726 q 249 332 249 511 q 294 133 249 190 q 421 76 340 76 m 375 -269 q 306 -242 332 -269 q 279 -172 279 -214 q 308 -86 279 -124 q 392 -49 338 -49 q 462 -76 435 -49 q 489 -150 489 -104 q 459 -233 489 -197 q 375 -269 429 -269 z "},"Ò":{"ha":910,"x_min":42,"x_max":868,"o":"m 411 1013 q 361 1040 374 1025 q 349 1075 349 1054 q 363 1132 349 1111 q 401 1167 378 1153 l 663 1003 l 629 936 l 411 1013 m 393 -15 q 216 25 296 -15 q 89 146 136 65 q 42 343 42 226 q 103 656 42 526 q 270 851 165 785 q 503 917 375 917 q 713 866 631 917 q 831 734 794 815 q 868 558 868 653 q 814 256 868 385 q 653 56 760 126 q 393 -15 546 -15 m 421 76 q 560 126 507 76 q 637 284 613 176 q 661 571 661 392 q 615 769 661 713 q 488 826 568 826 q 349 776 401 826 q 273 619 297 726 q 249 332 249 511 q 294 133 249 190 q 421 76 340 76 z "},"Ỏ":{"ha":910,"x_min":42,"x_max":868,"o":"m 42 0 m 393 -15 q 216 25 296 -15 q 89 146 136 65 q 42 343 42 226 q 103 656 42 526 q 270 851 165 785 q 503 917 375 917 q 713 866 631 917 q 831 734 794 815 q 868 558 868 653 q 814 256 868 385 q 653 56 760 126 q 393 -15 546 -15 m 421 76 q 560 126 507 76 q 637 284 613 176 q 661 571 661 392 q 615 769 661 713 q 488 826 568 826 q 349 776 401 826 q 273 619 297 726 q 249 332 249 511 q 294 133 249 190 q 421 76 340 76 m 465 938 q 456 968 456 957 q 467 996 456 985 q 518 1022 479 1007 q 550 1038 540 1031 q 560 1057 560 1046 q 517 1083 560 1083 q 433 1072 475 1083 q 415 1121 415 1097 q 532 1176 415 1176 q 655 1152 611 1176 q 699 1082 699 1128 q 596 982 699 1022 q 569 968 575 974 q 563 946 563 963 l 465 938 z "},"Ơ":{"ha":910,"x_min":42,"x_max":1103,"o":"m 1103 928 q 1047 811 1103 874 q 853 674 990 749 q 868 558 868 622 q 814 256 868 385 q 653 56 760 126 q 393 -15 546 -15 q 216 25 296 -15 q 89 146 136 65 q 42 343 42 226 q 103 656 42 526 q 270 851 165 785 q 503 917 375 917 q 715 864 633 917 q 836 724 797 811 q 936 803 897 761 q 975 885 975 844 q 970 908 975 899 q 956 925 965 917 l 956 946 l 1057 1013 q 1070 1003 1058 1011 q 1092 974 1082 994 q 1103 928 1103 953 m 421 76 q 560 126 507 76 q 637 284 613 176 q 661 571 661 392 q 615 769 661 713 q 488 826 568 826 q 349 776 401 826 q 273 619 297 726 q 249 332 249 511 q 294 133 249 190 q 421 76 340 76 z "},"Ớ":{"ha":910,"x_min":42,"x_max":1103,"o":"m 42 0 m 1103 928 q 1047 811 1103 874 q 853 674 990 749 q 868 558 868 622 q 814 256 868 385 q 653 56 760 126 q 393 -15 546 -15 q 216 25 296 -15 q 89 146 136 65 q 42 343 42 226 q 103 656 42 526 q 270 851 165 785 q 503 917 375 917 q 715 864 633 917 q 836 724 797 811 q 936 803 897 761 q 975 885 975 844 q 970 908 975 899 q 956 925 965 917 l 956 946 l 1057 1013 q 1070 1003 1058 1011 q 1092 974 1082 994 q 1103 928 1103 953 m 421 76 q 560 126 507 76 q 637 284 613 176 q 661 571 661 392 q 615 769 661 713 q 488 826 568 826 q 349 776 401 826 q 273 619 297 726 q 249 332 249 511 q 294 133 249 190 q 421 76 340 76 m 436 1003 l 697 1167 q 750 1076 750 1138 q 738 1041 750 1056 q 688 1013 725 1026 l 469 936 l 436 1003 z "},"Ợ":{"ha":910,"x_min":42,"x_max":1103,"o":"m 42 0 m 1103 928 q 1047 811 1103 874 q 853 674 990 749 q 868 558 868 622 q 814 256 868 385 q 653 56 760 126 q 393 -15 546 -15 q 216 25 296 -15 q 89 146 136 65 q 42 343 42 226 q 103 656 42 526 q 270 851 165 785 q 503 917 375 917 q 715 864 633 917 q 836 724 797 811 q 936 803 897 761 q 975 885 975 844 q 970 908 975 899 q 956 925 965 917 l 956 946 l 1057 1013 q 1070 1003 1058 1011 q 1092 974 1082 994 q 1103 928 1103 953 m 421 76 q 560 126 507 76 q 637 284 613 176 q 661 571 661 392 q 615 769 661 713 q 488 826 568 826 q 349 776 401 826 q 273 619 297 726 q 249 332 249 511 q 294 133 249 190 q 421 76 340 76 m 375 -269 q 306 -242 332 -269 q 279 -172 279 -214 q 308 -86 279 -124 q 392 -49 338 -49 q 462 -76 435 -49 q 489 -150 489 -104 q 459 -233 489 -197 q 375 -269 429 -269 z "},"Ờ":{"ha":910,"x_min":42,"x_max":1103,"o":"m 42 0 m 1103 928 q 1047 811 1103 874 q 853 674 990 749 q 868 558 868 622 q 814 256 868 385 q 653 56 760 126 q 393 -15 546 -15 q 216 25 296 -15 q 89 146 136 65 q 42 343 42 226 q 103 656 42 526 q 270 851 165 785 q 503 917 375 917 q 715 864 633 917 q 836 724 797 811 q 936 803 897 761 q 975 885 975 844 q 970 908 975 899 q 956 925 965 917 l 956 946 l 1057 1013 q 1070 1003 1058 1011 q 1092 974 1082 994 q 1103 928 1103 953 m 421 76 q 560 126 507 76 q 637 284 613 176 q 661 571 661 392 q 615 769 661 713 q 488 826 568 826 q 349 776 401 826 q 273 619 297 726 q 249 332 249 511 q 294 133 249 190 q 421 76 340 76 m 360 1013 q 310 1040 322 1025 q 297 1075 297 1054 q 312 1132 297 1111 q 350 1167 326 1153 l 611 1003 l 578 936 l 360 1013 z "},"Ở":{"ha":910,"x_min":42,"x_max":1103,"o":"m 42 0 m 1103 928 q 1047 811 1103 874 q 853 674 990 749 q 868 558 868 622 q 814 256 868 385 q 653 56 760 126 q 393 -15 546 -15 q 216 25 296 -15 q 89 146 136 65 q 42 343 42 226 q 103 656 42 526 q 270 851 165 785 q 503 917 375 917 q 715 864 633 917 q 836 724 797 811 q 936 803 897 761 q 975 885 975 844 q 970 908 975 899 q 956 925 965 917 l 956 946 l 1057 1013 q 1070 1003 1058 1011 q 1092 974 1082 994 q 1103 928 1103 953 m 421 76 q 560 126 507 76 q 637 284 613 176 q 661 571 661 392 q 615 769 661 713 q 488 826 568 826 q 349 776 401 826 q 273 619 297 726 q 249 332 249 511 q 294 133 249 190 q 421 76 340 76 m 465 938 q 456 968 456 957 q 467 996 456 985 q 518 1022 479 1007 q 550 1038 540 1031 q 560 1057 560 1046 q 517 1083 560 1083 q 433 1072 475 1083 q 415 1121 415 1097 q 532 1176 415 1176 q 655 1152 611 1176 q 699 1082 699 1128 q 596 982 699 1022 q 569 968 575 974 q 563 946 563 963 l 465 938 z "},"Ỡ":{"ha":910,"x_min":42,"x_max":1103,"o":"m 42 0 m 1103 928 q 1047 811 1103 874 q 853 674 990 749 q 868 558 868 622 q 814 256 868 385 q 653 56 760 126 q 393 -15 546 -15 q 216 25 296 -15 q 89 146 136 65 q 42 343 42 226 q 103 656 42 526 q 270 851 165 785 q 503 917 375 917 q 715 864 633 917 q 836 724 797 811 q 936 803 897 761 q 975 885 975 844 q 970 908 975 899 q 956 925 965 917 l 956 946 l 1057 1013 q 1070 1003 1058 1011 q 1092 974 1082 994 q 1103 928 1103 953 m 421 76 q 560 126 507 76 q 637 284 613 176 q 661 571 661 392 q 615 769 661 713 q 488 826 568 826 q 349 776 401 826 q 273 619 297 726 q 249 332 249 511 q 294 133 249 190 q 421 76 340 76 m 315 1086 q 363 1131 338 1115 q 408 1146 388 1146 q 452 1141 432 1146 q 501 1126 472 1136 l 647 1078 l 761 1131 l 801 1085 l 732 1007 q 639 947 679 947 q 595 952 615 947 q 546 967 575 957 l 400 1017 l 286 964 l 246 1010 l 315 1086 z "},"Ő":{"ha":910,"x_min":42,"x_max":868,"o":"m 272 967 l 429 1175 q 496 1151 465 1175 q 526 1097 526 1126 q 510 1050 526 1071 q 464 1010 494 1029 l 325 919 l 272 967 m 535 967 l 692 1175 q 758 1151 728 1175 q 789 1097 789 1126 q 773 1050 789 1071 q 726 1010 757 1029 l 588 919 l 535 967 m 393 -15 q 216 25 296 -15 q 89 146 136 65 q 42 343 42 226 q 103 656 42 526 q 270 851 165 785 q 503 917 375 917 q 713 866 631 917 q 831 734 794 815 q 868 558 868 653 q 814 256 868 385 q 653 56 760 126 q 393 -15 546 -15 m 421 76 q 560 126 507 76 q 637 284 613 176 q 661 571 661 392 q 615 769 661 713 q 488 826 568 826 q 349 776 401 826 q 273 619 297 726 q 249 332 249 511 q 294 133 249 190 q 421 76 340 76 z "},"Ȏ":{"ha":910,"x_min":42,"x_max":868,"o":"m 42 0 m 393 -15 q 216 25 296 -15 q 89 146 136 65 q 42 343 42 226 q 103 656 42 526 q 270 851 165 785 q 503 917 375 917 q 713 866 631 917 q 831 734 794 815 q 868 558 868 653 q 814 256 868 385 q 653 56 760 126 q 393 -15 546 -15 m 421 76 q 560 126 507 76 q 637 284 613 176 q 661 571 661 392 q 615 769 661 713 q 488 826 568 826 q 349 776 401 826 q 273 619 297 726 q 249 332 249 511 q 294 133 249 190 q 421 76 340 76 m 296 978 q 397 1107 336 1049 q 564 1165 458 1165 q 653 1147 608 1165 q 726 1096 697 1128 q 754 1026 754 1064 q 728 984 754 1006 q 660 947 701 963 q 607 1013 636 994 q 538 1031 578 1031 q 429 1009 474 1031 q 340 943 385 988 l 296 978 z "},"Ō":{"ha":910,"x_min":42,"x_max":868,"o":"m 278 1108 l 764 1108 l 750 994 l 264 994 l 278 1108 m 393 -15 q 216 25 296 -15 q 89 146 136 65 q 42 343 42 226 q 103 656 42 526 q 270 851 165 785 q 503 917 375 917 q 713 866 631 917 q 831 734 794 815 q 868 558 868 653 q 814 256 868 385 q 653 56 760 126 q 393 -15 546 -15 m 421 76 q 560 126 507 76 q 637 284 613 176 q 661 571 661 392 q 615 769 661 713 q 488 826 568 826 q 349 776 401 826 q 273 619 297 726 q 249 332 249 511 q 294 133 249 190 q 421 76 340 76 z "},"Ǫ":{"ha":910,"x_min":42,"x_max":868,"o":"m 592 24 q 522 -31 561 7 q 483 -117 483 -68 q 495 -153 483 -143 q 532 -164 507 -164 q 604 -137 561 -164 l 638 -186 q 616 -208 638 -189 q 560 -243 594 -226 q 486 -260 526 -260 q 388 -235 425 -260 q 351 -161 351 -210 q 444 -12 351 -79 q 393 -15 411 -15 q 216 25 296 -15 q 89 146 136 65 q 42 343 42 226 q 103 656 42 526 q 270 851 165 785 q 503 917 375 917 q 713 866 631 917 q 831 734 794 815 q 868 558 868 653 q 797 221 868 360 q 592 24 726 82 m 249 332 q 294 133 249 190 q 421 76 340 76 q 560 126 507 76 q 637 284 613 176 q 661 571 661 392 q 615 769 661 713 q 488 826 568 826 q 349 776 401 826 q 273 619 297 726 q 249 332 249 511 z "},"Ø":{"ha":910,"x_min":42,"x_max":868,"o":"m 142 -92 l 199 33 q 83 155 125 76 q 42 343 42 233 q 103 656 42 526 q 270 851 165 785 q 503 917 375 917 q 600 907 560 917 l 657 1031 l 743 989 l 692 876 q 825 747 782 832 q 868 558 868 661 q 814 256 868 385 q 653 56 760 126 q 393 -15 546 -15 q 290 -3 339 -15 l 231 -135 l 142 -92 m 557 814 q 488 826 525 826 q 349 776 401 826 q 273 619 297 726 q 249 332 249 511 q 268 185 249 240 l 557 814 m 421 76 q 560 126 507 76 q 637 284 613 176 q 661 571 661 392 q 631 742 661 681 l 336 96 q 421 76 371 76 z "},"Ǿ":{"ha":910,"x_min":42,"x_max":868,"o":"m 42 0 m 142 -92 l 199 33 q 83 155 125 76 q 42 343 42 233 q 103 656 42 526 q 270 851 165 785 q 503 917 375 917 q 600 907 560 917 l 657 1031 l 743 989 l 692 876 q 825 747 782 832 q 868 558 868 661 q 814 256 868 385 q 653 56 760 126 q 393 -15 546 -15 q 290 -3 339 -15 l 231 -135 l 142 -92 m 557 814 q 488 826 525 826 q 349 776 401 826 q 273 619 297 726 q 249 332 249 511 q 268 185 249 240 l 557 814 m 421 76 q 560 126 507 76 q 637 284 613 176 q 661 571 661 392 q 631 742 661 681 l 336 96 q 421 76 371 76 m 319 1003 l 581 1167 q 633 1076 633 1138 q 621 1041 633 1056 q 571 1013 608 1026 l 353 936 l 319 1003 z "},"Õ":{"ha":910,"x_min":42,"x_max":868,"o":"m 311 1086 q 358 1131 333 1115 q 404 1146 383 1146 q 448 1141 428 1146 q 497 1126 468 1136 l 643 1078 l 757 1131 l 797 1085 l 728 1007 q 635 947 675 947 q 591 952 611 947 q 542 967 571 957 l 396 1017 l 282 964 l 242 1010 l 311 1086 m 393 -15 q 216 25 296 -15 q 89 146 136 65 q 42 343 42 226 q 103 656 42 526 q 270 851 165 785 q 503 917 375 917 q 713 866 631 917 q 831 734 794 815 q 868 558 868 653 q 814 256 868 385 q 653 56 760 126 q 393 -15 546 -15 m 421 76 q 560 126 507 76 q 637 284 613 176 q 661 571 661 392 q 615 769 661 713 q 488 826 568 826 q 349 776 401 826 q 273 619 297 726 q 249 332 249 511 q 294 133 249 190 q 421 76 340 76 z "},"Œ":{"ha":1115,"x_min":28,"x_max":1136,"o":"m 361 0 q 119 85 210 0 q 28 343 28 169 q 88 633 28 506 q 254 830 147 760 q 496 900 361 900 l 1136 900 l 1097 644 l 1006 644 l 1006 804 l 856 804 l 775 794 l 733 508 l 892 508 l 922 597 l 1006 597 l 969 325 l 888 325 l 888 418 l 721 418 l 678 106 l 788 96 l 918 96 l 974 250 l 1058 250 l 1028 0 l 361 0 m 407 92 q 489 100 436 92 l 588 800 q 478 810 536 810 q 298 698 361 810 q 235 332 235 586 q 269 166 235 240 q 407 92 303 92 z "},"P":{"ha":721,"x_min":-18,"x_max":749,"o":"m -6 81 l 93 100 l 192 800 l 94 819 l 106 900 l 450 900 q 674 846 599 900 q 749 669 749 792 q 714 524 749 592 q 595 410 679 456 q 372 361 511 364 l 357 361 l 357 431 q 506 507 461 444 q 550 674 550 569 q 518 774 550 744 q 419 804 486 804 q 379 800 397 804 l 281 100 l 406 81 l 396 0 l -18 0 l -6 81 z "},"Þ":{"ha":718,"x_min":-21,"x_max":717,"o":"m -8 81 l 90 100 l 189 800 l 92 819 l 103 900 l 485 900 l 474 819 l 375 800 l 363 718 l 417 718 q 640 669 564 718 q 717 521 717 619 q 631 286 717 372 q 332 200 546 200 l 290 200 l 276 100 l 374 81 l 361 0 l -21 0 l -8 81 m 332 282 q 478 334 438 282 q 518 492 518 386 q 489 593 518 564 q 394 622 460 622 q 349 619 382 622 l 301 285 l 332 282 z "},"Q":{"ha":910,"x_min":42,"x_max":868,"o":"m 354 -14 q 129 90 217 -1 q 42 343 42 182 q 103 656 42 526 q 270 851 165 785 q 503 917 375 917 q 713 866 631 917 q 831 734 794 815 q 868 558 868 653 q 758 156 868 308 q 440 -14 647 3 l 397 -58 q 467 -72 421 -61 l 718 -131 l 799 -87 l 836 -126 l 764 -221 q 686 -260 735 -260 q 635 -252 668 -260 q 590 -242 603 -244 l 338 -185 l 261 -219 l 211 -156 l 354 -14 m 421 76 q 560 126 507 76 q 637 284 613 176 q 661 571 661 392 q 615 769 661 713 q 488 826 568 826 q 349 776 401 826 q 273 619 297 726 q 249 332 249 511 q 294 133 249 190 q 421 76 340 76 z "},"R":{"ha":753,"x_min":-18,"x_max":756,"o":"m -6 81 l 93 100 l 192 800 l 94 819 l 106 900 l 478 900 q 731 697 731 900 q 657 522 731 593 q 476 415 583 450 q 544 360 521 396 q 593 268 568 325 l 665 101 l 756 69 l 747 0 l 551 0 q 509 10 524 0 q 486 46 494 19 l 404 257 q 363 345 382 311 q 321 379 343 379 l 279 92 l 364 69 l 356 0 l -18 0 l -6 81 m 332 465 q 491 531 447 465 q 535 688 535 597 q 510 773 535 742 q 429 804 485 804 q 394 802 406 804 q 379 799 382 800 l 332 465 z "},"Ŕ":{"ha":744,"x_min":-22,"x_max":751,"o":"m 311 1003 l 572 1167 q 625 1076 625 1138 q 613 1040 625 1056 q 563 1013 600 1025 l 344 936 l 311 1003 m -10 81 l 89 100 l 188 800 l 90 819 l 101 900 l 474 900 q 726 697 726 900 q 653 522 726 593 q 472 415 579 450 q 540 360 517 396 q 589 268 564 325 l 661 101 l 751 69 l 743 0 l 547 0 q 505 10 519 0 q 482 46 490 19 l 400 257 q 358 345 378 311 q 317 379 339 379 l 275 92 l 360 69 l 351 0 l -22 0 l -10 81 m 328 465 q 487 531 443 465 q 531 688 531 597 q 506 773 531 742 q 425 804 481 804 q 390 802 401 804 q 375 799 378 800 l 328 465 z "},"Ř":{"ha":744,"x_min":-22,"x_max":751,"o":"m 431 936 q 403 947 418 936 q 375 972 389 958 q 357 989 361 985 l 236 1099 l 290 1165 l 447 1081 l 619 1163 l 656 1108 l 531 1006 q 495 976 522 999 q 453 945 468 954 q 431 936 439 936 m -10 81 l 89 100 l 188 800 l 90 819 l 101 900 l 474 900 q 726 697 726 900 q 653 522 726 593 q 472 415 579 450 q 540 360 517 396 q 589 268 564 325 l 661 101 l 751 69 l 743 0 l 547 0 q 505 10 519 0 q 482 46 490 19 l 400 257 q 358 345 378 311 q 317 379 339 379 l 275 92 l 360 69 l 351 0 l -22 0 l -10 81 m 328 465 q 487 531 443 465 q 531 688 531 597 q 506 773 531 742 q 425 804 481 804 q 390 802 401 804 q 375 799 378 800 l 328 465 z "},"Ŗ":{"ha":744,"x_min":-22,"x_max":751,"o":"m -10 81 l 89 100 l 188 800 l 90 819 l 101 900 l 474 900 q 726 697 726 900 q 653 522 726 593 q 472 415 579 450 q 540 360 517 396 q 589 268 564 325 l 661 101 l 751 69 l 743 0 l 547 0 q 505 10 519 0 q 482 46 490 19 l 400 257 q 358 345 378 311 q 317 379 339 379 l 275 92 l 360 69 l 351 0 l -22 0 l -10 81 m 328 465 q 487 531 443 465 q 531 688 531 597 q 506 773 531 742 q 425 804 481 804 q 390 802 401 804 q 375 799 378 800 l 328 465 m 242 -258 q 258 -240 246 -254 q 281 -200 269 -225 q 292 -146 292 -175 q 286 -114 292 -129 q 274 -90 281 -99 q 265 -79 267 -82 q 298 -47 276 -60 q 344 -33 319 -33 q 409 -58 388 -33 q 431 -115 431 -82 q 396 -211 431 -171 q 318 -276 361 -251 q 275 -299 275 -301 l 242 -258 z "},"Ȑ":{"ha":753,"x_min":-18,"x_max":756,"o":"m 0 0 m -6 81 l 93 100 l 192 800 l 94 819 l 106 900 l 478 900 q 731 697 731 900 q 657 522 731 593 q 476 415 583 450 q 544 360 521 396 q 593 268 568 325 l 665 101 l 756 69 l 747 0 l 551 0 q 509 10 524 0 q 486 46 494 19 l 404 257 q 363 345 382 311 q 321 379 343 379 l 279 92 l 364 69 l 356 0 l -18 0 l -6 81 m 332 465 q 491 531 447 465 q 535 688 535 597 q 510 773 535 742 q 429 804 485 804 q 394 802 406 804 q 379 799 382 800 l 332 465 m 204 1010 q 163 1076 163 1040 q 203 1144 163 1114 q 286 1175 244 1175 l 383 967 l 318 919 l 204 1010 m 467 1010 q 425 1076 425 1040 q 466 1144 425 1114 q 549 1175 507 1175 l 646 967 l 581 919 l 467 1010 z "},"Ṛ":{"ha":753,"x_min":-18,"x_max":756,"o":"m 0 0 m -6 81 l 93 100 l 192 800 l 94 819 l 106 900 l 478 900 q 731 697 731 900 q 657 522 731 593 q 476 415 583 450 q 544 360 521 396 q 593 268 568 325 l 665 101 l 756 69 l 747 0 l 551 0 q 509 10 524 0 q 486 46 494 19 l 404 257 q 363 345 382 311 q 321 379 343 379 l 279 92 l 364 69 l 356 0 l -18 0 l -6 81 m 332 465 q 491 531 447 465 q 535 688 535 597 q 510 773 535 742 q 429 804 485 804 q 394 802 406 804 q 379 799 382 800 l 332 465 m 338 -269 q 268 -242 294 -269 q 242 -172 242 -214 q 271 -86 242 -124 q 354 -49 300 -49 q 424 -76 397 -49 q 451 -150 451 -104 q 422 -233 451 -197 q 338 -269 392 -269 z "},"Ȓ":{"ha":753,"x_min":-18,"x_max":756,"o":"m 0 0 m -6 81 l 93 100 l 192 800 l 94 819 l 106 900 l 478 900 q 731 697 731 900 q 657 522 731 593 q 476 415 583 450 q 544 360 521 396 q 593 268 568 325 l 665 101 l 756 69 l 747 0 l 551 0 q 509 10 524 0 q 486 46 494 19 l 404 257 q 363 345 382 311 q 321 379 343 379 l 279 92 l 364 69 l 356 0 l -18 0 l -6 81 m 332 465 q 491 531 447 465 q 535 688 535 597 q 510 773 535 742 q 429 804 485 804 q 394 802 406 804 q 379 799 382 800 l 332 465 m 247 978 q 349 1107 288 1049 q 515 1165 410 1165 q 604 1147 560 1165 q 677 1096 649 1128 q 706 1026 706 1064 q 679 984 706 1006 q 611 947 653 963 q 558 1013 588 994 q 489 1031 529 1031 q 381 1009 425 1031 q 292 943 336 988 l 247 978 z "},"S":{"ha":618,"x_min":-7,"x_max":621,"o":"m 256 -15 q 95 5 167 -15 q -7 46 24 25 l 19 293 l 118 293 l 133 128 q 203 92 156 106 q 301 78 251 78 q 382 106 353 78 q 411 172 411 133 q 404 233 411 210 q 370 286 397 256 q 282 371 343 317 q 153 489 193 449 q 94 569 114 529 q 75 665 75 610 q 110 794 75 736 q 213 884 144 851 q 378 917 281 917 q 519 908 454 917 q 621 888 585 899 l 596 638 l 501 638 l 488 788 q 419 816 463 806 q 332 826 376 826 q 255 801 275 826 q 235 738 235 776 q 262 672 235 706 q 374 565 289 638 q 479 467 440 507 q 545 378 518 428 q 572 274 572 329 q 532 121 572 186 q 419 20 492 56 q 256 -15 347 -15 z "},"Ś":{"ha":618,"x_min":-7,"x_max":621,"o":"m 261 1003 l 522 1167 q 575 1076 575 1138 q 563 1040 575 1056 q 513 1013 550 1025 l 294 936 l 261 1003 m 256 -15 q 95 5 167 -15 q -7 46 24 25 l 19 293 l 118 293 l 133 128 q 154 113 133 126 q 213 89 175 100 q 301 78 250 78 q 382 106 353 78 q 411 172 411 133 q 404 233 411 210 q 370 286 397 256 q 282 371 343 317 q 153 489 193 449 q 94 569 114 529 q 75 665 75 610 q 110 794 75 736 q 213 884 144 851 q 378 917 281 917 q 519 908 454 917 q 621 888 585 899 l 596 638 l 501 638 l 488 788 q 424 815 465 803 q 332 826 382 826 q 255 801 275 826 q 235 738 235 776 q 262 672 235 706 q 374 565 289 638 q 479 467 440 507 q 545 378 518 428 q 572 274 572 329 q 532 121 572 186 q 419 20 492 56 q 256 -15 347 -15 z "},"Ꞌ":{"ha":203,"x_min":36,"x_max":247,"o":"m 36 489 m 93 894 q 178 915 138 915 q 231 905 214 915 q 247 872 247 894 q 231 798 247 847 q 190 682 215 749 l 114 489 l 36 489 l 93 894 z "},"Š":{"ha":618,"x_min":-7,"x_max":621,"o":"m 383 936 q 356 947 371 936 q 328 972 342 958 q 310 989 314 985 l 189 1099 l 243 1165 l 400 1081 l 572 1163 l 608 1108 l 483 1006 q 448 976 475 999 q 406 945 421 954 q 383 936 392 936 m 256 -15 q 95 5 167 -15 q -7 46 24 25 l 19 293 l 118 293 l 133 128 q 203 92 156 106 q 301 78 251 78 q 382 106 353 78 q 411 172 411 133 q 404 233 411 210 q 370 286 397 256 q 282 371 343 317 q 153 489 193 449 q 94 569 114 529 q 75 665 75 610 q 110 794 75 736 q 213 884 144 851 q 378 917 281 917 q 519 908 454 917 q 621 888 585 899 l 596 638 l 501 638 l 488 788 q 419 816 463 806 q 332 826 376 826 q 255 801 275 826 q 235 738 235 776 q 262 672 235 706 q 374 565 289 638 q 479 467 440 507 q 545 378 518 428 q 572 274 572 329 q 532 121 572 186 q 419 20 492 56 q 256 -15 347 -15 z "},"Ş":{"ha":618,"x_min":-7,"x_max":621,"o":"m 257 -269 q 94 -232 153 -269 l 131 -167 q 152 -175 135 -168 q 190 -185 169 -182 q 236 -189 211 -189 q 255 -183 249 -189 q 261 -169 261 -178 q 255 -153 261 -160 q 229 -137 249 -147 l 164 -106 l 164 -71 l 200 -12 q 73 12 128 -6 q -7 46 18 29 l 19 293 l 118 293 l 133 128 q 154 113 133 126 q 213 89 175 100 q 301 78 250 78 q 382 106 353 78 q 411 172 411 133 q 404 233 411 210 q 370 286 397 256 q 282 371 343 317 q 153 489 193 449 q 94 569 114 529 q 75 665 75 610 q 110 794 75 736 q 213 884 144 851 q 378 917 281 917 q 519 908 454 917 q 621 888 585 899 l 596 638 l 501 638 l 488 788 q 424 815 465 803 q 332 826 382 826 q 255 801 275 826 q 235 738 235 776 q 262 672 235 706 q 374 565 289 638 q 480 467 442 506 q 545 379 518 428 q 572 274 572 331 q 490 70 572 147 q 276 -14 408 -7 l 276 -39 l 324 -64 q 377 -103 358 -82 q 396 -156 396 -124 q 356 -240 396 -211 q 257 -269 317 -269 z "},"Ŝ":{"ha":618,"x_min":-7,"x_max":621,"o":"m 0 0 m 256 -15 q 95 5 167 -15 q -7 46 24 25 l 19 293 l 118 293 l 133 128 q 203 92 156 106 q 301 78 251 78 q 382 106 353 78 q 411 172 411 133 q 404 233 411 210 q 370 286 397 256 q 282 371 343 317 q 153 489 193 449 q 94 569 114 529 q 75 665 75 610 q 110 794 75 736 q 213 884 144 851 q 378 917 281 917 q 519 908 454 917 q 621 888 585 899 l 596 638 l 501 638 l 488 788 q 419 816 463 806 q 332 826 376 826 q 255 801 275 826 q 235 738 235 776 q 262 672 235 706 q 374 565 289 638 q 479 467 440 507 q 545 378 518 428 q 572 274 572 329 q 532 121 572 186 q 419 20 492 56 q 256 -15 347 -15 m 324 1096 q 359 1125 332 1103 q 401 1156 386 1147 q 424 1165 415 1165 q 448 1156 435 1165 q 476 1133 461 1146 q 497 1113 490 1119 l 618 1003 l 564 936 l 407 1021 l 235 939 l 199 993 l 324 1096 z "},"Ș":{"ha":618,"x_min":-7,"x_max":621,"o":"m 256 -15 q 95 5 167 -15 q -7 46 24 25 l 19 293 l 118 293 l 133 128 q 154 113 133 126 q 213 89 175 100 q 301 78 250 78 q 382 106 353 78 q 411 172 411 133 q 404 233 411 210 q 370 286 397 256 q 282 371 343 317 q 153 489 193 449 q 94 569 114 529 q 75 665 75 610 q 110 794 75 736 q 213 884 144 851 q 378 917 281 917 q 519 908 454 917 q 621 888 585 899 l 596 638 l 501 638 l 488 788 q 424 815 465 803 q 332 826 382 826 q 255 801 275 826 q 235 738 235 776 q 262 672 235 706 q 374 565 289 638 q 479 467 440 507 q 545 378 518 428 q 572 274 572 329 q 532 121 572 186 q 419 20 492 56 q 256 -15 347 -15 m 143 -258 q 159 -240 147 -254 q 182 -200 171 -225 q 193 -146 193 -175 q 188 -114 193 -129 q 175 -90 182 -99 q 167 -79 168 -82 q 199 -47 178 -60 q 246 -33 221 -33 q 310 -58 289 -33 q 332 -115 332 -82 q 297 -211 332 -171 q 219 -276 263 -251 q 176 -299 176 -301 l 143 -258 z "},"Ṣ":{"ha":618,"x_min":-7,"x_max":621,"o":"m 0 0 m 256 -15 q 95 5 167 -15 q -7 46 24 25 l 19 293 l 118 293 l 133 128 q 203 92 156 106 q 301 78 251 78 q 382 106 353 78 q 411 172 411 133 q 404 233 411 210 q 370 286 397 256 q 282 371 343 317 q 153 489 193 449 q 94 569 114 529 q 75 665 75 610 q 110 794 75 736 q 213 884 144 851 q 378 917 281 917 q 519 908 454 917 q 621 888 585 899 l 596 638 l 501 638 l 488 788 q 419 816 463 806 q 332 826 376 826 q 255 801 275 826 q 235 738 235 776 q 262 672 235 706 q 374 565 289 638 q 479 467 440 507 q 545 378 518 428 q 572 274 572 329 q 532 121 572 186 q 419 20 492 56 q 256 -15 347 -15 m 257 -269 q 188 -242 214 -269 q 161 -172 161 -214 q 190 -86 161 -124 q 274 -49 219 -49 q 344 -76 317 -49 q 371 -150 371 -104 q 341 -233 371 -197 q 257 -269 311 -269 z "},"ẞ":{"ha":958,"x_min":-49,"x_max":954,"o":"m 575 -15 q 436 6 501 -15 q 346 46 371 26 l 372 293 l 471 293 l 486 128 q 542 93 501 108 q 619 78 582 78 q 717 115 685 78 q 750 219 750 151 q 529 376 750 369 l 490 472 l 726 783 l 715 803 q 574 822 643 822 q 429 788 483 822 q 347 687 375 754 q 303 513 318 619 l 247 100 l 244 81 l 233 0 l -49 0 l -37 81 l 61 100 l 114 476 q 276 806 143 686 q 619 925 410 925 q 756 917 678 925 q 890 897 833 908 l 954 797 l 715 483 l 721 472 q 911 260 911 426 q 870 121 911 183 q 753 22 829 58 q 575 -15 676 -15 z "},"Ə":{"ha":869,"x_min":42,"x_max":826,"o":"m 372 -15 q 206 25 281 -15 q 86 146 131 65 q 42 343 42 226 q 56 503 42 422 l 618 503 q 619 549 619 518 q 599 714 618 656 q 536 798 581 772 q 411 824 492 824 q 260 788 311 824 l 214 615 l 118 615 l 140 865 q 288 903 208 890 q 442 917 368 917 q 826 539 826 917 q 774 253 826 379 q 620 56 722 128 q 372 -15 518 -15 m 400 76 q 549 155 497 76 q 614 410 600 233 l 250 410 q 249 332 249 385 q 289 133 249 190 q 400 76 329 76 z "},"T":{"ha":708,"x_min":36,"x_max":779,"o":"m 126 81 l 225 100 l 325 804 l 179 804 l 128 644 l 36 644 l 64 900 l 779 900 l 740 644 l 649 644 l 649 804 l 508 804 l 411 100 l 508 81 l 497 0 l 115 0 l 126 81 z "},"Ŧ":{"ha":708,"x_min":36,"x_max":779,"o":"m 740 644 l 649 644 l 649 804 l 508 804 l 468 508 l 704 508 l 690 415 l 454 415 l 411 100 l 508 81 l 497 0 l 115 0 l 126 81 l 225 100 l 269 415 l 38 415 l 51 508 l 283 508 l 325 804 l 179 804 l 128 644 l 36 644 l 64 900 l 779 900 l 740 644 z "},"Ť":{"ha":708,"x_min":31,"x_max":774,"o":"m 428 936 q 401 947 415 936 q 372 972 386 958 q 354 989 358 985 l 233 1099 l 288 1165 l 444 1081 l 617 1163 l 653 1108 l 528 1006 q 492 976 519 999 q 451 945 465 954 q 428 936 436 936 m 110 0 l 121 81 l 219 100 l 319 804 l 174 804 l 122 644 l 31 644 l 58 900 l 774 900 l 735 644 l 643 644 l 643 804 l 503 804 l 406 100 l 503 81 l 492 0 l 110 0 z "},"Ţ":{"ha":708,"x_min":31,"x_max":774,"o":"m 183 -167 q 205 -175 188 -168 q 243 -185 222 -182 q 289 -189 264 -189 q 308 -183 301 -189 q 314 -169 314 -178 q 308 -153 314 -160 q 282 -137 301 -147 l 217 -106 l 217 -71 l 261 0 l 110 0 l 121 81 l 219 100 l 319 804 l 174 804 l 122 644 l 31 644 l 58 900 l 774 900 l 735 644 l 643 644 l 643 804 l 503 804 l 406 100 l 503 81 l 492 0 l 329 0 l 329 -39 l 376 -64 q 430 -103 411 -82 q 449 -156 449 -124 q 409 -240 449 -211 q 310 -269 369 -269 q 147 -232 206 -269 l 183 -167 z "},"Ț":{"ha":708,"x_min":31,"x_max":774,"o":"m 121 81 l 219 100 l 319 804 l 174 804 l 122 644 l 31 644 l 58 900 l 774 900 l 735 644 l 643 644 l 643 804 l 503 804 l 406 100 l 503 81 l 492 0 l 110 0 l 121 81 m 186 -258 q 202 -240 190 -254 q 225 -200 214 -225 q 236 -146 236 -175 q 231 -114 236 -129 q 218 -90 225 -99 q 210 -79 211 -82 q 242 -47 221 -60 q 289 -33 264 -33 q 353 -58 332 -33 q 375 -115 375 -82 q 340 -211 375 -171 q 263 -276 306 -251 q 219 -299 219 -301 l 186 -258 z "},"Ṭ":{"ha":708,"x_min":36,"x_max":779,"o":"m 36 0 m 126 81 l 225 100 l 325 804 l 179 804 l 128 644 l 36 644 l 64 900 l 779 900 l 740 644 l 649 644 l 649 804 l 508 804 l 411 100 l 508 81 l 497 0 l 115 0 l 126 81 m 274 -269 q 204 -242 231 -269 q 178 -172 178 -214 q 207 -86 178 -124 q 290 -49 236 -49 q 360 -76 333 -49 q 388 -150 388 -104 q 358 -233 388 -197 q 274 -269 328 -269 z "},"U":{"ha":889,"x_min":67,"x_max":933,"o":"m 67 819 l 78 900 l 460 900 l 449 819 l 350 800 l 290 386 q 274 229 274 276 q 304 117 274 158 q 419 75 335 75 q 531 102 489 75 q 601 196 574 129 q 646 386 628 263 l 706 800 l 608 819 l 618 900 l 933 900 l 924 819 l 825 800 l 768 386 q 707 150 747 236 q 591 24 667 64 q 389 -15 515 -15 q 158 51 224 -15 q 93 226 93 117 q 106 381 93 293 l 164 800 l 67 819 z "},"Ú":{"ha":889,"x_min":67,"x_max":933,"o":"m 414 1003 l 675 1167 q 728 1076 728 1138 q 715 1040 728 1056 q 665 1013 703 1025 l 447 936 l 414 1003 m 389 -15 q 158 51 224 -15 q 93 226 93 117 q 106 381 93 293 l 164 800 l 67 819 l 78 900 l 460 900 l 449 819 l 350 800 l 290 386 q 274 229 274 276 q 304 117 274 158 q 419 75 335 75 q 531 102 489 75 q 601 196 574 129 q 646 386 628 263 l 706 800 l 608 819 l 618 900 l 933 900 l 924 819 l 825 800 l 768 386 q 707 150 747 236 q 591 24 667 64 q 389 -15 515 -15 z "},"Ŭ":{"ha":889,"x_min":67,"x_max":933,"o":"m 67 0 m 67 819 l 78 900 l 460 900 l 449 819 l 350 800 l 290 386 q 274 229 274 276 q 304 117 274 158 q 419 75 335 75 q 531 102 489 75 q 601 196 574 129 q 646 386 628 263 l 706 800 l 608 819 l 618 900 l 933 900 l 924 819 l 825 800 l 768 386 q 707 150 747 236 q 591 24 667 64 q 389 -15 515 -15 q 158 51 224 -15 q 93 226 93 117 q 106 381 93 293 l 164 800 l 67 819 m 774 1131 q 672 1001 733 1060 q 506 943 611 943 q 417 962 461 943 q 344 1013 372 981 q 315 1082 315 1044 q 342 1124 315 1103 q 410 1161 368 1146 q 463 1096 433 1114 q 532 1078 492 1078 q 640 1099 596 1078 q 729 1165 685 1121 l 774 1131 z "},"Ǔ":{"ha":889,"x_min":67,"x_max":933,"o":"m 67 0 m 67 819 l 78 900 l 460 900 l 449 819 l 350 800 l 290 386 q 274 229 274 276 q 304 117 274 158 q 419 75 335 75 q 531 102 489 75 q 601 196 574 129 q 646 386 628 263 l 706 800 l 608 819 l 618 900 l 933 900 l 924 819 l 825 800 l 768 386 q 707 150 747 236 q 591 24 667 64 q 389 -15 515 -15 q 158 51 224 -15 q 93 226 93 117 q 106 381 93 293 l 164 800 l 67 819 m 528 936 q 501 947 515 936 q 472 972 486 958 q 454 989 458 985 l 333 1099 l 388 1165 l 544 1081 l 717 1163 l 753 1108 l 628 1006 q 592 976 619 999 q 551 945 565 954 q 528 936 536 936 z "},"Û":{"ha":889,"x_min":67,"x_max":933,"o":"m 465 1096 q 501 1125 474 1103 q 542 1156 528 1147 q 565 1165 557 1165 q 590 1156 576 1165 q 617 1133 603 1146 q 639 1113 632 1119 l 760 1003 l 706 936 l 549 1021 l 376 939 l 340 993 l 465 1096 m 67 819 l 78 900 l 460 900 l 449 819 l 350 800 l 290 386 q 274 229 274 276 q 304 117 274 158 q 419 75 335 75 q 531 102 489 75 q 601 196 574 129 q 646 386 628 263 l 706 800 l 608 819 l 618 900 l 933 900 l 924 819 l 825 800 l 768 386 q 707 150 747 236 q 591 24 667 64 q 389 -15 515 -15 q 158 51 224 -15 q 93 226 93 117 q 106 381 93 293 l 164 800 l 67 819 z "},"Ȕ":{"ha":889,"x_min":67,"x_max":933,"o":"m 67 0 m 67 819 l 78 900 l 460 900 l 449 819 l 350 800 l 290 386 q 274 229 274 276 q 304 117 274 158 q 419 75 335 75 q 531 102 489 75 q 601 196 574 129 q 646 386 628 263 l 706 800 l 608 819 l 618 900 l 933 900 l 924 819 l 825 800 l 768 386 q 707 150 747 236 q 591 24 667 64 q 389 -15 515 -15 q 158 51 224 -15 q 93 226 93 117 q 106 381 93 293 l 164 800 l 67 819 m 272 1010 q 231 1076 231 1040 q 272 1144 231 1114 q 354 1175 313 1175 l 451 967 l 386 919 l 272 1010 m 535 1010 q 493 1076 493 1040 q 534 1144 493 1114 q 617 1175 575 1175 l 714 967 l 649 919 l 535 1010 z "},"Ü":{"ha":889,"x_min":67,"x_max":933,"o":"m 390 954 q 328 980 353 954 q 304 1043 304 1006 q 331 1122 304 1088 q 407 1156 358 1156 q 469 1131 444 1156 q 494 1064 494 1106 q 467 987 494 1019 q 390 954 439 954 m 700 954 q 638 980 663 954 q 614 1043 614 1006 q 641 1122 614 1088 q 717 1156 668 1156 q 779 1131 754 1156 q 804 1064 804 1106 q 776 987 804 1019 q 700 954 749 954 m 67 819 l 78 900 l 460 900 l 449 819 l 350 800 l 290 386 q 274 229 274 276 q 304 117 274 158 q 419 75 335 75 q 531 102 489 75 q 601 196 574 129 q 646 386 628 263 l 706 800 l 608 819 l 618 900 l 933 900 l 924 819 l 825 800 l 768 386 q 707 150 747 236 q 591 24 667 64 q 389 -15 515 -15 q 158 51 224 -15 q 93 226 93 117 q 106 381 93 293 l 164 800 l 67 819 z "},"Ǘ":{"ha":889,"x_min":67,"x_max":933,"o":"m 67 0 m 67 819 l 78 900 l 460 900 l 449 819 l 350 800 l 290 386 q 274 229 274 276 q 304 117 274 158 q 419 75 335 75 q 531 102 489 75 q 601 196 574 129 q 646 386 628 263 l 706 800 l 608 819 l 618 900 l 933 900 l 924 819 l 825 800 l 768 386 q 707 150 747 236 q 591 24 667 64 q 389 -15 515 -15 q 158 51 224 -15 q 93 226 93 117 q 106 381 93 293 l 164 800 l 67 819 m 381 954 q 319 980 343 954 q 294 1043 294 1006 q 322 1122 294 1088 q 397 1156 349 1156 q 460 1131 435 1156 q 485 1064 485 1106 q 457 987 485 1019 q 381 954 429 954 m 690 954 q 628 980 653 954 q 604 1043 604 1006 q 631 1122 604 1088 q 707 1156 658 1156 q 769 1131 744 1156 q 794 1064 794 1106 q 767 987 794 1019 q 690 954 739 954 m 481 1258 l 742 1422 q 794 1332 794 1393 q 782 1297 794 1311 q 732 1268 769 1282 l 514 1192 l 481 1258 z "},"Ǚ":{"ha":889,"x_min":67,"x_max":933,"o":"m 67 0 m 67 819 l 78 900 l 460 900 l 449 819 l 350 800 l 290 386 q 274 229 274 276 q 304 117 274 158 q 419 75 335 75 q 531 102 489 75 q 601 196 574 129 q 646 386 628 263 l 706 800 l 608 819 l 618 900 l 933 900 l 924 819 l 825 800 l 768 386 q 707 150 747 236 q 591 24 667 64 q 389 -15 515 -15 q 158 51 224 -15 q 93 226 93 117 q 106 381 93 293 l 164 800 l 67 819 m 381 954 q 319 980 343 954 q 294 1043 294 1006 q 322 1122 294 1088 q 397 1156 349 1156 q 460 1131 435 1156 q 485 1064 485 1106 q 457 987 485 1019 q 381 954 429 954 m 690 954 q 628 980 653 954 q 604 1043 604 1006 q 631 1122 604 1088 q 707 1156 658 1156 q 769 1131 744 1156 q 794 1064 794 1106 q 767 987 794 1019 q 690 954 739 954 m 553 1192 q 526 1203 540 1192 q 497 1227 511 1214 q 479 1244 483 1240 l 358 1354 l 413 1421 l 569 1336 l 742 1418 l 778 1364 l 653 1261 q 617 1232 644 1254 q 576 1201 590 1210 q 553 1192 561 1192 z "},"Ǜ":{"ha":889,"x_min":67,"x_max":933,"o":"m 67 0 m 67 819 l 78 900 l 460 900 l 449 819 l 350 800 l 290 386 q 274 229 274 276 q 304 117 274 158 q 419 75 335 75 q 531 102 489 75 q 601 196 574 129 q 646 386 628 263 l 706 800 l 608 819 l 618 900 l 933 900 l 924 819 l 825 800 l 768 386 q 707 150 747 236 q 591 24 667 64 q 389 -15 515 -15 q 158 51 224 -15 q 93 226 93 117 q 106 381 93 293 l 164 800 l 67 819 m 381 954 q 319 980 343 954 q 294 1043 294 1006 q 322 1122 294 1088 q 397 1156 349 1156 q 460 1131 435 1156 q 485 1064 485 1106 q 457 987 485 1019 q 381 954 429 954 m 690 954 q 628 980 653 954 q 604 1043 604 1006 q 631 1122 604 1088 q 707 1156 658 1156 q 769 1131 744 1156 q 794 1064 794 1106 q 767 987 794 1019 q 690 954 739 954 m 404 1268 q 354 1295 367 1281 q 342 1331 342 1310 q 356 1388 342 1367 q 394 1422 371 1408 l 656 1258 l 622 1192 l 404 1268 z "},"Ǖ":{"ha":889,"x_min":67,"x_max":933,"o":"m 67 0 m 67 819 l 78 900 l 460 900 l 449 819 l 350 800 l 290 386 q 274 229 274 276 q 304 117 274 158 q 419 75 335 75 q 531 102 489 75 q 601 196 574 129 q 646 386 628 263 l 706 800 l 608 819 l 618 900 l 933 900 l 924 819 l 825 800 l 768 386 q 707 150 747 236 q 591 24 667 64 q 389 -15 515 -15 q 158 51 224 -15 q 93 226 93 117 q 106 381 93 293 l 164 800 l 67 819 m 381 954 q 319 980 343 954 q 294 1043 294 1006 q 322 1122 294 1088 q 397 1156 349 1156 q 460 1131 435 1156 q 485 1064 485 1106 q 457 987 485 1019 q 381 954 429 954 m 690 954 q 628 980 653 954 q 604 1043 604 1006 q 631 1122 604 1088 q 707 1156 658 1156 q 769 1131 744 1156 q 794 1064 794 1106 q 767 987 794 1019 q 690 954 739 954 m 332 1364 l 818 1364 l 804 1250 l 318 1250 l 332 1364 z "},"Ụ":{"ha":889,"x_min":67,"x_max":933,"o":"m 67 0 m 67 819 l 78 900 l 460 900 l 449 819 l 350 800 l 290 386 q 274 229 274 276 q 304 117 274 158 q 419 75 335 75 q 531 102 489 75 q 601 196 574 129 q 646 386 628 263 l 706 800 l 608 819 l 618 900 l 933 900 l 924 819 l 825 800 l 768 386 q 707 150 747 236 q 591 24 667 64 q 389 -15 515 -15 q 158 51 224 -15 q 93 226 93 117 q 106 381 93 293 l 164 800 l 67 819 m 364 -269 q 294 -242 321 -269 q 268 -172 268 -214 q 297 -86 268 -124 q 381 -49 326 -49 q 451 -76 424 -49 q 478 -150 478 -104 q 448 -233 478 -197 q 364 -269 418 -269 z "},"Ù":{"ha":889,"x_min":67,"x_max":933,"o":"m 453 1013 q 403 1040 415 1025 q 390 1075 390 1054 q 405 1132 390 1111 q 443 1167 419 1153 l 704 1003 l 671 936 l 453 1013 m 67 819 l 78 900 l 460 900 l 449 819 l 350 800 l 290 386 q 274 229 274 276 q 304 117 274 158 q 419 75 335 75 q 531 102 489 75 q 601 196 574 129 q 646 386 628 263 l 706 800 l 608 819 l 618 900 l 933 900 l 924 819 l 825 800 l 768 386 q 707 150 747 236 q 591 24 667 64 q 389 -15 515 -15 q 158 51 224 -15 q 93 226 93 117 q 106 381 93 293 l 164 800 l 67 819 z "},"Ủ":{"ha":889,"x_min":67,"x_max":933,"o":"m 67 0 m 67 819 l 78 900 l 460 900 l 449 819 l 350 800 l 290 386 q 274 229 274 276 q 304 117 274 158 q 419 75 335 75 q 531 102 489 75 q 601 196 574 129 q 646 386 628 263 l 706 800 l 608 819 l 618 900 l 933 900 l 924 819 l 825 800 l 768 386 q 707 150 747 236 q 591 24 667 64 q 389 -15 515 -15 q 158 51 224 -15 q 93 226 93 117 q 106 381 93 293 l 164 800 l 67 819 m 485 938 q 475 968 475 957 q 487 996 475 985 q 538 1022 499 1007 q 569 1038 560 1031 q 579 1057 579 1046 q 536 1083 579 1083 q 453 1072 494 1083 q 435 1121 435 1097 q 551 1176 435 1176 q 674 1152 631 1176 q 718 1082 718 1128 q 615 982 718 1022 q 588 968 594 974 q 582 946 582 963 l 485 938 z "},"Ư":{"ha":889,"x_min":67,"x_max":1024,"o":"m 1024 997 q 824 794 1024 857 l 768 386 q 707 150 747 236 q 591 24 667 64 q 389 -15 515 -15 q 158 51 224 -15 q 93 226 93 117 q 106 381 93 293 l 164 800 l 67 819 l 78 900 l 460 900 l 449 819 l 350 800 l 290 386 q 274 229 274 276 q 304 117 274 158 q 419 75 335 75 q 531 102 489 75 q 601 196 574 129 q 646 386 628 263 l 706 800 l 608 819 l 618 900 l 800 900 q 874 912 851 900 q 896 954 896 924 q 891 977 896 968 q 876 994 886 986 l 876 1015 l 978 1082 q 991 1072 979 1081 q 1013 1043 1003 1064 q 1024 997 1024 1022 z "},"Ứ":{"ha":889,"x_min":67,"x_max":1024,"o":"m 67 0 m 1024 997 q 824 794 1024 857 l 768 386 q 707 150 747 236 q 591 24 667 64 q 389 -15 515 -15 q 158 51 224 -15 q 93 226 93 117 q 106 381 93 293 l 164 800 l 67 819 l 78 900 l 460 900 l 449 819 l 350 800 l 290 386 q 274 229 274 276 q 304 117 274 158 q 419 75 335 75 q 531 102 489 75 q 601 196 574 129 q 646 386 628 263 l 706 800 l 608 819 l 618 900 l 800 900 q 874 912 851 900 q 896 954 896 924 q 891 977 896 968 q 876 994 886 986 l 876 1015 l 978 1082 q 991 1072 979 1081 q 1013 1043 1003 1064 q 1024 997 1024 1022 m 456 1003 l 717 1167 q 769 1076 769 1138 q 757 1041 769 1056 q 707 1013 744 1026 l 489 936 l 456 1003 z "},"Ự":{"ha":889,"x_min":67,"x_max":1024,"o":"m 67 0 m 1024 997 q 824 794 1024 857 l 768 386 q 707 150 747 236 q 591 24 667 64 q 389 -15 515 -15 q 158 51 224 -15 q 93 226 93 117 q 106 381 93 293 l 164 800 l 67 819 l 78 900 l 460 900 l 449 819 l 350 800 l 290 386 q 274 229 274 276 q 304 117 274 158 q 419 75 335 75 q 531 102 489 75 q 601 196 574 129 q 646 386 628 263 l 706 800 l 608 819 l 618 900 l 800 900 q 874 912 851 900 q 896 954 896 924 q 891 977 896 968 q 876 994 886 986 l 876 1015 l 978 1082 q 991 1072 979 1081 q 1013 1043 1003 1064 q 1024 997 1024 1022 m 364 -269 q 294 -242 321 -269 q 268 -172 268 -214 q 297 -86 268 -124 q 381 -49 326 -49 q 451 -76 424 -49 q 478 -150 478 -104 q 448 -233 478 -197 q 364 -269 418 -269 z "},"Ừ":{"ha":889,"x_min":67,"x_max":1024,"o":"m 67 0 m 1024 997 q 824 794 1024 857 l 768 386 q 707 150 747 236 q 591 24 667 64 q 389 -15 515 -15 q 158 51 224 -15 q 93 226 93 117 q 106 381 93 293 l 164 800 l 67 819 l 78 900 l 460 900 l 449 819 l 350 800 l 290 386 q 274 229 274 276 q 304 117 274 158 q 419 75 335 75 q 531 102 489 75 q 601 196 574 129 q 646 386 628 263 l 706 800 l 608 819 l 618 900 l 800 900 q 874 912 851 900 q 896 954 896 924 q 891 977 896 968 q 876 994 886 986 l 876 1015 l 978 1082 q 991 1072 979 1081 q 1013 1043 1003 1064 q 1024 997 1024 1022 m 379 1013 q 329 1040 342 1025 q 317 1075 317 1054 q 331 1132 317 1111 q 369 1167 346 1153 l 631 1003 l 597 936 l 379 1013 z "},"Ử":{"ha":889,"x_min":67,"x_max":1024,"o":"m 67 0 m 1024 997 q 824 794 1024 857 l 768 386 q 707 150 747 236 q 591 24 667 64 q 389 -15 515 -15 q 158 51 224 -15 q 93 226 93 117 q 106 381 93 293 l 164 800 l 67 819 l 78 900 l 460 900 l 449 819 l 350 800 l 290 386 q 274 229 274 276 q 304 117 274 158 q 419 75 335 75 q 531 102 489 75 q 601 196 574 129 q 646 386 628 263 l 706 800 l 608 819 l 618 900 l 800 900 q 874 912 851 900 q 896 954 896 924 q 891 977 896 968 q 876 994 886 986 l 876 1015 l 978 1082 q 991 1072 979 1081 q 1013 1043 1003 1064 q 1024 997 1024 1022 m 485 938 q 475 968 475 957 q 487 996 475 985 q 538 1022 499 1007 q 569 1038 560 1031 q 579 1057 579 1046 q 536 1083 579 1083 q 453 1072 494 1083 q 435 1121 435 1097 q 551 1176 435 1176 q 674 1152 631 1176 q 718 1082 718 1128 q 615 982 718 1022 q 588 968 594 974 q 582 946 582 963 l 485 938 z "},"Ữ":{"ha":889,"x_min":67,"x_max":1024,"o":"m 67 0 m 1024 997 q 824 794 1024 857 l 768 386 q 707 150 747 236 q 591 24 667 64 q 389 -15 515 -15 q 158 51 224 -15 q 93 226 93 117 q 106 381 93 293 l 164 800 l 67 819 l 78 900 l 460 900 l 449 819 l 350 800 l 290 386 q 274 229 274 276 q 304 117 274 158 q 419 75 335 75 q 531 102 489 75 q 601 196 574 129 q 646 386 628 263 l 706 800 l 608 819 l 618 900 l 800 900 q 874 912 851 900 q 896 954 896 924 q 891 977 896 968 q 876 994 886 986 l 876 1015 l 978 1082 q 991 1072 979 1081 q 1013 1043 1003 1064 q 1024 997 1024 1022 m 335 1086 q 382 1131 357 1115 q 428 1146 407 1146 q 472 1141 451 1146 q 521 1126 492 1136 l 667 1078 l 781 1131 l 821 1085 l 751 1007 q 658 947 699 947 q 615 952 635 947 q 565 967 594 957 l 419 1017 l 306 964 l 265 1010 l 335 1086 z "},"Ű":{"ha":889,"x_min":67,"x_max":933,"o":"m 314 967 l 471 1175 q 538 1151 507 1175 q 568 1097 568 1126 q 552 1050 568 1071 q 506 1010 536 1029 l 367 919 l 314 967 m 576 967 l 733 1175 q 800 1151 769 1175 q 831 1097 831 1126 q 815 1050 831 1071 q 768 1010 799 1029 l 629 919 l 576 967 m 389 -15 q 158 51 224 -15 q 93 226 93 117 q 106 381 93 293 l 164 800 l 67 819 l 78 900 l 460 900 l 449 819 l 350 800 l 290 386 q 274 229 274 276 q 304 117 274 158 q 419 75 335 75 q 531 102 489 75 q 601 196 574 129 q 646 386 628 263 l 706 800 l 608 819 l 618 900 l 933 900 l 924 819 l 825 800 l 768 386 q 707 150 747 236 q 591 24 667 64 q 389 -15 515 -15 z "},"Ȗ":{"ha":889,"x_min":67,"x_max":933,"o":"m 67 0 m 67 819 l 78 900 l 460 900 l 449 819 l 350 800 l 290 386 q 274 229 274 276 q 304 117 274 158 q 419 75 335 75 q 531 102 489 75 q 601 196 574 129 q 646 386 628 263 l 706 800 l 608 819 l 618 900 l 933 900 l 924 819 l 825 800 l 768 386 q 707 150 747 236 q 591 24 667 64 q 389 -15 515 -15 q 158 51 224 -15 q 93 226 93 117 q 106 381 93 293 l 164 800 l 67 819 m 315 978 q 417 1107 356 1049 q 583 1165 478 1165 q 672 1147 628 1165 q 745 1096 717 1128 q 774 1026 774 1064 q 747 984 774 1006 q 679 947 721 963 q 626 1013 656 994 q 557 1031 597 1031 q 449 1009 493 1031 q 360 943 404 988 l 315 978 z "},"Ū":{"ha":889,"x_min":67,"x_max":933,"o":"m 304 1108 l 790 1108 l 776 994 l 290 994 l 304 1108 m 67 819 l 78 900 l 460 900 l 449 819 l 350 800 l 290 386 q 274 229 274 276 q 304 117 274 158 q 419 75 335 75 q 531 102 489 75 q 601 196 574 129 q 646 386 628 263 l 706 800 l 608 819 l 618 900 l 933 900 l 924 819 l 825 800 l 768 386 q 707 150 747 236 q 591 24 667 64 q 389 -15 515 -15 q 158 51 224 -15 q 93 226 93 117 q 106 381 93 293 l 164 800 l 67 819 z "},"Ų":{"ha":889,"x_min":67,"x_max":933,"o":"m 461 -260 q 363 -235 400 -260 q 326 -161 326 -210 q 422 -12 326 -78 l 421 -8 q 389 -15 400 -15 q 158 51 224 -15 q 93 226 93 117 q 106 381 93 293 l 164 800 l 67 819 l 78 900 l 460 900 l 449 819 l 350 800 l 290 386 q 274 229 274 276 q 304 117 274 158 q 419 75 335 75 q 531 102 489 75 q 601 196 574 129 q 646 386 628 263 l 706 800 l 608 819 l 618 900 l 933 900 l 924 819 l 825 800 l 768 386 q 692 123 744 213 q 535 3 639 33 q 458 -117 458 -54 q 470 -153 458 -143 q 507 -164 482 -164 q 579 -137 536 -164 l 613 -186 q 591 -208 613 -189 q 535 -243 569 -226 q 461 -260 501 -260 z "},"Ů":{"ha":889,"x_min":67,"x_max":933,"o":"m 540 921 q 436 948 468 921 q 404 1031 404 975 q 424 1094 404 1063 q 482 1145 444 1125 q 569 1165 519 1165 q 703 1053 703 1165 q 660 960 703 1000 q 540 921 618 921 m 549 986 q 585 999 575 986 q 596 1054 596 1013 q 557 1100 596 1100 q 520 1085 531 1100 q 510 1029 510 1071 q 549 986 510 986 m 389 -15 q 158 51 224 -15 q 93 226 93 117 q 106 381 93 293 l 164 800 l 67 819 l 78 900 l 460 900 l 449 819 l 350 800 l 290 386 q 274 229 274 276 q 304 117 274 158 q 419 75 335 75 q 531 102 489 75 q 601 196 574 129 q 646 386 628 263 l 706 800 l 608 819 l 618 900 l 933 900 l 924 819 l 825 800 l 768 386 q 707 150 747 236 q 591 24 667 64 q 389 -15 515 -15 z "},"Ũ":{"ha":889,"x_min":67,"x_max":933,"o":"m 67 0 m 67 819 l 78 900 l 460 900 l 449 819 l 350 800 l 290 386 q 274 229 274 276 q 304 117 274 158 q 419 75 335 75 q 531 102 489 75 q 601 196 574 129 q 646 386 628 263 l 706 800 l 608 819 l 618 900 l 933 900 l 924 819 l 825 800 l 768 386 q 707 150 747 236 q 591 24 667 64 q 389 -15 515 -15 q 158 51 224 -15 q 93 226 93 117 q 106 381 93 293 l 164 800 l 67 819 m 335 1086 q 382 1131 357 1115 q 428 1146 407 1146 q 472 1141 451 1146 q 521 1126 492 1136 l 667 1078 l 781 1131 l 821 1085 l 751 1007 q 658 947 699 947 q 615 952 635 947 q 565 967 594 957 l 419 1017 l 306 964 l 265 1010 l 335 1086 z "},"V":{"ha":736,"x_min":8,"x_max":835,"o":"m 251 -12 l 100 800 l 8 819 l 14 900 l 392 900 l 385 819 l 296 806 l 296 794 l 382 272 l 382 235 l 388 235 l 397 272 l 628 796 l 628 804 l 521 819 l 531 900 l 835 900 l 824 819 l 744 800 l 376 -12 l 251 -12 z "},"W":{"ha":1183,"x_min":6,"x_max":1301,"o":"m 206 -11 l 93 814 l 6 831 l 14 900 l 401 900 l 393 831 l 294 811 l 297 783 l 349 242 l 349 201 l 354 201 l 364 242 l 581 725 l 568 814 l 481 831 l 489 900 l 878 900 l 869 831 l 771 811 l 771 789 l 825 240 l 825 203 l 831 203 l 840 240 l 1079 785 l 1089 808 l 992 831 l 1000 900 l 1301 900 l 1293 831 l 1217 815 l 838 -11 l 682 -11 l 608 522 l 360 -11 l 206 -11 z "},"Ẃ":{"ha":1183,"x_min":6,"x_max":1301,"o":"m 6 0 m 206 -11 l 93 814 l 6 831 l 14 900 l 401 900 l 393 831 l 294 811 l 297 783 l 349 242 l 349 201 l 354 201 l 364 242 l 581 725 l 568 814 l 481 831 l 489 900 l 878 900 l 869 831 l 771 811 l 771 789 l 825 240 l 825 203 l 831 203 l 840 240 l 1079 785 l 1089 808 l 992 831 l 1000 900 l 1301 900 l 1293 831 l 1217 815 l 838 -11 l 682 -11 l 608 522 l 360 -11 l 206 -11 m 603 1003 l 864 1167 q 917 1076 917 1138 q 904 1041 917 1056 q 854 1013 892 1026 l 636 936 l 603 1003 z "},"Ŵ":{"ha":1183,"x_min":6,"x_max":1301,"o":"m 6 0 m 206 -11 l 93 814 l 6 831 l 14 900 l 401 900 l 393 831 l 294 811 l 297 783 l 349 242 l 349 201 l 354 201 l 364 242 l 581 725 l 568 814 l 481 831 l 489 900 l 878 900 l 869 831 l 771 811 l 771 789 l 825 240 l 825 203 l 831 203 l 840 240 l 1079 785 l 1089 808 l 992 831 l 1000 900 l 1301 900 l 1293 831 l 1217 815 l 838 -11 l 682 -11 l 608 522 l 360 -11 l 206 -11 m 606 1096 q 641 1125 614 1103 q 683 1156 668 1147 q 706 1165 697 1165 q 730 1156 717 1165 q 758 1133 743 1146 q 779 1113 772 1119 l 900 1003 l 846 936 l 689 1021 l 517 939 l 481 993 l 606 1096 z "},"Ẅ":{"ha":1183,"x_min":6,"x_max":1301,"o":"m 6 0 m 206 -11 l 93 814 l 6 831 l 14 900 l 401 900 l 393 831 l 294 811 l 297 783 l 349 242 l 349 201 l 354 201 l 364 242 l 581 725 l 568 814 l 481 831 l 489 900 l 878 900 l 869 831 l 771 811 l 771 789 l 825 240 l 825 203 l 831 203 l 840 240 l 1079 785 l 1089 808 l 992 831 l 1000 900 l 1301 900 l 1293 831 l 1217 815 l 838 -11 l 682 -11 l 608 522 l 360 -11 l 206 -11 m 528 954 q 466 980 490 954 q 442 1043 442 1006 q 469 1122 442 1088 q 544 1156 496 1156 q 607 1131 582 1156 q 632 1064 632 1106 q 604 987 632 1019 q 528 954 576 954 m 838 954 q 776 980 800 954 q 751 1043 751 1006 q 778 1122 751 1088 q 854 1156 806 1156 q 917 1131 892 1156 q 942 1064 942 1106 q 914 987 942 1019 q 838 954 886 954 z "},"Ẁ":{"ha":1183,"x_min":6,"x_max":1301,"o":"m 6 0 m 206 -11 l 93 814 l 6 831 l 14 900 l 401 900 l 393 831 l 294 811 l 297 783 l 349 242 l 349 201 l 354 201 l 364 242 l 581 725 l 568 814 l 481 831 l 489 900 l 878 900 l 869 831 l 771 811 l 771 789 l 825 240 l 825 203 l 831 203 l 840 240 l 1079 785 l 1089 808 l 992 831 l 1000 900 l 1301 900 l 1293 831 l 1217 815 l 838 -11 l 682 -11 l 608 522 l 360 -11 l 206 -11 m 526 1013 q 476 1040 489 1025 q 464 1075 464 1054 q 478 1132 464 1111 q 517 1167 493 1153 l 778 1003 l 744 936 l 526 1013 z "},"X":{"ha":792,"x_min":-76,"x_max":842,"o":"m -67 69 l 43 96 l 311 440 l 140 817 l 67 831 l 75 900 l 453 900 l 444 831 l 360 811 l 360 781 l 446 583 l 601 786 l 601 811 l 538 826 l 549 900 l 842 900 l 833 825 l 749 804 l 493 476 l 663 93 l 744 69 l 739 0 l 371 0 l 376 69 l 460 92 l 460 118 l 363 331 l 197 114 l 197 89 l 261 69 l 253 0 l -76 0 l -67 69 z "},"Y":{"ha":694,"x_min":15,"x_max":772,"o":"m 126 69 l 225 89 l 260 357 l 90 814 l 15 828 l 24 900 l 386 900 l 378 831 l 289 811 l 289 781 l 388 479 l 394 479 l 561 800 l 561 813 l 475 831 l 483 900 l 772 900 l 764 831 l 689 814 l 451 381 l 411 89 l 510 69 l 501 0 l 118 0 l 126 69 z "},"Ý":{"ha":694,"x_min":15,"x_max":772,"o":"m 294 1003 l 556 1167 q 608 1076 608 1138 q 596 1040 608 1056 q 546 1013 583 1025 l 328 936 l 294 1003 m 118 0 l 126 69 l 225 89 l 260 357 l 90 814 l 15 828 l 24 900 l 386 900 l 378 831 l 289 811 l 289 781 l 388 479 l 394 479 l 561 800 l 561 813 l 475 831 l 483 900 l 772 900 l 764 831 l 689 814 l 451 381 l 411 89 l 510 69 l 501 0 l 118 0 z "},"Ŷ":{"ha":694,"x_min":15,"x_max":772,"o":"m 15 0 m 126 69 l 225 89 l 260 357 l 90 814 l 15 828 l 24 900 l 386 900 l 378 831 l 289 811 l 289 781 l 388 479 l 394 479 l 561 800 l 561 813 l 475 831 l 483 900 l 772 900 l 764 831 l 689 814 l 451 381 l 411 89 l 510 69 l 501 0 l 118 0 l 126 69 m 371 1096 q 406 1125 379 1103 q 448 1156 433 1147 q 471 1165 463 1165 q 495 1156 482 1165 q 523 1133 508 1146 q 544 1113 538 1119 l 665 1003 l 611 936 l 454 1021 l 282 939 l 246 993 l 371 1096 z "},"Ÿ":{"ha":694,"x_min":15,"x_max":772,"o":"m 274 954 q 212 980 236 954 q 188 1043 188 1006 q 215 1122 188 1088 q 290 1156 242 1156 q 353 1131 328 1156 q 378 1064 378 1106 q 350 987 378 1019 q 274 954 322 954 m 583 954 q 522 980 546 954 q 497 1043 497 1006 q 524 1122 497 1088 q 600 1156 551 1156 q 663 1131 638 1156 q 688 1064 688 1106 q 660 987 688 1019 q 583 954 632 954 m 126 69 l 225 89 l 260 357 l 90 814 l 15 828 l 24 900 l 386 900 l 378 831 l 289 811 l 289 781 l 388 479 l 394 479 l 561 800 l 561 813 l 475 831 l 483 900 l 772 900 l 764 831 l 689 814 l 451 381 l 411 89 l 510 69 l 501 0 l 118 0 l 126 69 z "},"Ỵ":{"ha":694,"x_min":15,"x_max":772,"o":"m 15 0 m 126 69 l 225 89 l 260 357 l 90 814 l 15 828 l 24 900 l 386 900 l 378 831 l 289 811 l 289 781 l 388 479 l 394 479 l 561 800 l 561 813 l 475 831 l 483 900 l 772 900 l 764 831 l 689 814 l 451 381 l 411 89 l 510 69 l 501 0 l 118 0 l 126 69 m 274 -269 q 204 -242 231 -269 q 178 -172 178 -214 q 207 -86 178 -124 q 290 -49 236 -49 q 360 -76 333 -49 q 388 -150 388 -104 q 358 -233 388 -197 q 274 -269 328 -269 z "},"Ỳ":{"ha":694,"x_min":15,"x_max":772,"o":"m 15 0 m 126 69 l 225 89 l 260 357 l 90 814 l 15 828 l 24 900 l 386 900 l 378 831 l 289 811 l 289 781 l 388 479 l 394 479 l 561 800 l 561 813 l 475 831 l 483 900 l 772 900 l 764 831 l 689 814 l 451 381 l 411 89 l 510 69 l 501 0 l 118 0 l 126 69 m 292 1013 q 242 1040 254 1025 q 229 1075 229 1054 q 244 1132 229 1111 q 282 1167 258 1153 l 543 1003 l 510 936 l 292 1013 z "},"Ỷ":{"ha":694,"x_min":15,"x_max":772,"o":"m 15 0 m 126 69 l 225 89 l 260 357 l 90 814 l 15 828 l 24 900 l 386 900 l 378 831 l 289 811 l 289 781 l 388 479 l 394 479 l 561 800 l 561 813 l 475 831 l 483 900 l 772 900 l 764 831 l 689 814 l 451 381 l 411 89 l 510 69 l 501 0 l 118 0 l 126 69 m 397 938 q 388 968 388 957 q 399 996 388 985 q 450 1022 411 1007 q 482 1038 472 1031 q 492 1057 492 1046 q 449 1083 492 1083 q 365 1072 407 1083 q 347 1121 347 1097 q 464 1176 347 1176 q 587 1152 543 1176 q 631 1082 631 1128 q 528 982 631 1022 q 501 968 507 974 q 494 946 494 963 l 397 938 z "},"Ȳ":{"ha":694,"x_min":15,"x_max":772,"o":"m 15 0 m 126 69 l 225 89 l 260 357 l 90 814 l 15 828 l 24 900 l 386 900 l 378 831 l 289 811 l 289 781 l 388 479 l 394 479 l 561 800 l 561 813 l 475 831 l 483 900 l 772 900 l 764 831 l 689 814 l 451 381 l 411 89 l 510 69 l 501 0 l 118 0 l 126 69 m 219 1108 l 706 1108 l 692 994 l 206 994 l 219 1108 z "},"Ỹ":{"ha":694,"x_min":15,"x_max":772,"o":"m 15 0 m 126 69 l 225 89 l 260 357 l 90 814 l 15 828 l 24 900 l 386 900 l 378 831 l 289 811 l 289 781 l 388 479 l 394 479 l 561 800 l 561 813 l 475 831 l 483 900 l 772 900 l 764 831 l 689 814 l 451 381 l 411 89 l 510 69 l 501 0 l 118 0 l 126 69 m 247 1086 q 294 1131 269 1115 q 340 1146 319 1146 q 384 1141 364 1146 q 433 1126 404 1136 l 579 1078 l 693 1131 l 733 1085 l 664 1007 q 571 947 611 947 q 527 952 547 947 q 478 967 507 957 l 332 1017 l 218 964 l 178 1010 l 247 1086 z "},"Z":{"ha":736,"x_min":-11,"x_max":743,"o":"m -11 96 l 514 785 l 503 804 l 208 804 l 149 650 l 64 650 l 100 900 l 679 900 l 743 800 l 214 107 l 219 96 l 529 96 l 583 250 l 668 250 l 636 0 l 28 0 l -11 96 z "},"Ź":{"ha":736,"x_min":-11,"x_max":743,"o":"m 276 1003 l 538 1167 q 590 1076 590 1138 q 578 1040 590 1056 q 528 1013 565 1025 l 310 936 l 276 1003 m 28 0 l -11 96 l 514 785 l 503 804 l 208 804 l 149 650 l 64 650 l 100 900 l 679 900 l 743 800 l 214 107 l 219 96 l 529 96 l 583 250 l 668 250 l 636 0 l 28 0 z "},"Ž":{"ha":736,"x_min":-11,"x_max":743,"o":"m 406 936 q 378 947 393 936 q 350 972 364 958 q 332 989 336 985 l 211 1099 l 265 1165 l 422 1081 l 594 1163 l 631 1108 l 506 1006 q 470 976 497 999 q 428 945 443 954 q 406 936 414 936 m 28 0 l -11 96 l 514 785 l 503 804 l 208 804 l 149 650 l 64 650 l 100 900 l 679 900 l 743 800 l 214 107 l 219 96 l 529 96 l 583 250 l 668 250 l 636 0 l 28 0 z "},"Ż":{"ha":736,"x_min":-11,"x_max":743,"o":"m 414 946 q 349 973 374 946 q 324 1039 324 1000 q 352 1120 324 1085 q 431 1156 381 1156 q 497 1129 471 1156 q 522 1060 522 1103 q 494 980 522 1014 q 414 946 465 946 m -11 96 l 514 785 l 503 804 l 208 804 l 149 650 l 64 650 l 100 900 l 679 900 l 743 800 l 214 107 l 219 96 l 529 96 l 583 250 l 668 250 l 636 0 l 28 0 l -11 96 z "},"Ẓ":{"ha":736,"x_min":-11,"x_max":743,"o":"m 0 0 m -11 96 l 514 785 l 503 804 l 208 804 l 149 650 l 64 650 l 100 900 l 679 900 l 743 800 l 214 107 l 219 96 l 529 96 l 583 250 l 668 250 l 636 0 l 28 0 l -11 96 m 288 -269 q 218 -242 244 -269 q 192 -172 192 -214 q 221 -86 192 -124 q 304 -49 250 -49 q 374 -76 347 -49 q 401 -150 401 -104 q 372 -233 401 -197 q 288 -269 342 -269 z "},"a":{"ha":725,"x_min":35,"x_max":671,"o":"m 407 144 q 197 -15 300 -15 q 35 208 35 -15 q 73 424 35 304 q 181 628 111 543 q 340 713 251 713 q 513 665 421 713 l 563 718 l 668 718 l 572 122 l 671 122 l 671 36 q 646 23 671 35 q 581 1 621 11 q 490 -8 540 -8 q 410 10 438 -8 q 383 63 383 28 q 411 142 383 101 l 407 144 m 460 514 q 308 601 375 601 q 279 597 282 601 q 233 439 250 533 q 217 238 217 344 q 226 156 217 189 q 254 122 236 122 q 334 159 292 122 q 414 244 376 196 l 460 514 z "},"á":{"ha":735,"x_min":35,"x_max":671,"o":"m 332 821 l 539 1032 q 604 1003 583 1026 q 625 947 625 979 q 591 888 625 914 q 506 833 557 861 l 376 765 l 332 821 m 197 -15 q 35 208 35 -15 q 73 424 35 304 q 181 628 111 543 q 340 713 251 713 q 513 665 421 713 l 563 718 l 668 718 l 572 122 l 671 122 l 671 36 q 646 23 671 35 q 581 1 621 11 q 490 -8 540 -8 q 410 10 438 -8 q 383 63 383 28 q 411 142 383 101 l 407 144 q 197 -15 300 -15 m 254 122 q 334 159 292 122 q 414 244 376 196 l 460 514 q 308 601 375 601 q 279 597 282 601 q 233 439 250 533 q 217 238 217 344 q 226 156 217 189 q 254 122 236 122 z "},"ă":{"ha":731,"x_min":35,"x_max":672,"o":"m 403 776 q 304 802 347 776 q 238 867 261 828 q 215 943 215 906 q 219 967 215 960 q 231 979 224 974 q 278 1000 240 988 q 326 1013 315 1013 q 364 931 335 961 q 446 900 393 900 q 532 924 494 900 q 592 976 569 949 q 615 1008 615 1004 l 672 985 q 646 921 672 972 q 560 823 619 869 q 403 776 500 776 m 197 -15 q 35 208 35 -15 q 73 424 35 304 q 181 628 111 543 q 340 713 251 713 q 513 665 421 713 l 563 718 l 668 718 l 572 122 l 671 122 l 671 36 q 646 23 671 35 q 581 1 621 11 q 490 -8 540 -8 q 410 10 438 -8 q 383 63 383 28 q 411 142 383 101 l 407 144 q 197 -15 300 -15 m 254 122 q 334 159 292 122 q 414 244 376 196 l 460 514 q 308 601 375 601 q 279 597 282 601 q 233 439 250 533 q 217 238 217 344 q 226 156 217 189 q 254 122 236 122 z "},"ắ":{"ha":725,"x_min":35,"x_max":689,"o":"m 35 0 m 407 144 q 197 -15 300 -15 q 35 208 35 -15 q 73 424 35 304 q 181 628 111 543 q 340 713 251 713 q 513 665 421 713 l 563 718 l 668 718 l 572 122 l 671 122 l 671 36 q 646 23 671 35 q 581 1 621 11 q 490 -8 540 -8 q 410 10 438 -8 q 383 63 383 28 q 411 142 383 101 l 407 144 m 460 514 q 308 601 375 601 q 279 597 282 601 q 233 439 250 533 q 217 238 217 344 q 226 156 217 189 q 254 122 236 122 q 334 159 292 122 q 414 244 376 196 l 460 514 m 413 776 q 314 802 357 776 q 248 867 271 828 q 225 943 225 906 q 229 967 225 960 q 240 979 233 974 q 288 1000 250 988 q 336 1013 325 1013 q 374 931 344 961 q 456 900 403 900 q 542 924 504 900 q 602 976 579 949 q 625 1008 625 1004 l 682 985 q 656 921 682 972 q 569 823 629 869 q 413 776 510 776 m 396 1050 l 603 1261 q 668 1232 647 1256 q 689 1176 689 1208 q 662 1119 689 1142 q 569 1063 635 1097 l 440 994 l 396 1050 z "},"ặ":{"ha":725,"x_min":35,"x_max":671,"o":"m 35 0 m 407 144 q 197 -15 300 -15 q 35 208 35 -15 q 73 424 35 304 q 181 628 111 543 q 340 713 251 713 q 513 665 421 713 l 563 718 l 668 718 l 572 122 l 671 122 l 671 36 q 646 23 671 35 q 581 1 621 11 q 490 -8 540 -8 q 410 10 438 -8 q 383 63 383 28 q 411 142 383 101 l 407 144 m 460 514 q 308 601 375 601 q 279 597 282 601 q 233 439 250 533 q 217 238 217 344 q 226 156 217 189 q 254 122 236 122 q 334 159 292 122 q 414 244 376 196 l 460 514 m 282 -269 q 213 -242 239 -269 q 186 -172 186 -214 q 215 -86 186 -124 q 299 -49 244 -49 q 369 -76 342 -49 q 396 -150 396 -104 q 366 -233 396 -197 q 282 -269 336 -269 m 400 776 q 301 802 344 776 q 235 867 258 828 q 213 943 213 906 q 217 967 213 960 q 228 979 221 974 q 275 1000 238 988 q 324 1013 313 1013 q 361 931 332 961 q 443 900 390 900 q 529 924 492 900 q 590 976 567 949 q 613 1008 613 1004 l 669 985 q 643 921 669 972 q 557 823 617 869 q 400 776 497 776 z "},"ằ":{"ha":725,"x_min":35,"x_max":686,"o":"m 35 0 m 407 144 q 197 -15 300 -15 q 35 208 35 -15 q 73 424 35 304 q 181 628 111 543 q 340 713 251 713 q 513 665 421 713 l 563 718 l 668 718 l 572 122 l 671 122 l 671 36 q 646 23 671 35 q 581 1 621 11 q 490 -8 540 -8 q 410 10 438 -8 q 383 63 383 28 q 411 142 383 101 l 407 144 m 460 514 q 308 601 375 601 q 279 597 282 601 q 233 439 250 533 q 217 238 217 344 q 226 156 217 189 q 254 122 236 122 q 334 159 292 122 q 414 244 376 196 l 460 514 m 417 776 q 318 802 361 776 q 252 867 275 828 q 229 943 229 906 q 233 967 229 960 q 244 979 238 974 q 292 1000 254 988 q 340 1013 329 1013 q 378 931 349 961 q 460 900 407 900 q 546 924 508 900 q 606 976 583 949 q 629 1008 629 1004 l 686 985 q 660 921 686 972 q 574 823 633 869 q 417 776 514 776 m 408 1063 q 316 1119 343 1097 q 289 1176 289 1142 q 310 1232 289 1208 q 375 1261 331 1256 l 582 1050 l 538 994 l 408 1063 z "},"ẳ":{"ha":725,"x_min":35,"x_max":685,"o":"m 35 0 m 407 144 q 197 -15 300 -15 q 35 208 35 -15 q 73 424 35 304 q 181 628 111 543 q 340 713 251 713 q 513 665 421 713 l 563 718 l 668 718 l 572 122 l 671 122 l 671 36 q 646 23 671 35 q 581 1 621 11 q 490 -8 540 -8 q 410 10 438 -8 q 383 63 383 28 q 411 142 383 101 l 407 144 m 460 514 q 308 601 375 601 q 279 597 282 601 q 233 439 250 533 q 217 238 217 344 q 226 156 217 189 q 254 122 236 122 q 334 159 292 122 q 414 244 376 196 l 460 514 m 415 776 q 317 802 360 776 q 251 867 274 828 q 228 943 228 906 q 232 967 228 960 q 243 979 236 974 q 290 1000 253 988 q 339 1013 328 1013 q 376 931 347 961 q 458 900 406 900 q 544 924 507 900 q 605 976 582 949 q 628 1008 628 1004 l 685 985 q 658 921 685 972 q 572 823 632 869 q 415 776 513 776 m 422 974 q 413 1013 413 1000 q 426 1043 413 1029 q 478 1079 440 1057 q 508 1101 497 1090 q 518 1129 518 1111 q 469 1160 518 1160 q 394 1149 435 1160 q 375 1197 375 1174 q 492 1253 375 1253 q 615 1228 572 1253 q 658 1154 658 1203 q 631 1085 658 1114 q 557 1032 604 1056 q 538 1022 550 1028 q 523 1009 526 1017 q 519 985 519 1001 l 422 974 z "},"ẵ":{"ha":725,"x_min":35,"x_max":717,"o":"m 563 1064 q 512 1069 535 1064 q 454 1085 489 1074 l 340 1119 l 233 1075 l 196 1114 l 261 1179 q 304 1216 283 1204 q 351 1228 325 1228 q 435 1213 382 1228 l 572 1172 l 679 1217 l 717 1178 l 651 1111 q 563 1064 606 1064 m 382 776 q 283 802 326 776 q 217 867 240 828 q 194 943 194 906 q 199 967 194 960 q 210 979 203 974 q 257 1000 219 988 q 306 1013 294 1013 q 343 931 314 961 q 425 900 372 900 q 511 924 474 900 q 572 976 549 949 q 594 1008 594 1004 l 651 985 q 625 921 651 972 q 539 823 599 869 q 382 776 479 776 m 407 144 q 197 -15 300 -15 q 35 208 35 -15 q 73 424 35 304 q 181 628 111 543 q 340 713 251 713 q 513 665 421 713 l 563 718 l 668 718 l 572 122 l 671 122 l 671 36 q 646 23 671 35 q 581 1 621 11 q 490 -8 540 -8 q 410 10 438 -8 q 383 63 383 28 q 411 142 383 101 l 407 144 m 460 514 q 308 601 375 601 q 279 597 282 601 q 233 439 250 533 q 217 238 217 344 q 226 156 217 189 q 254 122 236 122 q 334 159 292 122 q 414 244 376 196 l 460 514 z "},"ǎ":{"ha":725,"x_min":35,"x_max":671,"o":"m 35 0 m 407 144 q 197 -15 300 -15 q 35 208 35 -15 q 73 424 35 304 q 181 628 111 543 q 340 713 251 713 q 513 665 421 713 l 563 718 l 668 718 l 572 122 l 671 122 l 671 36 q 646 23 671 35 q 581 1 621 11 q 490 -8 540 -8 q 410 10 438 -8 q 383 63 383 28 q 411 142 383 101 l 407 144 m 460 514 q 308 601 375 601 q 279 597 282 601 q 233 439 250 533 q 217 238 217 344 q 226 156 217 189 q 254 122 236 122 q 334 159 292 122 q 414 244 376 196 l 460 514 m 292 1025 l 432 926 l 603 1019 l 646 972 l 519 850 q 451 787 474 806 q 414 768 428 768 q 385 781 399 768 q 361 808 372 793 q 346 829 350 824 l 236 976 l 292 1025 z "},"â":{"ha":731,"x_min":35,"x_max":671,"o":"m 415 864 l 243 774 l 200 821 l 328 947 q 395 1010 372 992 q 433 1029 418 1029 q 465 1014 450 1029 q 501 968 481 999 l 608 818 l 556 768 l 415 864 m 197 -15 q 35 208 35 -15 q 73 424 35 304 q 181 628 111 543 q 340 713 251 713 q 513 665 421 713 l 563 718 l 668 718 l 572 122 l 671 122 l 671 36 q 646 23 671 35 q 581 1 621 11 q 490 -8 540 -8 q 410 10 438 -8 q 383 63 383 28 q 411 142 383 101 l 407 144 q 197 -15 300 -15 m 254 122 q 334 159 292 122 q 414 244 376 196 l 460 514 q 308 601 375 601 q 279 597 282 601 q 233 439 250 533 q 217 238 217 344 q 226 156 217 189 q 254 122 236 122 z "},"ấ":{"ha":725,"x_min":35,"x_max":769,"o":"m 35 0 m 407 144 q 197 -15 300 -15 q 35 208 35 -15 q 73 424 35 304 q 181 628 111 543 q 340 713 251 713 q 513 665 421 713 l 563 718 l 668 718 l 572 122 l 671 122 l 671 36 q 646 23 671 35 q 581 1 621 11 q 490 -8 540 -8 q 410 10 438 -8 q 383 63 383 28 q 411 142 383 101 l 407 144 m 460 514 q 308 601 375 601 q 279 597 282 601 q 233 439 250 533 q 217 238 217 344 q 226 156 217 189 q 254 122 236 122 q 334 159 292 122 q 414 244 376 196 l 460 514 m 383 864 l 211 774 l 168 821 l 296 947 q 363 1010 340 992 q 401 1029 386 1029 q 433 1014 418 1029 q 469 968 449 999 l 576 818 l 524 768 l 383 864 m 476 1024 l 683 1235 q 749 1206 728 1229 q 769 1150 769 1182 q 742 1093 769 1115 q 650 1036 715 1071 l 521 968 l 476 1024 z "},"ậ":{"ha":725,"x_min":35,"x_max":671,"o":"m 35 0 m 407 144 q 197 -15 300 -15 q 35 208 35 -15 q 73 424 35 304 q 181 628 111 543 q 340 713 251 713 q 513 665 421 713 l 563 718 l 668 718 l 572 122 l 671 122 l 671 36 q 646 23 671 35 q 581 1 621 11 q 490 -8 540 -8 q 410 10 438 -8 q 383 63 383 28 q 411 142 383 101 l 407 144 m 460 514 q 308 601 375 601 q 279 597 282 601 q 233 439 250 533 q 217 238 217 344 q 226 156 217 189 q 254 122 236 122 q 334 159 292 122 q 414 244 376 196 l 460 514 m 282 -269 q 213 -242 239 -269 q 186 -172 186 -214 q 215 -86 186 -124 q 299 -49 244 -49 q 369 -76 342 -49 q 396 -150 396 -104 q 366 -233 396 -197 q 282 -269 336 -269 m 439 864 l 267 774 l 224 821 l 351 947 q 419 1010 396 992 q 457 1029 442 1029 q 489 1014 474 1029 q 525 968 504 999 l 632 818 l 579 768 l 439 864 z "},"ầ":{"ha":725,"x_min":35,"x_max":700,"o":"m 35 0 m 407 144 q 197 -15 300 -15 q 35 208 35 -15 q 73 424 35 304 q 181 628 111 543 q 340 713 251 713 q 513 665 421 713 l 563 718 l 668 718 l 572 122 l 671 122 l 671 36 q 646 23 671 35 q 581 1 621 11 q 490 -8 540 -8 q 410 10 438 -8 q 383 63 383 28 q 411 142 383 101 l 407 144 m 460 514 q 308 601 375 601 q 279 597 282 601 q 233 439 250 533 q 217 238 217 344 q 226 156 217 189 q 254 122 236 122 q 334 159 292 122 q 414 244 376 196 l 460 514 m 425 864 l 253 774 l 210 821 l 338 947 q 405 1010 382 992 q 443 1029 428 1029 q 475 1014 460 1029 q 511 968 490 999 l 618 818 l 565 768 l 425 864 m 526 1036 q 434 1093 461 1071 q 407 1150 407 1115 q 428 1206 407 1182 q 493 1235 449 1229 l 700 1024 l 656 968 l 526 1036 z "},"ẩ":{"ha":725,"x_min":35,"x_max":782,"o":"m 35 0 m 407 144 q 197 -15 300 -15 q 35 208 35 -15 q 73 424 35 304 q 181 628 111 543 q 340 713 251 713 q 513 665 421 713 l 563 718 l 668 718 l 572 122 l 671 122 l 671 36 q 646 23 671 35 q 581 1 621 11 q 490 -8 540 -8 q 410 10 438 -8 q 383 63 383 28 q 411 142 383 101 l 407 144 m 460 514 q 308 601 375 601 q 279 597 282 601 q 233 439 250 533 q 217 238 217 344 q 226 156 217 189 q 254 122 236 122 q 334 159 292 122 q 414 244 376 196 l 460 514 m 399 864 l 226 774 l 183 821 l 311 947 q 378 1010 356 992 q 417 1029 401 1029 q 449 1014 433 1029 q 485 968 464 999 l 592 818 l 539 768 l 399 864 m 546 947 q 536 986 536 974 q 550 1017 536 1003 q 601 1053 564 1031 q 631 1074 621 1064 q 642 1103 642 1085 q 593 1133 642 1133 q 518 1122 558 1133 q 499 1171 499 1147 q 615 1226 499 1226 q 739 1201 696 1226 q 782 1128 782 1176 q 755 1058 782 1088 q 681 1006 728 1029 q 662 996 674 1001 q 647 983 650 990 q 643 958 643 975 l 546 947 z "},"ẫ":{"ha":725,"x_min":35,"x_max":715,"o":"m 561 1078 q 510 1083 533 1078 q 453 1099 488 1088 l 339 1133 l 232 1089 l 194 1128 l 260 1193 q 303 1230 282 1218 q 350 1242 324 1242 q 433 1226 379 1242 l 571 1186 l 678 1231 l 715 1192 l 650 1125 q 561 1078 604 1078 m 419 864 l 247 774 l 204 821 l 332 947 q 399 1010 376 992 q 438 1029 422 1029 q 469 1014 454 1029 q 506 968 485 999 l 613 818 l 560 768 l 419 864 m 407 144 q 197 -15 300 -15 q 35 208 35 -15 q 73 424 35 304 q 181 628 111 543 q 340 713 251 713 q 513 665 421 713 l 563 718 l 668 718 l 572 122 l 671 122 l 671 36 q 646 23 671 35 q 581 1 621 11 q 490 -8 540 -8 q 410 10 438 -8 q 383 63 383 28 q 411 142 383 101 l 407 144 m 460 514 q 308 601 375 601 q 279 597 282 601 q 233 439 250 533 q 217 238 217 344 q 226 156 217 189 q 254 122 236 122 q 334 159 292 122 q 414 244 376 196 l 460 514 z "},"ȁ":{"ha":725,"x_min":35,"x_max":671,"o":"m 35 0 m 407 144 q 197 -15 300 -15 q 35 208 35 -15 q 73 424 35 304 q 181 628 111 543 q 340 713 251 713 q 513 665 421 713 l 563 718 l 668 718 l 572 122 l 671 122 l 671 36 q 646 23 671 35 q 581 1 621 11 q 490 -8 540 -8 q 410 10 438 -8 q 383 63 383 28 q 411 142 383 101 l 407 144 m 460 514 q 308 601 375 601 q 279 597 282 601 q 233 439 250 533 q 217 238 217 344 q 226 156 217 189 q 254 122 236 122 q 334 159 292 122 q 414 244 376 196 l 460 514 m 214 850 q 179 907 189 886 q 169 946 169 928 q 205 1011 169 985 q 281 1038 240 1038 q 307 1033 294 1038 l 354 794 l 283 757 l 214 850 m 460 850 q 425 907 435 886 q 415 946 415 928 q 449 1010 415 985 q 528 1035 482 1035 q 553 1033 544 1035 l 600 794 l 529 757 l 460 850 z "},"ä":{"ha":731,"x_min":35,"x_max":683,"o":"m 293 800 q 228 826 253 800 q 203 892 203 853 q 231 973 203 938 q 308 1008 258 1008 q 374 983 349 1008 q 400 913 400 957 q 372 833 400 867 q 293 800 344 800 m 576 800 q 511 826 536 800 q 486 892 486 853 q 514 973 486 938 q 592 1008 542 1008 q 658 983 632 1008 q 683 913 683 957 q 656 833 683 867 q 576 800 628 800 m 197 -15 q 35 208 35 -15 q 73 424 35 304 q 181 628 111 543 q 340 713 251 713 q 513 665 421 713 l 563 718 l 668 718 l 572 122 l 671 122 l 671 36 q 646 23 671 35 q 581 1 621 11 q 490 -8 540 -8 q 410 10 438 -8 q 383 63 383 28 q 411 142 383 101 l 407 144 q 197 -15 300 -15 m 254 122 q 334 159 292 122 q 414 244 376 196 l 460 514 q 308 601 375 601 q 279 597 282 601 q 233 439 250 533 q 217 238 217 344 q 226 156 217 189 q 254 122 236 122 z "},"ạ":{"ha":725,"x_min":35,"x_max":671,"o":"m 35 0 m 407 144 q 197 -15 300 -15 q 35 208 35 -15 q 73 424 35 304 q 181 628 111 543 q 340 713 251 713 q 513 665 421 713 l 563 718 l 668 718 l 572 122 l 671 122 l 671 36 q 646 23 671 35 q 581 1 621 11 q 490 -8 540 -8 q 410 10 438 -8 q 383 63 383 28 q 411 142 383 101 l 407 144 m 460 514 q 308 601 375 601 q 279 597 282 601 q 233 439 250 533 q 217 238 217 344 q 226 156 217 189 q 254 122 236 122 q 334 159 292 122 q 414 244 376 196 l 460 514 m 282 -269 q 213 -242 239 -269 q 186 -172 186 -214 q 215 -86 186 -124 q 299 -49 244 -49 q 369 -76 342 -49 q 396 -150 396 -104 q 366 -233 396 -197 q 282 -269 336 -269 z "},"à":{"ha":731,"x_min":35,"x_max":671,"o":"m 396 833 q 310 888 344 861 q 276 947 276 914 q 297 1003 276 979 q 363 1032 318 1026 l 569 821 l 525 765 l 396 833 m 407 144 q 197 -15 300 -15 q 35 208 35 -15 q 73 424 35 304 q 181 628 111 543 q 340 713 251 713 q 513 665 421 713 l 563 718 l 668 718 l 572 122 l 671 122 l 671 36 q 646 23 671 35 q 581 1 621 11 q 490 -8 540 -8 q 410 10 438 -8 q 383 63 383 28 q 411 142 383 101 l 407 144 m 460 514 q 308 601 375 601 q 279 597 282 601 q 233 439 250 533 q 217 238 217 344 q 226 156 217 189 q 254 122 236 122 q 334 159 292 122 q 414 244 376 196 l 460 514 z "},"ả":{"ha":725,"x_min":35,"x_max":671,"o":"m 35 0 m 407 144 q 197 -15 300 -15 q 35 208 35 -15 q 73 424 35 304 q 181 628 111 543 q 340 713 251 713 q 513 665 421 713 l 563 718 l 668 718 l 572 122 l 671 122 l 671 36 q 646 23 671 35 q 581 1 621 11 q 490 -8 540 -8 q 410 10 438 -8 q 383 63 383 28 q 411 142 383 101 l 407 144 m 460 514 q 308 601 375 601 q 279 597 282 601 q 233 439 250 533 q 217 238 217 344 q 226 156 217 189 q 254 122 236 122 q 334 159 292 122 q 414 244 376 196 l 460 514 m 374 744 q 364 783 364 771 q 378 814 364 800 q 429 850 392 828 q 459 872 449 861 q 469 900 469 882 q 421 931 469 931 q 346 919 386 931 q 326 968 326 944 q 443 1024 326 1024 q 567 999 524 1024 q 610 925 610 974 q 583 856 610 885 q 508 803 556 826 q 490 793 501 799 q 474 780 478 788 q 471 756 471 772 l 374 744 z "},"ȃ":{"ha":725,"x_min":35,"x_max":671,"o":"m 35 0 m 407 144 q 197 -15 300 -15 q 35 208 35 -15 q 73 424 35 304 q 181 628 111 543 q 340 713 251 713 q 513 665 421 713 l 563 718 l 668 718 l 572 122 l 671 122 l 671 36 q 646 23 671 35 q 581 1 621 11 q 490 -8 540 -8 q 410 10 438 -8 q 383 63 383 28 q 411 142 383 101 l 407 144 m 460 514 q 308 601 375 601 q 279 597 282 601 q 233 439 250 533 q 217 238 217 344 q 226 156 217 189 q 254 122 236 122 q 334 159 292 122 q 414 244 376 196 l 460 514 m 213 804 q 239 868 213 817 q 325 966 265 919 q 482 1013 385 1013 q 581 987 538 1013 q 647 922 624 961 q 669 846 669 883 q 665 822 669 829 q 654 810 661 815 q 607 789 644 801 q 558 776 569 776 q 521 858 550 828 q 439 889 492 889 q 353 865 390 889 q 292 813 315 840 q 269 781 269 785 l 213 804 z "},"ā":{"ha":731,"x_min":35,"x_max":671,"o":"m 204 957 l 663 957 l 649 843 l 190 843 l 204 957 m 407 144 q 197 -15 300 -15 q 35 208 35 -15 q 73 424 35 304 q 181 628 111 543 q 340 713 251 713 q 513 665 421 713 l 563 718 l 668 718 l 572 122 l 671 122 l 671 36 q 646 23 671 35 q 581 1 621 11 q 490 -8 540 -8 q 410 10 438 -8 q 383 63 383 28 q 411 142 383 101 l 407 144 m 460 514 q 308 601 375 601 q 279 597 282 601 q 233 439 250 533 q 217 238 217 344 q 226 156 217 189 q 254 122 236 122 q 334 159 292 122 q 414 244 376 196 l 460 514 z "},"ą":{"ha":719,"x_min":35,"x_max":692,"o":"m 692 -186 q 670 -208 692 -189 q 615 -243 649 -226 q 540 -260 581 -260 q 442 -235 479 -260 q 406 -161 406 -210 q 506 -8 406 -74 l 490 -8 q 410 10 438 -8 q 383 63 383 28 q 411 142 383 101 l 407 144 q 197 -15 300 -15 q 35 208 35 -15 q 73 424 35 304 q 181 628 111 543 q 340 713 251 713 q 513 665 421 713 l 563 718 l 668 718 l 572 122 l 671 122 l 671 36 q 660 30 668 35 q 640 19 653 25 q 571 -35 607 1 q 535 -117 535 -71 q 548 -153 535 -143 q 586 -164 561 -164 q 658 -137 615 -164 l 692 -186 m 460 514 q 308 601 375 601 q 279 597 282 601 q 233 439 250 533 q 217 238 217 344 q 226 156 217 189 q 254 122 236 122 q 334 159 292 122 q 414 244 376 196 l 460 514 z "},"å":{"ha":719,"x_min":35,"x_max":671,"o":"m 417 774 q 313 802 344 774 q 281 889 281 831 q 301 955 281 922 q 358 1008 321 988 q 446 1029 396 1029 q 579 913 579 1029 q 537 816 579 858 q 417 774 494 774 m 425 842 q 462 856 451 842 q 472 914 472 871 q 433 961 472 961 q 397 946 407 961 q 386 888 386 931 q 425 842 386 842 m 197 -15 q 35 208 35 -15 q 73 424 35 304 q 181 628 111 543 q 340 713 251 713 q 513 665 421 713 l 563 718 l 668 718 l 572 122 l 671 122 l 671 36 q 646 23 671 35 q 581 1 621 11 q 490 -8 540 -8 q 410 10 438 -8 q 383 63 383 28 q 411 142 383 101 l 407 144 q 197 -15 300 -15 m 254 122 q 334 159 292 122 q 414 244 376 196 l 460 514 q 308 601 375 601 q 279 597 282 601 q 233 439 250 533 q 217 238 217 344 q 226 156 217 189 q 254 122 236 122 z "},"ǻ":{"ha":725,"x_min":35,"x_max":676,"o":"m 35 0 m 407 144 q 197 -15 300 -15 q 35 208 35 -15 q 73 424 35 304 q 181 628 111 543 q 340 713 251 713 q 513 665 421 713 l 563 718 l 668 718 l 572 122 l 671 122 l 671 36 q 646 23 671 35 q 581 1 621 11 q 490 -8 540 -8 q 410 10 438 -8 q 383 63 383 28 q 411 142 383 101 l 407 144 m 460 514 q 308 601 375 601 q 279 597 282 601 q 233 439 250 533 q 217 238 217 344 q 226 156 217 189 q 254 122 236 122 q 334 159 292 122 q 414 244 376 196 l 460 514 m 428 774 q 324 802 356 774 q 292 889 292 831 q 312 955 292 922 q 369 1008 332 988 q 457 1029 407 1029 q 590 913 590 1029 q 548 816 590 858 q 428 774 506 774 m 436 842 q 473 856 463 842 q 483 914 483 871 q 444 961 483 961 q 408 946 418 961 q 397 888 397 931 q 436 842 397 842 m 383 1164 l 590 1375 q 656 1346 635 1369 q 676 1290 676 1322 q 649 1233 676 1256 q 557 1176 622 1211 l 428 1108 l 383 1164 z "},"ã":{"ha":731,"x_min":35,"x_max":686,"o":"m 532 800 q 481 806 504 800 q 424 824 457 813 l 310 864 l 203 813 l 165 857 l 231 932 q 273 974 253 961 q 321 988 293 988 q 404 971 354 988 l 542 924 l 649 975 l 686 931 l 621 854 q 532 800 575 800 m 197 -15 q 35 208 35 -15 q 73 424 35 304 q 181 628 111 543 q 340 713 251 713 q 513 665 421 713 l 563 718 l 668 718 l 572 122 l 671 122 l 671 36 q 646 23 671 35 q 581 1 621 11 q 490 -8 540 -8 q 410 10 438 -8 q 383 63 383 28 q 411 142 383 101 l 407 144 q 197 -15 300 -15 m 254 122 q 334 159 292 122 q 414 244 376 196 l 460 514 q 308 601 375 601 q 279 597 282 601 q 233 439 250 533 q 217 238 217 344 q 226 156 217 189 q 254 122 236 122 z "},"æ":{"ha":933,"x_min":39,"x_max":925,"o":"m 707 99 q 778 113 738 99 q 851 147 819 126 l 882 96 q 762 17 840 49 q 603 -14 683 -14 q 460 19 510 -14 q 396 124 411 51 q 298 20 347 56 q 201 -15 249 -15 q 39 208 39 -15 q 84 447 39 329 q 200 638 129 564 q 344 713 271 713 q 442 696 386 713 q 557 650 499 679 q 718 713 628 713 q 868 672 811 713 q 925 564 925 631 q 892 435 925 486 q 781 349 858 385 q 568 283 704 313 l 568 235 q 600 130 568 161 q 707 99 632 99 m 638 599 q 603 503 624 585 q 578 360 582 421 q 688 404 650 382 q 740 457 725 426 q 754 539 754 488 q 692 613 754 613 q 660 608 676 613 q 638 599 643 604 m 390 210 q 411 376 392 293 q 465 526 431 460 q 387 582 426 563 q 313 601 347 601 q 283 597 286 601 q 238 431 254 526 q 221 238 221 336 q 231 154 221 186 q 258 122 242 122 q 321 145 286 122 q 390 210 356 168 z "},"ǽ":{"ha":933,"x_min":39,"x_max":925,"o":"m 39 0 m 707 99 q 778 113 738 99 q 851 147 819 126 l 882 96 q 762 17 840 49 q 603 -14 683 -14 q 460 19 510 -14 q 396 124 411 51 q 298 20 347 56 q 201 -15 249 -15 q 39 208 39 -15 q 84 447 39 329 q 200 638 129 564 q 344 713 271 713 q 442 696 386 713 q 557 650 499 679 q 718 713 628 713 q 868 672 811 713 q 925 564 925 631 q 892 435 925 486 q 781 349 858 385 q 568 283 704 313 l 568 235 q 600 130 568 161 q 707 99 632 99 m 638 599 q 603 503 624 585 q 578 360 582 421 q 688 404 650 382 q 740 457 725 426 q 754 539 754 488 q 692 613 754 613 q 660 608 676 613 q 638 599 643 604 m 390 210 q 411 376 392 293 q 465 526 431 460 q 387 582 426 563 q 313 601 347 601 q 283 597 286 601 q 238 431 254 526 q 221 238 221 336 q 231 154 221 186 q 258 122 242 122 q 321 145 286 122 q 390 210 356 168 m 493 821 l 700 1032 q 765 1003 744 1026 q 786 947 786 979 q 759 890 786 913 q 667 833 732 868 l 538 765 l 493 821 z "},"b":{"ha":688,"x_min":35,"x_max":653,"o":"m 65 871 l 65 956 l 335 982 l 335 850 l 299 625 q 288 599 297 611 q 276 585 278 588 l 279 581 q 489 713 385 713 q 608 663 563 713 q 653 499 653 613 q 618 281 653 403 q 513 72 583 160 q 340 -15 442 -15 q 272 -11 303 -15 q 222 -3 240 -7 q 200 3 204 1 l 35 54 l 169 847 l 65 871 m 224 158 q 294 111 260 126 q 389 96 329 96 q 419 100 418 96 q 461 244 444 153 q 478 443 478 335 q 470 540 478 508 q 449 579 463 571 q 414 588 436 588 q 278 510 364 588 l 224 158 z "},"c":{"ha":571,"x_min":35,"x_max":567,"o":"m 522 99 q 489 64 522 93 q 391 10 456 35 q 232 -15 326 -15 q 81 39 128 -15 q 35 210 35 93 q 70 444 35 329 q 181 636 106 560 q 368 713 256 713 q 508 685 450 713 q 567 593 567 657 q 552 523 567 556 q 519 467 538 490 q 501 446 501 443 l 438 446 l 425 586 q 396 594 425 588 q 335 601 367 601 q 265 588 271 601 q 231 460 244 546 q 217 269 217 375 q 232 163 217 200 q 276 114 247 126 q 350 101 304 101 q 413 112 381 101 q 465 133 444 122 q 492 149 486 144 l 522 99 z "},"ć":{"ha":571,"x_min":35,"x_max":567,"o":"m 236 821 l 443 1032 q 508 1003 488 1026 q 529 947 529 979 q 495 888 529 914 q 410 833 461 861 l 281 765 l 236 821 m 232 -15 q 81 39 128 -15 q 35 210 35 93 q 70 444 35 329 q 181 636 106 560 q 368 713 256 713 q 508 685 450 713 q 567 593 567 657 q 552 523 567 556 q 519 467 538 490 q 501 446 501 443 l 438 446 l 425 586 q 396 594 425 588 q 335 601 367 601 q 265 588 271 601 q 231 460 244 546 q 217 269 217 375 q 232 163 217 200 q 276 114 247 126 q 350 101 304 101 q 413 112 381 101 q 465 133 444 122 q 492 149 486 144 l 522 99 q 489 64 522 93 q 391 10 456 35 q 232 -15 326 -15 z "},"č":{"ha":571,"x_min":35,"x_max":596,"o":"m 242 1025 l 382 926 l 553 1019 l 596 972 l 469 850 q 401 787 424 806 q 364 768 378 768 q 335 781 349 768 q 311 808 322 793 q 296 829 300 824 l 186 976 l 242 1025 m 522 99 q 489 64 522 93 q 391 10 456 35 q 232 -15 326 -15 q 81 39 128 -15 q 35 210 35 93 q 70 444 35 329 q 181 636 106 560 q 368 713 256 713 q 508 685 450 713 q 567 593 567 657 q 552 523 567 556 q 519 467 538 490 q 501 446 501 443 l 438 446 l 425 586 q 396 594 425 588 q 335 601 367 601 q 265 588 271 601 q 231 460 244 546 q 217 269 217 375 q 232 163 217 200 q 276 114 247 126 q 350 101 304 101 q 413 112 381 101 q 465 133 444 122 q 492 149 486 144 l 522 99 z "},"ç":{"ha":571,"x_min":35,"x_max":567,"o":"m 135 -167 q 156 -175 139 -168 q 194 -185 174 -182 q 240 -189 215 -189 q 259 -183 253 -189 q 265 -169 265 -178 q 259 -153 265 -160 q 233 -137 253 -147 l 168 -106 l 168 -71 l 203 -14 q 74 47 114 -7 q 35 210 35 101 q 70 444 35 329 q 181 636 106 560 q 368 713 256 713 q 508 685 450 713 q 567 593 567 657 q 552 523 567 556 q 519 467 538 490 q 501 446 501 443 l 438 446 l 425 586 q 396 594 425 588 q 335 601 367 601 q 265 588 271 601 q 231 460 244 546 q 217 269 217 375 q 232 163 217 200 q 276 114 247 126 q 350 101 304 101 q 413 112 381 101 q 465 133 444 122 q 492 149 486 144 l 522 99 q 494 69 522 94 q 412 19 465 43 q 281 -12 358 -6 l 281 -39 l 328 -64 q 381 -103 363 -82 q 400 -156 400 -124 q 360 -240 400 -211 q 261 -269 321 -269 q 99 -232 157 -269 l 135 -167 z "},"ĉ":{"ha":571,"x_min":35,"x_max":594,"o":"m 35 0 m 522 99 q 489 64 522 93 q 391 10 456 35 q 232 -15 326 -15 q 81 39 128 -15 q 35 210 35 93 q 70 444 35 329 q 181 636 106 560 q 368 713 256 713 q 508 685 450 713 q 567 593 567 657 q 552 523 567 556 q 519 467 538 490 q 501 446 501 443 l 438 446 l 425 586 q 396 594 425 588 q 335 601 367 601 q 265 588 271 601 q 231 460 244 546 q 217 269 217 375 q 232 163 217 200 q 276 114 247 126 q 350 101 304 101 q 413 112 381 101 q 465 133 444 122 q 492 149 486 144 l 522 99 m 401 864 l 229 774 l 186 821 l 314 947 q 381 1010 358 992 q 419 1029 404 1029 q 451 1014 436 1029 q 488 968 467 999 l 594 818 l 542 768 l 401 864 z "},"ċ":{"ha":571,"x_min":35,"x_max":567,"o":"m 35 0 m 522 99 q 489 64 522 93 q 391 10 456 35 q 232 -15 326 -15 q 81 39 128 -15 q 35 210 35 93 q 70 444 35 329 q 181 636 106 560 q 368 713 256 713 q 508 685 450 713 q 567 593 567 657 q 552 523 567 556 q 519 467 538 490 q 501 446 501 443 l 438 446 l 425 586 q 396 594 425 588 q 335 601 367 601 q 265 588 271 601 q 231 460 244 546 q 217 269 217 375 q 232 163 217 200 q 276 114 247 126 q 350 101 304 101 q 413 112 381 101 q 465 133 444 122 q 492 149 486 144 l 522 99 m 394 786 q 325 814 351 786 q 299 883 299 842 q 328 969 299 932 q 411 1007 357 1007 q 481 979 454 1007 q 508 906 508 951 q 478 822 508 858 q 394 786 449 786 z "},"d":{"ha":717,"x_min":35,"x_max":689,"o":"m 415 146 q 200 -15 326 -15 q 79 46 124 -15 q 35 208 35 107 q 74 425 35 306 q 186 628 113 544 q 358 713 260 713 q 499 679 424 713 l 531 851 l 415 875 l 415 956 l 689 982 l 689 851 l 575 122 l 672 122 l 672 38 q 643 23 667 33 q 581 2 619 13 q 499 -8 543 -8 q 417 6 439 -8 q 394 61 394 21 q 421 143 394 90 l 415 146 m 468 511 q 304 601 385 601 q 292 600 300 601 q 283 597 285 599 q 238 465 261 560 q 214 238 214 369 q 251 122 214 122 q 419 247 321 122 l 468 511 z "},"ð":{"ha":665,"x_min":35,"x_max":631,"o":"m 281 -15 q 97 47 158 -15 q 35 231 35 108 q 81 468 35 357 q 202 646 126 579 q 364 713 278 713 l 401 711 q 322 811 367 779 l 168 710 l 118 786 l 231 858 q 60 882 153 882 l 60 965 q 133 969 94 969 q 350 936 253 969 l 471 1014 l 521 940 l 443 889 q 583 719 536 828 q 631 460 631 611 q 586 214 631 322 q 462 45 542 106 q 281 -15 382 -15 m 325 85 q 372 89 353 85 q 393 99 390 93 q 432 242 418 153 q 446 436 446 331 q 439 565 446 497 q 326 601 392 601 q 283 597 288 601 q 242 463 265 579 q 219 268 219 346 q 244 127 219 169 q 325 85 268 85 z "},"ď":{"ha":724,"x_min":35,"x_max":900,"o":"m 726 794 q 740 813 729 799 q 759 853 750 828 q 768 907 768 878 q 765 940 768 924 q 758 963 761 956 q 753 974 754 971 q 824 1019 779 1019 q 881 999 863 1019 q 900 946 900 979 q 869 848 900 890 q 799 778 838 806 q 760 754 760 751 l 726 794 m 415 146 q 200 -15 326 -15 q 79 46 124 -15 q 35 208 35 107 q 74 425 35 306 q 186 628 113 544 q 358 713 260 713 q 499 679 424 713 l 531 851 l 415 875 l 415 956 l 689 982 l 689 851 l 575 122 l 672 122 l 672 38 q 643 23 667 33 q 581 2 619 13 q 499 -8 543 -8 q 417 6 439 -8 q 394 61 394 21 q 421 143 394 90 l 415 146 m 468 511 q 304 601 385 601 q 292 600 300 601 q 283 597 285 599 q 238 465 261 560 q 214 238 214 369 q 251 122 214 122 q 419 247 321 122 l 468 511 z "},"đ":{"ha":724,"x_min":35,"x_max":731,"o":"m 200 -15 q 79 46 124 -15 q 35 208 35 107 q 73 418 35 306 q 184 609 111 531 q 356 688 257 688 q 496 660 421 688 l 514 753 l 272 753 l 272 860 l 533 860 l 539 892 l 458 913 l 458 960 l 704 982 l 692 885 l 688 860 l 731 860 l 731 753 l 675 753 l 575 122 l 672 122 l 672 38 q 643 23 667 33 q 581 2 619 13 q 499 -8 543 -8 q 417 6 439 -8 q 394 61 394 21 q 421 143 394 90 l 415 146 q 200 -15 326 -15 m 251 122 q 338 161 293 122 q 419 247 383 200 l 465 496 q 301 576 388 576 q 290 575 297 576 q 281 572 282 574 q 235 451 257 533 q 214 238 214 369 q 251 122 214 122 z "},"ḍ":{"ha":717,"x_min":35,"x_max":689,"o":"m 35 0 m 415 146 q 200 -15 326 -15 q 79 46 124 -15 q 35 208 35 107 q 74 425 35 306 q 186 628 113 544 q 358 713 260 713 q 499 679 424 713 l 531 851 l 415 875 l 415 956 l 689 982 l 689 851 l 575 122 l 672 122 l 672 38 q 643 23 667 33 q 581 2 619 13 q 499 -8 543 -8 q 417 6 439 -8 q 394 61 394 21 q 421 143 394 90 l 415 146 m 468 511 q 304 601 385 601 q 292 600 300 601 q 283 597 285 599 q 238 465 261 560 q 214 238 214 369 q 251 122 214 122 q 419 247 321 122 l 468 511 m 278 -269 q 208 -242 235 -269 q 182 -172 182 -214 q 211 -86 182 -124 q 294 -49 240 -49 q 365 -76 338 -49 q 392 -150 392 -104 q 362 -233 392 -197 q 278 -269 332 -269 z "},"ǳ":{"ha":1272,"x_min":35,"x_max":1321,"o":"m 415 146 q 200 -15 326 -15 q 79 46 124 -15 q 35 208 35 107 q 74 425 35 306 q 186 628 113 544 q 358 713 260 713 q 499 679 424 713 l 531 851 l 415 875 l 415 956 l 689 982 l 689 851 l 575 122 l 672 122 l 672 38 q 643 23 667 33 q 581 2 619 13 q 499 -8 543 -8 q 417 6 439 -8 q 394 61 394 21 q 421 143 394 90 l 415 146 m 1049 515 l 897 613 l 864 493 l 790 493 q 777 512 788 497 q 758 551 767 526 q 749 606 749 576 q 785 684 749 656 q 875 713 822 713 q 1032 689 935 713 l 1179 654 l 1257 710 l 1321 658 l 943 188 l 943 172 l 1106 85 l 1139 204 l 1208 204 q 1220 182 1211 200 q 1238 137 1229 164 q 1246 81 1246 110 q 1210 8 1246 32 q 1132 -15 1175 -15 q 961 1 1047 -15 l 807 32 l 742 -10 l 672 47 l 1049 499 l 1049 515 m 468 511 q 304 601 385 601 q 292 600 300 601 q 283 597 285 599 q 238 465 261 560 q 214 238 214 369 q 251 122 214 122 q 419 247 321 122 l 468 511 z "},"ǆ":{"ha":1272,"x_min":35,"x_max":1321,"o":"m 35 0 m 415 146 q 200 -15 326 -15 q 79 46 124 -15 q 35 208 35 107 q 74 425 35 306 q 186 628 113 544 q 358 713 260 713 q 499 679 424 713 l 531 851 l 415 875 l 415 956 l 689 982 l 689 851 l 575 122 l 672 122 l 672 38 q 643 23 667 33 q 581 2 619 13 q 499 -8 543 -8 q 417 6 439 -8 q 394 61 394 21 q 421 143 394 90 l 415 146 m 1049 515 l 897 613 l 864 493 l 790 493 q 777 512 788 497 q 758 551 767 526 q 749 606 749 576 q 785 684 749 656 q 875 713 822 713 q 1032 689 935 713 l 1179 654 l 1257 710 l 1321 658 l 943 188 l 943 172 l 1106 85 l 1139 204 l 1208 204 q 1220 182 1211 200 q 1238 137 1229 164 q 1246 81 1246 110 q 1210 8 1246 32 q 1132 -15 1175 -15 q 961 1 1047 -15 l 807 32 l 742 -10 l 672 47 l 1049 499 l 1049 515 m 468 511 q 304 601 385 601 q 292 600 300 601 q 283 597 285 599 q 238 465 261 560 q 214 238 214 369 q 251 122 214 122 q 419 247 321 122 l 468 511 m 943 1025 l 1083 926 l 1254 1019 l 1297 972 l 1171 850 q 1102 787 1125 806 q 1065 768 1079 768 q 1037 781 1050 768 q 1013 808 1024 793 q 997 829 1001 824 l 888 976 l 943 1025 z "},"e":{"ha":583,"x_min":40,"x_max":575,"o":"m 253 -14 q 91 34 142 -14 q 40 197 40 82 q 77 431 40 311 q 188 632 114 551 q 368 713 263 713 q 521 669 467 713 q 575 564 575 626 q 529 419 575 474 q 408 335 483 364 q 218 283 333 307 l 218 235 q 251 128 218 158 q 357 99 285 99 q 428 113 388 99 q 501 147 469 126 l 532 96 q 411 17 490 49 q 253 -14 332 -14 m 228 360 q 344 409 307 385 q 393 463 382 433 q 404 539 404 492 q 342 613 404 613 q 308 608 325 613 q 288 599 292 603 q 268 558 281 593 q 244 469 256 522 q 228 360 232 417 z "},"é":{"ha":583,"x_min":40,"x_max":575,"o":"m 253 821 l 460 1032 q 525 1003 504 1026 q 546 947 546 979 q 512 888 546 914 q 426 833 478 861 l 297 765 l 253 821 m 253 -14 q 91 34 142 -14 q 40 197 40 82 q 77 431 40 311 q 188 632 114 551 q 368 713 263 713 q 521 669 467 713 q 575 564 575 626 q 529 419 575 474 q 408 335 483 364 q 218 283 333 307 l 218 235 q 251 128 218 158 q 357 99 285 99 q 428 113 388 99 q 501 147 469 126 l 532 96 q 411 17 490 49 q 253 -14 332 -14 m 228 360 q 344 409 307 385 q 393 463 382 433 q 404 539 404 492 q 342 613 404 613 q 308 608 325 613 q 288 599 292 603 q 268 558 281 593 q 244 469 256 522 q 228 360 232 417 z "},"ĕ":{"ha":583,"x_min":40,"x_max":619,"o":"m 40 0 m 253 -14 q 91 34 142 -14 q 40 197 40 82 q 77 431 40 311 q 188 632 114 551 q 368 713 263 713 q 521 669 467 713 q 575 564 575 626 q 529 419 575 474 q 408 335 483 364 q 218 283 333 307 l 218 235 q 251 128 218 158 q 357 99 285 99 q 428 113 388 99 q 501 147 469 126 l 532 96 q 411 17 490 49 q 253 -14 332 -14 m 228 360 q 344 409 307 385 q 393 463 382 433 q 404 539 404 492 q 342 613 404 613 q 308 608 325 613 q 288 599 292 603 q 268 558 281 593 q 244 469 256 522 q 228 360 232 417 m 350 776 q 251 802 294 776 q 185 867 208 828 q 163 943 163 906 q 167 967 163 960 q 178 979 171 974 q 225 1000 188 988 q 274 1013 263 1013 q 311 931 282 961 q 393 900 340 900 q 479 924 442 900 q 540 976 517 949 q 563 1008 563 1004 l 619 985 q 593 921 619 972 q 507 823 567 869 q 350 776 447 776 z "},"ě":{"ha":583,"x_min":35,"x_max":585,"o":"m 353 768 q 324 781 338 768 q 300 808 311 793 q 285 829 289 824 l 175 976 l 231 1025 l 371 926 l 542 1019 l 585 972 l 458 850 q 390 787 413 806 q 353 768 367 768 m 247 -14 q 85 34 136 -14 q 35 197 35 82 q 72 431 35 311 q 183 632 108 551 q 363 713 257 713 q 515 669 461 713 q 569 564 569 626 q 524 419 569 474 q 403 335 478 364 q 213 283 328 307 l 213 235 q 246 128 213 158 q 351 99 279 99 q 414 110 382 99 q 468 132 446 121 q 496 147 490 143 l 526 96 q 490 63 526 92 q 390 10 453 35 q 247 -14 328 -14 m 222 360 q 339 409 301 385 q 388 463 376 433 q 399 539 399 492 q 336 613 399 613 q 302 608 318 613 q 282 599 286 603 q 263 558 275 593 q 238 469 250 522 q 222 360 226 417 z "},"ê":{"ha":583,"x_min":40,"x_max":581,"o":"m 388 864 l 215 774 l 172 821 l 300 947 q 367 1010 344 992 q 406 1029 390 1029 q 438 1014 422 1029 q 474 968 453 999 l 581 818 l 528 768 l 388 864 m 253 -14 q 91 34 142 -14 q 40 197 40 82 q 77 431 40 311 q 188 632 114 551 q 368 713 263 713 q 521 669 467 713 q 575 564 575 626 q 529 419 575 474 q 408 335 483 364 q 218 283 333 307 l 218 235 q 251 128 218 158 q 357 99 285 99 q 428 113 388 99 q 501 147 469 126 l 532 96 q 411 17 490 49 q 253 -14 332 -14 m 228 360 q 344 409 307 385 q 393 463 382 433 q 404 539 404 492 q 342 613 404 613 q 308 608 325 613 q 288 599 292 603 q 268 558 281 593 q 244 469 256 522 q 228 360 232 417 z "},"ế":{"ha":583,"x_min":40,"x_max":719,"o":"m 40 0 m 253 -14 q 91 34 142 -14 q 40 197 40 82 q 77 431 40 311 q 188 632 114 551 q 368 713 263 713 q 521 669 467 713 q 575 564 575 626 q 529 419 575 474 q 408 335 483 364 q 218 283 333 307 l 218 235 q 251 128 218 158 q 357 99 285 99 q 428 113 388 99 q 501 147 469 126 l 532 96 q 411 17 490 49 q 253 -14 332 -14 m 228 360 q 344 409 307 385 q 393 463 382 433 q 404 539 404 492 q 342 613 404 613 q 308 608 325 613 q 288 599 292 603 q 268 558 281 593 q 244 469 256 522 q 228 360 232 417 m 333 864 l 161 774 l 118 821 l 246 947 q 313 1010 290 992 q 351 1029 336 1029 q 383 1014 368 1029 q 419 968 399 999 l 526 818 l 474 768 l 333 864 m 426 1024 l 633 1235 q 699 1206 678 1229 q 719 1150 719 1182 q 692 1093 719 1115 q 600 1036 665 1071 l 471 968 l 426 1024 z "},"ệ":{"ha":583,"x_min":40,"x_max":582,"o":"m 40 0 m 253 -14 q 91 34 142 -14 q 40 197 40 82 q 77 431 40 311 q 188 632 114 551 q 368 713 263 713 q 521 669 467 713 q 575 564 575 626 q 529 419 575 474 q 408 335 483 364 q 218 283 333 307 l 218 235 q 251 128 218 158 q 357 99 285 99 q 428 113 388 99 q 501 147 469 126 l 532 96 q 411 17 490 49 q 253 -14 332 -14 m 228 360 q 344 409 307 385 q 393 463 382 433 q 404 539 404 492 q 342 613 404 613 q 308 608 325 613 q 288 599 292 603 q 268 558 281 593 q 244 469 256 522 q 228 360 232 417 m 232 -269 q 163 -242 189 -269 q 136 -172 136 -214 q 165 -86 136 -124 q 249 -49 194 -49 q 319 -76 292 -49 q 346 -150 346 -104 q 316 -233 346 -197 q 232 -269 286 -269 m 389 864 l 217 774 l 174 821 l 301 947 q 369 1010 346 992 q 407 1029 392 1029 q 439 1014 424 1029 q 475 968 454 999 l 582 818 l 529 768 l 389 864 z "},"ề":{"ha":583,"x_min":40,"x_max":650,"o":"m 40 0 m 253 -14 q 91 34 142 -14 q 40 197 40 82 q 77 431 40 311 q 188 632 114 551 q 368 713 263 713 q 521 669 467 713 q 575 564 575 626 q 529 419 575 474 q 408 335 483 364 q 218 283 333 307 l 218 235 q 251 128 218 158 q 357 99 285 99 q 428 113 388 99 q 501 147 469 126 l 532 96 q 411 17 490 49 q 253 -14 332 -14 m 228 360 q 344 409 307 385 q 393 463 382 433 q 404 539 404 492 q 342 613 404 613 q 308 608 325 613 q 288 599 292 603 q 268 558 281 593 q 244 469 256 522 q 228 360 232 417 m 375 864 l 203 774 l 160 821 l 288 947 q 355 1010 332 992 q 393 1029 378 1029 q 425 1014 410 1029 q 461 968 440 999 l 568 818 l 515 768 l 375 864 m 476 1036 q 384 1093 411 1071 q 357 1150 357 1115 q 378 1206 357 1182 q 443 1235 399 1229 l 650 1024 l 606 968 l 476 1036 z "},"ể":{"ha":583,"x_min":40,"x_max":732,"o":"m 40 0 m 253 -14 q 91 34 142 -14 q 40 197 40 82 q 77 431 40 311 q 188 632 114 551 q 368 713 263 713 q 521 669 467 713 q 575 564 575 626 q 529 419 575 474 q 408 335 483 364 q 218 283 333 307 l 218 235 q 251 128 218 158 q 357 99 285 99 q 428 113 388 99 q 501 147 469 126 l 532 96 q 411 17 490 49 q 253 -14 332 -14 m 228 360 q 344 409 307 385 q 393 463 382 433 q 404 539 404 492 q 342 613 404 613 q 308 608 325 613 q 288 599 292 603 q 268 558 281 593 q 244 469 256 522 q 228 360 232 417 m 349 864 l 176 774 l 133 821 l 261 947 q 328 1010 306 992 q 367 1029 351 1029 q 399 1014 383 1029 q 435 968 414 999 l 542 818 l 489 768 l 349 864 m 496 947 q 486 986 486 974 q 500 1017 486 1003 q 551 1053 514 1031 q 581 1074 571 1064 q 592 1103 592 1085 q 543 1133 592 1133 q 468 1122 508 1133 q 449 1171 449 1147 q 565 1226 449 1226 q 689 1201 646 1226 q 732 1128 732 1176 q 705 1058 732 1088 q 631 1006 678 1029 q 612 996 624 1001 q 597 983 600 990 q 593 958 593 975 l 496 947 z "},"ễ":{"ha":583,"x_min":40,"x_max":665,"o":"m 511 1078 q 460 1083 483 1078 q 403 1099 438 1088 l 289 1133 l 182 1089 l 144 1128 l 210 1193 q 253 1230 232 1218 q 300 1242 274 1242 q 383 1226 331 1242 l 521 1186 l 628 1231 l 665 1192 l 600 1125 q 511 1078 554 1078 m 369 864 l 197 774 l 154 821 l 282 947 q 349 1010 326 992 q 388 1029 372 1029 q 419 1014 404 1029 q 456 968 435 999 l 563 818 l 510 768 l 369 864 m 253 -14 q 91 34 142 -14 q 40 197 40 82 q 77 431 40 311 q 188 632 114 551 q 368 713 263 713 q 521 669 467 713 q 575 564 575 626 q 529 419 575 474 q 408 335 483 364 q 218 283 333 307 l 218 235 q 251 128 218 158 q 357 99 285 99 q 428 113 388 99 q 501 147 469 126 l 532 96 q 411 17 490 49 q 253 -14 332 -14 m 228 360 q 344 409 307 385 q 393 463 382 433 q 404 539 404 492 q 342 613 404 613 q 308 608 325 613 q 288 599 292 603 q 268 558 281 593 q 244 469 256 522 q 228 360 232 417 z "},"ȅ":{"ha":583,"x_min":40,"x_max":575,"o":"m 40 0 m 253 -14 q 91 34 142 -14 q 40 197 40 82 q 77 431 40 311 q 188 632 114 551 q 368 713 263 713 q 521 669 467 713 q 575 564 575 626 q 529 419 575 474 q 408 335 483 364 q 218 283 333 307 l 218 235 q 251 128 218 158 q 357 99 285 99 q 428 113 388 99 q 501 147 469 126 l 532 96 q 411 17 490 49 q 253 -14 332 -14 m 228 360 q 344 409 307 385 q 393 463 382 433 q 404 539 404 492 q 342 613 404 613 q 308 608 325 613 q 288 599 292 603 q 268 558 281 593 q 244 469 256 522 q 228 360 232 417 m 164 850 q 129 907 139 886 q 119 946 119 928 q 155 1011 119 985 q 231 1038 190 1038 q 257 1033 244 1038 l 304 794 l 233 757 l 164 850 m 410 850 q 375 907 385 886 q 365 946 365 928 q 399 1010 365 985 q 478 1035 432 1035 q 503 1033 494 1035 l 550 794 l 479 757 l 410 850 z "},"ë":{"ha":583,"x_min":40,"x_max":632,"o":"m 242 800 q 176 826 201 800 q 151 892 151 853 q 179 973 151 938 q 257 1008 207 1008 q 323 983 297 1008 q 349 913 349 957 q 321 833 349 867 q 242 800 293 800 m 525 800 q 460 826 485 800 q 435 892 435 853 q 463 973 435 938 q 540 1008 490 1008 q 606 983 581 1008 q 632 913 632 957 q 604 833 632 867 q 525 800 576 800 m 253 -14 q 91 34 142 -14 q 40 197 40 82 q 77 431 40 311 q 188 632 114 551 q 368 713 263 713 q 521 669 467 713 q 575 564 575 626 q 529 419 575 474 q 408 335 483 364 q 218 283 333 307 l 218 235 q 251 128 218 158 q 357 99 285 99 q 428 113 388 99 q 501 147 469 126 l 532 96 q 411 17 490 49 q 253 -14 332 -14 m 228 360 q 344 409 307 385 q 393 463 382 433 q 404 539 404 492 q 342 613 404 613 q 308 608 325 613 q 288 599 292 603 q 268 558 281 593 q 244 469 256 522 q 228 360 232 417 z "},"ė":{"ha":583,"x_min":35,"x_max":569,"o":"m 382 786 q 313 814 339 786 q 286 883 286 842 q 315 969 286 932 q 399 1007 344 1007 q 469 979 442 1007 q 496 906 496 951 q 466 822 496 858 q 382 786 436 786 m 247 -14 q 85 34 136 -14 q 35 197 35 82 q 72 431 35 311 q 183 632 108 551 q 363 713 257 713 q 515 669 461 713 q 569 564 569 626 q 524 419 569 474 q 403 335 478 364 q 213 283 328 307 l 213 235 q 246 128 213 158 q 351 99 279 99 q 414 110 382 99 q 468 132 446 121 q 496 147 490 143 l 526 96 q 490 63 526 92 q 390 10 453 35 q 247 -14 328 -14 m 222 360 q 339 409 301 385 q 388 463 376 433 q 399 539 399 492 q 336 613 399 613 q 302 608 318 613 q 282 599 286 603 q 263 558 275 593 q 238 469 250 522 q 222 360 226 417 z "},"ẹ":{"ha":583,"x_min":40,"x_max":575,"o":"m 40 0 m 253 -14 q 91 34 142 -14 q 40 197 40 82 q 77 431 40 311 q 188 632 114 551 q 368 713 263 713 q 521 669 467 713 q 575 564 575 626 q 529 419 575 474 q 408 335 483 364 q 218 283 333 307 l 218 235 q 251 128 218 158 q 357 99 285 99 q 428 113 388 99 q 501 147 469 126 l 532 96 q 411 17 490 49 q 253 -14 332 -14 m 228 360 q 344 409 307 385 q 393 463 382 433 q 404 539 404 492 q 342 613 404 613 q 308 608 325 613 q 288 599 292 603 q 268 558 281 593 q 244 469 256 522 q 228 360 232 417 m 232 -269 q 163 -242 189 -269 q 136 -172 136 -214 q 165 -86 136 -124 q 249 -49 194 -49 q 319 -76 292 -49 q 346 -150 346 -104 q 316 -233 346 -197 q 232 -269 286 -269 z "},"è":{"ha":583,"x_min":40,"x_max":575,"o":"m 340 833 q 255 888 289 861 q 221 947 221 914 q 242 1003 221 979 q 307 1032 263 1026 l 514 821 l 469 765 l 340 833 m 253 -14 q 91 34 142 -14 q 40 197 40 82 q 77 431 40 311 q 188 632 114 551 q 368 713 263 713 q 521 669 467 713 q 575 564 575 626 q 529 419 575 474 q 408 335 483 364 q 218 283 333 307 l 218 235 q 251 128 218 158 q 357 99 285 99 q 428 113 388 99 q 501 147 469 126 l 532 96 q 411 17 490 49 q 253 -14 332 -14 m 228 360 q 344 409 307 385 q 393 463 382 433 q 404 539 404 492 q 342 613 404 613 q 308 608 325 613 q 288 599 292 603 q 268 558 281 593 q 244 469 256 522 q 228 360 232 417 z "},"ẻ":{"ha":583,"x_min":40,"x_max":575,"o":"m 40 0 m 253 -14 q 91 34 142 -14 q 40 197 40 82 q 77 431 40 311 q 188 632 114 551 q 368 713 263 713 q 521 669 467 713 q 575 564 575 626 q 529 419 575 474 q 408 335 483 364 q 218 283 333 307 l 218 235 q 251 128 218 158 q 357 99 285 99 q 428 113 388 99 q 501 147 469 126 l 532 96 q 411 17 490 49 q 253 -14 332 -14 m 228 360 q 344 409 307 385 q 393 463 382 433 q 404 539 404 492 q 342 613 404 613 q 308 608 325 613 q 288 599 292 603 q 268 558 281 593 q 244 469 256 522 q 228 360 232 417 m 324 744 q 314 783 314 771 q 328 814 314 800 q 379 850 342 828 q 409 872 399 861 q 419 900 419 882 q 371 931 419 931 q 296 919 336 931 q 276 968 276 944 q 393 1024 276 1024 q 517 999 474 1024 q 560 925 560 974 q 533 856 560 885 q 458 803 506 826 q 440 793 451 799 q 424 780 428 788 q 421 756 421 772 l 324 744 z "},"ȇ":{"ha":583,"x_min":40,"x_max":619,"o":"m 40 0 m 253 -14 q 91 34 142 -14 q 40 197 40 82 q 77 431 40 311 q 188 632 114 551 q 368 713 263 713 q 521 669 467 713 q 575 564 575 626 q 529 419 575 474 q 408 335 483 364 q 218 283 333 307 l 218 235 q 251 128 218 158 q 357 99 285 99 q 428 113 388 99 q 501 147 469 126 l 532 96 q 411 17 490 49 q 253 -14 332 -14 m 228 360 q 344 409 307 385 q 393 463 382 433 q 404 539 404 492 q 342 613 404 613 q 308 608 325 613 q 288 599 292 603 q 268 558 281 593 q 244 469 256 522 q 228 360 232 417 m 163 804 q 189 868 163 817 q 275 966 215 919 q 432 1013 335 1013 q 531 987 488 1013 q 597 922 574 961 q 619 846 619 883 q 615 822 619 829 q 604 810 611 815 q 557 789 594 801 q 508 776 519 776 q 471 858 500 828 q 389 889 442 889 q 303 865 340 889 q 242 813 265 840 q 219 781 219 785 l 163 804 z "},"ē":{"ha":583,"x_min":35,"x_max":619,"o":"m 147 843 l 161 957 l 619 957 l 606 843 l 147 843 m 247 -14 q 85 34 136 -14 q 35 197 35 82 q 72 431 35 311 q 183 632 108 551 q 363 713 257 713 q 515 669 461 713 q 569 564 569 626 q 524 419 569 474 q 403 335 478 364 q 213 283 328 307 l 213 235 q 246 128 213 158 q 351 99 279 99 q 414 110 382 99 q 468 132 446 121 q 496 147 490 143 l 526 96 q 490 63 526 92 q 390 10 453 35 q 247 -14 328 -14 m 222 360 q 339 409 301 385 q 388 463 376 433 q 399 539 399 492 q 336 613 399 613 q 302 608 318 613 q 282 599 286 603 q 263 558 275 593 q 238 469 250 522 q 222 360 226 417 z "},"ę":{"ha":583,"x_min":35,"x_max":569,"o":"m 314 -260 q 216 -235 253 -260 q 179 -161 179 -210 q 272 -12 179 -75 q 247 -14 264 -14 q 85 34 136 -14 q 35 197 35 82 q 72 431 35 311 q 183 632 108 551 q 363 713 257 713 q 515 669 461 713 q 569 564 569 626 q 524 419 569 474 q 403 335 478 364 q 213 283 328 307 l 213 235 q 246 128 213 158 q 351 99 279 99 q 414 110 382 99 q 468 132 446 121 q 496 147 490 143 l 526 96 q 510 81 524 93 q 472 51 496 68 q 415 21 447 35 q 346 -35 381 -1 q 311 -117 311 -69 q 323 -153 311 -143 q 360 -164 335 -164 q 432 -137 389 -164 l 465 -186 q 444 -208 465 -189 q 388 -243 422 -226 q 314 -260 354 -260 m 222 360 q 339 409 301 385 q 388 463 376 433 q 399 539 399 492 q 336 613 399 613 q 302 608 318 613 q 282 599 286 603 q 263 558 275 593 q 238 469 250 522 q 222 360 226 417 z "},"ẽ":{"ha":583,"x_min":40,"x_max":651,"o":"m 40 0 m 253 -14 q 91 34 142 -14 q 40 197 40 82 q 77 431 40 311 q 188 632 114 551 q 368 713 263 713 q 521 669 467 713 q 575 564 575 626 q 529 419 575 474 q 408 335 483 364 q 218 283 333 307 l 218 235 q 251 128 218 158 q 357 99 285 99 q 428 113 388 99 q 501 147 469 126 l 532 96 q 411 17 490 49 q 253 -14 332 -14 m 228 360 q 344 409 307 385 q 393 463 382 433 q 404 539 404 492 q 342 613 404 613 q 308 608 325 613 q 288 599 292 603 q 268 558 281 593 q 244 469 256 522 q 228 360 232 417 m 497 800 q 446 806 469 800 q 389 824 422 813 l 275 864 l 168 813 l 131 857 l 196 932 q 238 974 218 961 q 286 988 258 988 q 369 971 319 988 l 507 924 l 614 975 l 651 931 l 586 854 q 497 800 540 800 z "},"ə":{"ha":583,"x_min":8,"x_max":543,"o":"m 331 700 q 492 652 442 700 q 543 489 543 604 q 506 255 543 375 q 395 54 469 135 q 215 -26 321 -26 q 63 17 117 -26 q 8 122 8 60 q 54 267 8 213 q 175 351 100 322 q 365 403 250 379 l 365 451 q 332 558 365 528 q 226 588 299 588 q 155 574 196 588 q 82 539 114 560 l 51 590 q 172 669 93 638 q 331 700 251 700 m 356 326 q 239 277 276 301 q 190 224 201 253 q 179 147 179 194 q 242 74 179 74 q 276 78 260 74 q 296 88 292 83 q 315 128 303 93 q 340 217 328 164 q 356 326 351 269 z "},"f":{"ha":414,"x_min":18,"x_max":608,"o":"m 157 606 l 56 606 l 56 660 l 78 704 l 185 704 q 313 906 228 825 q 525 988 397 988 q 608 913 608 988 q 601 879 608 896 q 585 852 593 863 q 575 839 578 842 l 482 839 q 361 819 383 839 q 338 724 350 808 l 335 704 l 499 704 l 499 657 l 476 606 l 321 606 l 204 -239 l 18 -257 l 157 606 z "},"g":{"ha":696,"x_min":-49,"x_max":671,"o":"m 175 -239 q 8 -203 65 -239 q -49 -100 -49 -168 q -35 -49 -49 -82 q -3 8 -21 -17 q 25 33 15 33 l 103 33 l 103 -89 q 172 -119 129 -107 q 251 -131 214 -131 q 326 -116 301 -131 q 360 -73 350 -101 q 381 19 369 -44 l 388 60 q 428 199 403 140 l 424 201 q 317 85 372 125 q 207 44 261 44 q 88 100 128 44 q 47 264 47 156 q 91 479 47 375 q 205 648 135 583 q 349 713 275 713 q 524 664 435 713 l 572 718 l 671 718 l 560 49 q 435 -162 538 -86 q 175 -239 332 -239 m 267 178 q 344 212 300 178 q 433 306 389 246 l 472 514 q 314 601 388 601 q 285 597 288 601 q 244 463 260 547 q 228 293 228 378 q 237 205 228 232 q 267 178 246 178 z "},"ǵ":{"ha":696,"x_min":-49,"x_max":671,"o":"m 0 0 m 175 -239 q 8 -203 65 -239 q -49 -100 -49 -168 q -35 -49 -49 -82 q -3 8 -21 -17 q 25 33 15 33 l 103 33 l 103 -89 q 172 -119 129 -107 q 251 -131 214 -131 q 326 -116 301 -131 q 360 -73 350 -101 q 381 19 369 -44 l 388 60 q 428 199 403 140 l 424 201 q 317 85 372 125 q 207 44 261 44 q 88 100 128 44 q 47 264 47 156 q 91 479 47 375 q 205 648 135 583 q 349 713 275 713 q 524 664 435 713 l 572 718 l 671 718 l 560 49 q 435 -162 538 -86 q 175 -239 332 -239 m 267 178 q 344 212 300 178 q 433 306 389 246 l 472 514 q 314 601 388 601 q 285 597 288 601 q 244 463 260 547 q 228 293 228 378 q 237 205 228 232 q 267 178 246 178 m 336 821 l 543 1032 q 608 1003 588 1026 q 629 947 629 979 q 602 890 629 913 q 510 833 575 868 l 381 765 l 336 821 z "},"ğ":{"ha":696,"x_min":-49,"x_max":672,"o":"m 403 776 q 304 802 347 776 q 238 867 261 828 q 215 943 215 906 q 219 967 215 960 q 231 979 224 974 q 278 1000 240 988 q 326 1013 315 1013 q 364 931 335 961 q 446 900 393 900 q 532 924 494 900 q 592 976 569 949 q 615 1008 615 1004 l 672 985 q 646 921 672 972 q 560 823 619 869 q 403 776 500 776 m 175 -239 q 8 -203 65 -239 q -49 -100 -49 -168 q -33 -37 -49 -67 q 3 13 -17 -7 q 25 33 22 33 l 103 33 l 103 -89 q 128 -102 108 -92 q 180 -122 147 -112 q 251 -131 213 -131 q 326 -116 301 -131 q 360 -73 350 -101 q 381 19 369 -44 l 388 60 q 428 199 403 140 l 424 201 q 207 44 317 44 q 90 98 132 44 q 47 264 47 151 q 83 456 47 350 q 188 638 119 563 q 349 713 257 713 q 524 664 435 713 l 572 718 l 671 718 l 560 49 q 451 -152 540 -65 q 175 -239 363 -239 m 267 178 q 433 306 336 178 l 472 514 q 314 601 388 601 q 285 597 288 601 q 243 460 258 546 q 228 293 228 375 q 238 203 228 228 q 267 178 247 178 z "},"ǧ":{"ha":696,"x_min":-49,"x_max":671,"o":"m 0 0 m 175 -239 q 8 -203 65 -239 q -49 -100 -49 -168 q -35 -49 -49 -82 q -3 8 -21 -17 q 25 33 15 33 l 103 33 l 103 -89 q 172 -119 129 -107 q 251 -131 214 -131 q 326 -116 301 -131 q 360 -73 350 -101 q 381 19 369 -44 l 388 60 q 428 199 403 140 l 424 201 q 317 85 372 125 q 207 44 261 44 q 88 100 128 44 q 47 264 47 156 q 91 479 47 375 q 205 648 135 583 q 349 713 275 713 q 524 664 435 713 l 572 718 l 671 718 l 560 49 q 435 -162 538 -86 q 175 -239 332 -239 m 267 178 q 344 212 300 178 q 433 306 389 246 l 472 514 q 314 601 388 601 q 285 597 288 601 q 244 463 260 547 q 228 293 228 378 q 237 205 228 232 q 267 178 246 178 m 278 1025 l 418 926 l 589 1019 l 632 972 l 506 850 q 437 787 460 806 q 400 768 414 768 q 372 781 385 768 q 347 808 358 793 q 332 829 336 824 l 222 976 l 278 1025 z "},"ĝ":{"ha":696,"x_min":-49,"x_max":671,"o":"m 0 0 m 175 -239 q 8 -203 65 -239 q -49 -100 -49 -168 q -35 -49 -49 -82 q -3 8 -21 -17 q 25 33 15 33 l 103 33 l 103 -89 q 172 -119 129 -107 q 251 -131 214 -131 q 326 -116 301 -131 q 360 -73 350 -101 q 381 19 369 -44 l 388 60 q 428 199 403 140 l 424 201 q 317 85 372 125 q 207 44 261 44 q 88 100 128 44 q 47 264 47 156 q 91 479 47 375 q 205 648 135 583 q 349 713 275 713 q 524 664 435 713 l 572 718 l 671 718 l 560 49 q 435 -162 538 -86 q 175 -239 332 -239 m 267 178 q 344 212 300 178 q 433 306 389 246 l 472 514 q 314 601 388 601 q 285 597 288 601 q 244 463 260 547 q 228 293 228 378 q 237 205 228 232 q 267 178 246 178 m 425 864 l 253 774 l 210 821 l 338 947 q 405 1010 382 992 q 443 1029 428 1029 q 475 1014 460 1029 q 511 968 490 999 l 618 818 l 565 768 l 425 864 z "},"ģ":{"ha":696,"x_min":-49,"x_max":671,"o":"m 433 767 q 369 791 390 767 q 347 849 347 815 q 382 944 347 904 q 460 1010 417 985 q 503 1032 503 1035 l 536 992 q 520 973 532 988 q 497 933 508 958 q 486 879 486 908 q 492 847 486 863 q 504 824 497 832 q 513 813 511 815 q 480 780 501 793 q 433 767 458 767 m 175 -239 q 8 -203 65 -239 q -49 -100 -49 -168 q -33 -37 -49 -67 q 3 13 -17 -7 q 25 33 22 33 l 103 33 l 103 -89 q 128 -102 108 -92 q 180 -122 147 -112 q 251 -131 213 -131 q 326 -116 301 -131 q 360 -73 350 -101 q 381 19 369 -44 l 388 60 q 428 199 403 140 l 424 201 q 207 44 317 44 q 90 98 132 44 q 47 264 47 151 q 83 456 47 350 q 188 638 119 563 q 349 713 257 713 q 524 664 435 713 l 572 718 l 671 718 l 560 49 q 451 -152 540 -65 q 175 -239 363 -239 m 267 178 q 433 306 336 178 l 472 514 q 314 601 388 601 q 285 597 288 601 q 243 460 258 546 q 228 293 228 375 q 238 203 228 228 q 267 178 247 178 z "},"ġ":{"ha":696,"x_min":-49,"x_max":671,"o":"m 0 0 m 175 -239 q 8 -203 65 -239 q -49 -100 -49 -168 q -35 -49 -49 -82 q -3 8 -21 -17 q 25 33 15 33 l 103 33 l 103 -89 q 172 -119 129 -107 q 251 -131 214 -131 q 326 -116 301 -131 q 360 -73 350 -101 q 381 19 369 -44 l 388 60 q 428 199 403 140 l 424 201 q 317 85 372 125 q 207 44 261 44 q 88 100 128 44 q 47 264 47 156 q 91 479 47 375 q 205 648 135 583 q 349 713 275 713 q 524 664 435 713 l 572 718 l 671 718 l 560 49 q 435 -162 538 -86 q 175 -239 332 -239 m 267 178 q 344 212 300 178 q 433 306 389 246 l 472 514 q 314 601 388 601 q 285 597 288 601 q 244 463 260 547 q 228 293 228 378 q 237 205 228 232 q 267 178 246 178 m 418 786 q 349 814 375 786 q 322 883 322 842 q 351 969 322 932 q 435 1007 381 1007 q 505 979 478 1007 q 532 906 532 951 q 502 822 532 858 q 418 786 472 786 z "},"h":{"ha":754,"x_min":44,"x_max":696,"o":"m 81 869 l 81 956 l 354 982 l 354 851 l 317 608 q 544 714 456 714 q 642 682 615 714 q 669 594 669 650 q 656 468 669 556 l 597 122 l 696 122 l 696 36 q 667 22 690 32 q 603 1 643 11 q 517 -8 564 -8 q 435 14 456 -8 q 415 72 415 36 q 425 156 415 110 l 485 464 q 492 542 492 501 q 451 588 492 588 q 306 536 396 588 l 225 0 l 44 0 l 196 851 l 81 869 z "},"ħ":{"ha":754,"x_min":44,"x_max":696,"o":"m 517 -8 q 435 14 456 -8 q 415 72 415 36 q 425 156 415 110 l 485 438 q 492 515 492 475 q 451 561 492 561 q 306 510 396 561 l 225 0 l 44 0 l 178 740 l 78 740 l 78 847 l 197 847 l 207 892 l 124 913 l 124 960 l 372 982 l 356 878 l 351 847 l 536 847 l 536 740 l 338 740 l 317 582 q 544 688 456 688 q 642 656 615 688 q 669 568 669 624 q 656 442 669 529 l 597 122 l 696 122 l 696 36 q 667 22 690 32 q 603 1 643 11 q 517 -8 564 -8 z "},"ĥ":{"ha":754,"x_min":44,"x_max":696,"o":"m 44 0 m 81 869 l 81 956 l 354 982 l 354 851 l 317 608 q 544 714 456 714 q 642 682 615 714 q 669 594 669 650 q 656 468 669 556 l 597 122 l 696 122 l 696 36 q 667 22 690 32 q 603 1 643 11 q 517 -8 564 -8 q 435 14 456 -8 q 415 72 415 36 q 425 156 415 110 l 485 464 q 492 542 492 501 q 451 588 492 588 q 306 536 396 588 l 225 0 l 44 0 l 196 851 l 81 869 m 310 1078 l 138 988 l 94 1035 l 222 1161 q 290 1224 267 1206 q 328 1243 313 1243 q 360 1228 344 1243 q 396 1182 375 1213 l 503 1032 l 450 982 l 310 1078 z "},"ḥ":{"ha":754,"x_min":44,"x_max":696,"o":"m 44 0 m 81 869 l 81 956 l 354 982 l 354 851 l 317 608 q 544 714 456 714 q 642 682 615 714 q 669 594 669 650 q 656 468 669 556 l 597 122 l 696 122 l 696 36 q 667 22 690 32 q 603 1 643 11 q 517 -8 564 -8 q 435 14 456 -8 q 415 72 415 36 q 425 156 415 110 l 485 464 q 492 542 492 501 q 451 588 492 588 q 306 536 396 588 l 225 0 l 44 0 l 196 851 l 81 869 m 297 -269 q 228 -242 254 -269 q 201 -172 201 -214 q 231 -86 201 -124 q 314 -49 260 -49 q 384 -76 357 -49 q 411 -150 411 -104 q 381 -233 411 -197 q 297 -269 351 -269 z "},"i":{"ha":425,"x_min":63,"x_max":372,"o":"m 258 786 q 189 814 215 786 q 163 883 163 842 q 192 969 163 932 q 275 1007 221 1007 q 345 979 318 1007 q 372 906 372 951 q 342 822 372 858 q 258 786 313 786 m 63 588 l 63 674 l 338 700 l 338 565 l 263 122 l 361 122 l 361 36 q 334 22 361 35 q 264 -1 307 10 q 168 -12 221 -12 q 99 11 121 -12 q 78 68 78 35 q 88 151 78 106 l 167 565 l 63 588 z "},"ı":{"ha":417,"x_min":50,"x_max":349,"o":"m 50 589 l 50 675 l 325 701 l 325 567 l 250 122 l 349 122 l 349 36 q 322 23 349 35 q 251 1 294 11 q 156 -8 208 -8 q 87 15 108 -8 q 65 72 65 39 q 75 156 65 110 l 154 567 l 50 589 z "},"í":{"ha":417,"x_min":49,"x_max":369,"o":"m 76 821 l 283 1032 q 349 1003 328 1026 q 369 947 369 979 q 335 888 369 914 q 250 833 301 861 l 121 765 l 76 821 m 154 -8 q 85 15 107 -8 q 64 72 64 39 q 74 156 64 110 l 153 567 l 49 589 l 49 675 l 324 701 l 324 567 l 249 122 l 347 122 l 347 36 q 320 23 347 35 q 250 1 293 11 q 154 -8 207 -8 z "},"ĭ":{"ha":417,"x_min":50,"x_max":515,"o":"m 50 0 m 50 589 l 50 675 l 325 701 l 325 567 l 250 122 l 349 122 l 349 36 q 322 23 349 35 q 251 1 294 11 q 156 -8 208 -8 q 87 15 108 -8 q 65 72 65 39 q 75 156 65 110 l 154 567 l 50 589 m 246 776 q 147 802 190 776 q 81 867 104 828 q 58 943 58 906 q 63 967 58 960 q 74 979 67 974 q 121 1000 83 988 q 169 1013 158 1013 q 207 931 178 961 q 289 900 236 900 q 375 924 338 900 q 435 976 413 949 q 458 1008 458 1004 l 515 985 q 489 921 515 972 q 403 823 463 869 q 246 776 343 776 z "},"ǐ":{"ha":417,"x_min":50,"x_max":492,"o":"m 50 0 m 50 589 l 50 675 l 325 701 l 325 567 l 250 122 l 349 122 l 349 36 q 322 23 349 35 q 251 1 294 11 q 156 -8 208 -8 q 87 15 108 -8 q 65 72 65 39 q 75 156 65 110 l 154 567 l 50 589 m 138 1025 l 278 926 l 449 1019 l 492 972 l 365 850 q 297 787 319 806 q 260 768 274 768 q 231 781 244 768 q 207 808 218 793 q 192 829 196 824 l 82 976 l 138 1025 z "},"î":{"ha":417,"x_min":17,"x_max":425,"o":"m 232 864 l 60 774 l 17 821 l 144 947 q 212 1010 189 992 q 250 1029 235 1029 q 282 1014 267 1029 q 318 968 297 999 l 425 818 l 372 768 l 232 864 m 156 -8 q 87 15 108 -8 q 65 72 65 39 q 75 156 65 110 l 154 567 l 50 589 l 50 675 l 325 701 l 325 567 l 250 122 l 349 122 l 349 36 q 322 23 349 35 q 251 1 294 11 q 156 -8 208 -8 z "},"ȉ":{"ha":417,"x_min":15,"x_max":446,"o":"m 15 0 m 50 589 l 50 675 l 325 701 l 325 567 l 250 122 l 349 122 l 349 36 q 322 23 349 35 q 251 1 294 11 q 156 -8 208 -8 q 87 15 108 -8 q 65 72 65 39 q 75 156 65 110 l 154 567 l 50 589 m 60 850 q 25 907 35 886 q 15 946 15 928 q 51 1011 15 985 q 126 1038 86 1038 q 153 1033 140 1038 l 200 794 l 129 757 l 60 850 m 306 850 q 271 907 281 886 q 261 946 261 928 q 294 1010 261 985 q 374 1035 328 1035 q 399 1033 390 1035 l 446 794 l 375 757 l 306 850 z "},"ï":{"ha":417,"x_min":24,"x_max":504,"o":"m 114 800 q 49 826 74 800 q 24 892 24 853 q 51 973 24 938 q 129 1008 79 1008 q 195 983 169 1008 q 221 913 221 957 q 193 833 221 867 q 114 800 165 800 m 397 800 q 332 826 357 800 q 307 892 307 853 q 335 973 307 938 q 413 1008 363 1008 q 478 983 453 1008 q 504 913 504 957 q 476 833 504 867 q 397 800 449 800 m 156 -8 q 87 15 108 -8 q 65 72 65 39 q 75 156 65 110 l 154 567 l 50 589 l 50 675 l 325 701 l 325 567 l 250 122 l 349 122 l 349 36 q 322 23 349 35 q 251 1 294 11 q 156 -8 208 -8 z "},"ị":{"ha":425,"x_min":32,"x_max":372,"o":"m 32 0 m 258 786 q 189 814 215 786 q 163 883 163 842 q 192 969 163 932 q 275 1007 221 1007 q 345 979 318 1007 q 372 906 372 951 q 342 822 372 858 q 258 786 313 786 m 63 588 l 63 674 l 338 700 l 338 565 l 263 122 l 361 122 l 361 36 q 334 22 361 35 q 264 -1 307 10 q 168 -12 221 -12 q 99 11 121 -12 q 78 68 78 35 q 88 151 78 106 l 167 565 l 63 588 m 128 -269 q 58 -242 85 -269 q 32 -172 32 -214 q 61 -86 32 -124 q 144 -49 90 -49 q 215 -76 188 -49 q 242 -150 242 -104 q 212 -233 242 -197 q 128 -269 182 -269 z "},"ì":{"ha":417,"x_min":50,"x_max":390,"o":"m 217 833 q 131 888 165 861 q 97 947 97 914 q 118 1003 97 979 q 183 1032 139 1026 l 390 821 l 346 765 l 217 833 m 50 589 l 50 675 l 325 701 l 325 567 l 250 122 l 349 122 l 349 36 q 322 23 349 35 q 251 1 294 11 q 156 -8 208 -8 q 87 15 108 -8 q 65 72 65 39 q 75 156 65 110 l 154 567 l 50 589 z "},"ỉ":{"ha":417,"x_min":50,"x_max":456,"o":"m 50 0 m 50 589 l 50 675 l 325 701 l 325 567 l 250 122 l 349 122 l 349 36 q 322 23 349 35 q 251 1 294 11 q 156 -8 208 -8 q 87 15 108 -8 q 65 72 65 39 q 75 156 65 110 l 154 567 l 50 589 m 219 744 q 210 783 210 771 q 224 814 210 800 q 275 850 238 828 q 305 872 294 861 q 315 900 315 882 q 267 931 315 931 q 192 919 232 931 q 172 968 172 944 q 289 1024 172 1024 q 413 999 369 1024 q 456 925 456 974 q 428 856 456 885 q 354 803 401 826 q 335 793 347 799 q 320 780 324 788 q 317 756 317 772 l 219 744 z "},"ȋ":{"ha":417,"x_min":50,"x_max":515,"o":"m 50 0 m 50 589 l 50 675 l 325 701 l 325 567 l 250 122 l 349 122 l 349 36 q 322 23 349 35 q 251 1 294 11 q 156 -8 208 -8 q 87 15 108 -8 q 65 72 65 39 q 75 156 65 110 l 154 567 l 50 589 m 58 804 q 85 868 58 817 q 171 966 111 919 q 328 1013 231 1013 q 426 987 383 1013 q 492 922 469 961 q 515 846 515 883 q 511 822 515 829 q 500 810 507 815 q 453 789 490 801 q 404 776 415 776 q 367 858 396 828 q 285 889 338 889 q 199 865 236 889 q 138 813 161 840 q 115 781 115 785 l 58 804 z "},"ĳ":{"ha":786,"x_min":63,"x_max":764,"o":"m 63 0 m 258 786 q 189 814 215 786 q 163 883 163 842 q 192 969 163 932 q 275 1007 221 1007 q 345 979 318 1007 q 372 906 372 951 q 342 822 372 858 q 258 786 313 786 m 63 588 l 63 674 l 338 700 l 338 565 l 263 122 l 361 122 l 361 36 q 334 22 361 35 q 264 -1 307 10 q 168 -12 221 -12 q 99 11 121 -12 q 78 68 78 35 q 88 151 78 106 l 167 565 l 63 588 m 667 1007 q 737 979 710 1007 q 764 906 764 951 q 734 822 764 858 q 650 786 704 786 q 581 814 607 786 q 554 883 554 842 q 583 969 554 932 q 667 1007 613 1007 m 456 675 l 726 701 l 726 567 l 656 57 q 601 -92 644 -24 q 491 -199 558 -160 q 340 -239 424 -239 q 264 -222 288 -239 q 240 -164 240 -204 q 249 -122 240 -140 q 261 -100 257 -104 l 374 -100 q 420 -95 400 -100 q 443 -86 440 -90 q 481 56 464 -49 l 560 567 l 456 589 l 456 675 z "},"ī":{"ha":417,"x_min":21,"x_max":451,"o":"m 35 957 l 451 957 l 438 843 l 21 843 l 35 957 m 50 589 l 50 675 l 325 701 l 325 567 l 250 122 l 349 122 l 349 36 q 322 23 349 35 q 251 1 294 11 q 156 -8 208 -8 q 87 15 108 -8 q 65 72 65 39 q 75 156 65 110 l 154 567 l 50 589 z "},"į":{"ha":417,"x_min":50,"x_max":375,"o":"m 246 786 q 176 814 203 786 q 150 883 150 842 q 179 969 150 932 q 263 1007 208 1007 q 333 979 306 1007 q 360 906 360 951 q 330 822 360 858 q 246 786 300 786 m 375 -186 q 353 -208 375 -189 q 298 -243 332 -226 q 224 -260 264 -260 q 126 -235 163 -260 q 89 -161 89 -210 q 185 -11 89 -74 q 156 -12 175 -12 q 87 11 108 -12 q 65 68 65 35 q 75 151 65 106 l 154 567 l 50 589 l 50 675 l 325 701 l 325 567 l 250 122 l 349 122 l 349 36 l 315 19 q 251 -30 282 4 q 221 -117 221 -64 q 233 -153 221 -143 q 269 -164 244 -164 q 342 -137 299 -164 l 375 -186 z "},"ĩ":{"ha":417,"x_min":26,"x_max":547,"o":"m 26 0 m 50 589 l 50 675 l 325 701 l 325 567 l 250 122 l 349 122 l 349 36 q 322 23 349 35 q 251 1 294 11 q 156 -8 208 -8 q 87 15 108 -8 q 65 72 65 39 q 75 156 65 110 l 154 567 l 50 589 m 393 800 q 342 806 365 800 q 285 824 318 813 l 171 864 l 64 813 l 26 857 l 92 932 q 134 974 114 961 q 182 988 154 988 q 265 971 215 988 l 403 924 l 510 975 l 547 931 l 482 854 q 393 800 436 800 z "},"j":{"ha":389,"x_min":-157,"x_max":367,"o":"m 269 1007 q 340 979 313 1007 q 367 906 367 951 q 337 822 367 858 q 253 786 307 786 q 183 814 210 786 q 157 883 157 842 q 186 969 157 932 q 269 1007 215 1007 m 58 675 l 329 701 l 329 567 l 258 57 q 204 -92 247 -24 q 94 -199 161 -160 q -57 -239 26 -239 q -133 -222 -110 -239 q -157 -164 -157 -204 q -149 -122 -157 -140 q -136 -100 -140 -104 l -24 -100 q 23 -95 3 -100 q 46 -86 43 -90 q 83 56 67 -49 l 163 567 l 58 589 l 58 675 z "},"ȷ":{"ha":389,"x_min":-157,"x_max":329,"o":"m 329 701 l 329 567 l 258 57 q 204 -92 247 -24 q 94 -199 161 -160 q -57 -239 26 -239 q -133 -222 -110 -239 q -157 -164 -157 -204 q -149 -122 -157 -140 q -136 -100 -140 -104 l -24 -100 q 23 -95 3 -100 q 46 -86 43 -90 q 83 56 67 -49 l 163 567 l 58 589 l 58 675 l 329 701 z "},"ĵ":{"ha":389,"x_min":-157,"x_max":478,"o":"m 0 0 m 329 701 l 329 567 l 258 57 q 204 -92 247 -24 q 94 -199 161 -160 q -57 -239 26 -239 q -133 -222 -110 -239 q -157 -164 -157 -204 q -149 -122 -157 -140 q -136 -100 -140 -104 l -24 -100 q 23 -95 3 -100 q 46 -86 43 -90 q 83 56 67 -49 l 163 567 l 58 589 l 58 675 l 329 701 m 285 864 l 113 774 l 69 821 l 197 947 q 265 1010 242 992 q 303 1029 288 1029 q 335 1014 319 1029 q 371 968 350 999 l 478 818 l 425 768 l 285 864 z "},"k":{"ha":690,"x_min":38,"x_max":669,"o":"m 74 869 l 74 956 l 347 982 l 347 851 l 311 613 q 529 713 446 713 q 635 678 601 713 q 669 581 669 643 q 637 469 669 519 q 560 383 604 418 q 453 307 517 349 l 539 122 l 665 122 l 665 38 q 648 25 665 36 q 599 4 631 14 q 524 -6 568 -6 q 435 9 465 -6 q 392 58 406 24 l 308 251 l 308 311 q 451 438 410 388 q 492 536 492 488 q 481 575 492 563 q 444 588 471 588 q 300 539 392 588 l 218 0 l 38 0 l 189 851 l 74 869 z "},"ķ":{"ha":668,"x_min":22,"x_max":654,"o":"m 58 869 l 58 956 l 332 982 l 332 851 l 296 613 q 514 713 431 713 q 620 678 586 713 q 654 581 654 643 q 622 469 654 519 q 545 383 589 418 q 438 307 501 349 l 524 122 l 650 122 l 650 38 q 633 25 650 36 q 584 4 615 14 q 508 -6 553 -6 q 420 9 450 -6 q 376 58 390 24 l 293 251 l 293 311 q 435 438 394 388 q 476 536 476 488 q 466 575 476 563 q 429 588 456 588 q 285 539 376 588 l 203 0 l 22 0 l 174 851 l 58 869 m 193 -258 q 209 -240 197 -254 q 232 -200 221 -225 q 243 -146 243 -175 q 238 -114 243 -129 q 225 -90 232 -99 q 217 -79 218 -82 q 249 -47 228 -60 q 296 -33 271 -33 q 360 -58 339 -33 q 382 -115 382 -82 q 347 -211 382 -171 q 269 -276 313 -251 q 226 -299 226 -301 l 193 -258 z "},"ĸ":{"ha":710,"x_min":57,"x_max":689,"o":"m 558 122 l 685 122 l 685 38 q 667 25 685 36 q 619 4 650 14 q 543 -6 588 -6 q 455 9 485 -6 q 411 58 425 24 l 328 251 l 328 311 q 469 439 425 383 q 513 539 513 494 q 464 588 513 588 q 395 572 435 588 q 325 536 356 556 l 238 0 l 57 0 l 163 567 l 58 590 l 58 675 l 335 701 l 335 608 q 549 713 469 713 q 655 678 621 713 q 689 581 689 643 q 656 469 689 519 q 580 383 624 418 q 472 307 536 349 l 558 122 z "},"l":{"ha":401,"x_min":65,"x_max":361,"o":"m 86 875 l 86 956 l 361 982 l 361 851 l 246 121 l 346 121 l 346 35 q 317 20 340 31 q 253 0 293 10 q 167 -10 214 -10 q 85 13 106 -10 q 65 71 65 35 q 75 154 65 108 l 201 851 l 86 875 z "},"ĺ":{"ha":388,"x_min":56,"x_max":401,"o":"m 68 1032 l 356 1192 q 388 1160 375 1179 q 401 1118 401 1140 q 388 1063 401 1081 q 336 1035 375 1046 l 96 967 l 68 1032 m 157 -10 q 76 13 96 -10 q 56 71 56 35 q 65 154 56 108 l 192 851 l 76 875 l 76 956 l 351 982 l 351 851 l 236 121 l 336 121 l 336 35 q 307 20 331 31 q 244 0 283 10 q 157 -10 204 -10 z "},"ľ":{"ha":388,"x_min":56,"x_max":563,"o":"m 389 794 q 402 813 392 799 q 422 853 413 828 q 431 907 431 878 q 427 940 431 924 q 420 963 424 956 q 415 974 417 971 q 486 1019 442 1019 q 544 999 525 1019 q 563 946 563 979 q 531 848 563 890 q 461 778 500 806 q 422 754 422 751 l 389 794 m 76 875 l 76 956 l 351 982 l 351 851 l 236 121 l 336 121 l 336 35 q 307 20 331 31 q 244 0 283 10 q 157 -10 204 -10 q 76 13 96 -10 q 56 71 56 35 q 65 154 56 108 l 192 851 l 76 875 z "},"ļ":{"ha":388,"x_min":35,"x_max":336,"o":"m 61 875 l 61 956 l 336 982 l 336 851 l 221 121 l 321 121 l 321 35 q 292 20 315 31 q 228 0 268 10 q 142 -10 189 -10 q 60 13 81 -10 q 40 71 40 35 q 50 154 40 108 l 176 851 l 61 875 m 35 -258 q 51 -240 39 -254 q 74 -200 63 -225 q 85 -146 85 -175 q 79 -114 85 -129 q 67 -90 74 -99 q 58 -79 60 -82 q 91 -47 69 -60 q 138 -33 113 -33 q 202 -58 181 -33 q 224 -115 224 -82 q 189 -211 224 -171 q 111 -276 154 -251 q 68 -299 68 -301 l 35 -258 z "},"ŀ":{"ha":401,"x_min":65,"x_max":528,"o":"m 65 0 m 86 875 l 86 956 l 361 982 l 361 851 l 246 121 l 346 121 l 346 35 q 317 20 340 31 q 253 0 293 10 q 167 -10 214 -10 q 85 13 106 -10 q 65 71 65 35 q 75 154 65 108 l 201 851 l 86 875 m 414 431 q 351 454 375 431 q 326 519 326 478 q 356 605 326 568 q 440 642 386 642 q 503 617 478 642 q 528 554 528 593 q 497 467 528 503 q 414 431 465 431 z "},"ǉ":{"ha":790,"x_min":65,"x_max":768,"o":"m 65 0 m 86 875 l 86 956 l 361 982 l 361 851 l 246 121 l 346 121 l 346 35 q 317 20 340 31 q 253 0 293 10 q 167 -10 214 -10 q 85 13 106 -10 q 65 71 65 35 q 75 154 65 108 l 201 851 l 86 875 m 671 1007 q 741 979 714 1007 q 768 906 768 951 q 738 822 768 858 q 654 786 708 786 q 585 814 611 786 q 558 883 558 842 q 588 969 558 932 q 671 1007 617 1007 m 460 675 l 731 701 l 731 567 l 660 57 q 606 -92 649 -24 q 495 -199 563 -160 q 344 -239 428 -239 q 268 -222 292 -239 q 244 -164 244 -204 q 253 -122 244 -140 q 265 -100 261 -104 l 378 -100 q 424 -95 404 -100 q 447 -86 444 -90 q 485 56 468 -49 l 564 567 l 460 589 l 460 675 z "},"ł":{"ha":376,"x_min":-25,"x_max":433,"o":"m -25 322 l -25 418 l 124 478 l 192 851 l 76 875 l 76 956 l 351 982 l 351 851 l 304 550 l 433 603 l 433 503 l 288 444 l 236 121 l 336 121 l 336 35 q 307 20 331 31 q 244 0 283 10 q 157 -10 204 -10 q 76 13 96 -10 q 56 71 56 35 q 65 154 56 108 l 104 374 l -25 322 z "},"m":{"ha":1124,"x_min":60,"x_max":1065,"o":"m 60 589 l 60 675 l 335 701 l 335 607 q 456 686 401 658 q 554 714 510 714 q 653 685 626 714 q 683 606 681 657 q 911 714 826 714 q 1008 685 982 714 q 1035 603 1035 657 q 1019 468 1035 565 l 967 122 l 1065 122 l 1065 36 q 1042 23 1065 35 q 983 1 1019 11 q 899 -8 946 -8 q 807 13 828 -8 q 786 72 786 35 q 796 156 786 110 l 850 464 q 860 544 860 515 q 848 576 860 564 q 814 588 836 588 q 749 571 788 588 q 679 535 711 554 q 674 496 676 513 q 669 468 671 479 l 596 0 l 419 0 l 501 464 q 511 544 511 515 q 499 576 511 564 q 465 588 488 588 q 324 532 424 588 l 240 0 l 60 0 l 164 567 l 60 589 z "},"n":{"ha":774,"x_min":57,"x_max":715,"o":"m 58 590 l 58 675 l 335 701 l 335 607 q 457 685 401 657 q 563 713 513 713 q 690 597 690 713 q 675 468 690 565 l 617 122 l 715 122 l 715 36 q 687 22 710 32 q 624 1 664 11 q 538 -8 585 -8 q 456 14 476 -8 q 436 72 436 36 q 446 156 436 110 l 504 464 q 513 542 513 508 q 502 575 513 563 q 471 588 492 588 q 325 536 413 588 l 242 0 l 57 0 l 163 567 l 58 590 z "},"ń":{"ha":774,"x_min":61,"x_max":719,"o":"m 342 821 l 549 1032 q 614 1003 593 1026 q 635 947 635 979 q 601 888 635 914 q 515 833 567 861 l 386 765 l 342 821 m 542 -8 q 460 14 481 -8 q 440 72 440 36 q 450 156 440 110 l 508 464 q 517 542 517 508 q 506 575 517 563 q 475 588 496 588 q 329 536 417 588 l 246 0 l 61 0 l 167 567 l 63 590 l 63 675 l 339 701 l 339 607 q 461 685 406 657 q 567 713 517 713 q 694 597 694 713 q 679 468 694 565 l 621 122 l 719 122 l 719 36 q 691 22 714 32 q 628 1 668 11 q 542 -8 589 -8 z "},"ŉ":{"ha":833,"x_min":57,"x_max":715,"o":"m 57 0 m 78 794 q 91 813 81 799 q 110 853 101 828 q 119 907 119 878 q 116 940 119 924 q 109 963 113 956 q 104 974 106 971 q 175 1019 131 1019 q 233 999 214 1019 q 251 946 251 979 q 220 848 251 890 q 150 778 189 806 q 111 754 111 751 l 78 794 m 58 590 l 58 675 l 335 701 l 335 607 q 457 685 401 657 q 563 713 513 713 q 690 597 690 713 q 675 468 690 565 l 617 122 l 715 122 l 715 36 q 687 22 710 32 q 624 1 664 11 q 538 -8 585 -8 q 456 14 476 -8 q 436 72 436 36 q 446 156 436 110 l 504 464 q 513 542 513 508 q 502 575 513 563 q 471 588 492 588 q 325 536 413 588 l 242 0 l 57 0 l 163 567 l 58 590 z "},"ň":{"ha":774,"x_min":61,"x_max":719,"o":"m 319 1025 l 460 926 l 631 1019 l 674 972 l 547 850 q 478 787 501 806 q 442 768 456 768 q 413 781 426 768 q 389 808 400 793 q 374 829 378 824 l 264 976 l 319 1025 m 63 590 l 63 675 l 339 701 l 339 607 q 461 685 406 657 q 567 713 517 713 q 694 597 694 713 q 679 468 694 565 l 621 122 l 719 122 l 719 36 q 691 22 714 32 q 628 1 668 11 q 542 -8 589 -8 q 460 14 481 -8 q 440 72 440 36 q 450 156 440 110 l 508 464 q 517 542 517 508 q 506 575 517 563 q 475 588 496 588 q 329 536 417 588 l 246 0 l 61 0 l 167 567 l 63 590 z "},"ņ":{"ha":774,"x_min":61,"x_max":719,"o":"m 63 590 l 63 675 l 339 701 l 339 607 q 461 685 406 657 q 567 713 517 713 q 694 597 694 713 q 679 468 694 565 l 621 122 l 719 122 l 719 36 q 691 22 714 32 q 628 1 668 11 q 542 -8 589 -8 q 460 14 481 -8 q 440 72 440 36 q 450 156 440 110 l 508 464 q 517 542 517 508 q 506 575 517 563 q 475 588 496 588 q 329 536 417 588 l 246 0 l 61 0 l 167 567 l 63 590 m 225 -258 q 241 -240 229 -254 q 264 -200 253 -225 q 275 -146 275 -175 q 269 -114 275 -129 q 257 -90 264 -99 q 249 -79 250 -82 q 281 -47 260 -60 q 328 -33 303 -33 q 392 -58 371 -33 q 414 -115 414 -82 q 379 -211 414 -171 q 301 -276 344 -251 q 258 -299 258 -301 l 225 -258 z "},"ṅ":{"ha":774,"x_min":57,"x_max":715,"o":"m 57 0 m 58 590 l 58 675 l 335 701 l 335 607 q 457 685 401 657 q 563 713 513 713 q 690 597 690 713 q 675 468 690 565 l 617 122 l 715 122 l 715 36 q 687 22 710 32 q 624 1 664 11 q 538 -8 585 -8 q 456 14 476 -8 q 436 72 436 36 q 446 156 436 110 l 504 464 q 513 542 513 508 q 502 575 513 563 q 471 588 492 588 q 325 536 413 588 l 242 0 l 57 0 l 163 567 l 58 590 m 457 786 q 388 814 414 786 q 361 883 361 842 q 390 969 361 932 q 474 1007 419 1007 q 544 979 517 1007 q 571 906 571 951 q 541 822 571 858 q 457 786 511 786 z "},"ŋ":{"ha":749,"x_min":57,"x_max":690,"o":"m 301 -239 q 225 -222 249 -239 q 201 -164 201 -204 q 208 -128 201 -149 q 222 -100 215 -107 l 335 -100 q 380 -96 358 -100 q 404 -86 401 -92 q 442 56 426 -49 l 508 486 q 513 542 513 514 q 501 576 513 564 q 471 588 490 588 q 325 536 413 588 l 242 0 l 57 0 l 163 567 l 58 590 l 58 675 l 335 701 l 335 607 q 463 687 408 661 q 563 713 517 713 q 658 683 625 713 q 690 597 690 654 q 675 468 690 568 l 617 57 q 560 -95 606 -28 q 448 -201 515 -162 q 301 -239 381 -239 z "},"ɲ":{"ha":776,"x_min":-157,"x_max":718,"o":"m 718 122 l 718 36 q 690 22 713 32 q 627 1 667 11 q 540 -8 588 -8 q 459 14 479 -8 q 439 72 439 36 q 449 156 439 110 l 507 464 q 515 542 515 508 q 505 575 515 563 q 474 588 494 588 q 328 536 415 588 l 258 57 q 204 -92 247 -24 q 94 -199 161 -160 q -57 -239 26 -239 q -133 -222 -110 -239 q -157 -164 -157 -204 q -149 -122 -157 -140 q -136 -100 -140 -104 l -24 -100 q 23 -95 3 -100 q 46 -86 43 -90 q 83 56 67 -49 l 165 567 l 61 590 l 61 675 l 338 701 l 338 607 q 460 685 404 657 q 565 713 515 713 q 693 597 693 713 q 678 468 693 565 l 619 122 l 718 122 z "},"ǌ":{"ha":1163,"x_min":57,"x_max":1140,"o":"m 57 0 m 58 590 l 58 675 l 335 701 l 335 607 q 457 685 401 657 q 563 713 513 713 q 690 597 690 713 q 675 468 690 565 l 617 122 l 715 122 l 715 36 q 687 22 710 32 q 624 1 664 11 q 538 -8 585 -8 q 456 14 476 -8 q 436 72 436 36 q 446 156 436 110 l 504 464 q 513 542 513 508 q 502 575 513 563 q 471 588 492 588 q 325 536 413 588 l 242 0 l 57 0 l 163 567 l 58 590 m 1043 1007 q 1113 979 1086 1007 q 1140 906 1140 951 q 1110 822 1140 858 q 1026 786 1081 786 q 957 814 983 786 q 931 883 931 842 q 960 969 931 932 q 1043 1007 989 1007 m 832 675 l 1103 701 l 1103 567 l 1032 57 q 978 -92 1021 -24 q 867 -199 935 -160 q 717 -239 800 -239 q 640 -222 664 -239 q 617 -164 617 -204 q 625 -122 617 -140 q 638 -100 633 -104 l 750 -100 q 797 -95 776 -100 q 819 -86 817 -90 q 857 56 840 -49 l 936 567 l 832 589 l 832 675 z "},"ñ":{"ha":778,"x_min":60,"x_max":718,"o":"m 554 813 q 503 819 526 813 q 446 836 479 825 l 332 876 l 225 825 l 188 869 l 253 944 q 295 987 275 974 q 343 1000 315 1000 q 426 983 376 1000 l 564 936 l 671 988 l 708 943 l 643 867 q 554 813 597 813 m 540 -8 q 459 14 479 -8 q 439 72 439 36 q 449 156 439 110 l 507 464 q 515 542 515 508 q 505 575 515 563 q 474 588 494 588 q 328 536 415 588 l 244 0 l 60 0 l 165 567 l 61 590 l 61 675 l 338 701 l 338 607 q 460 685 404 657 q 565 713 515 713 q 693 597 693 713 q 678 468 693 565 l 619 122 l 718 122 l 718 36 q 690 22 713 32 q 627 1 667 11 q 540 -8 588 -8 z "},"o":{"ha":665,"x_min":35,"x_max":631,"o":"m 281 -15 q 98 46 161 -15 q 35 231 35 107 q 80 479 35 369 q 204 651 125 589 q 382 713 283 713 q 568 653 506 713 q 631 460 631 593 q 590 224 631 333 q 469 50 549 115 q 281 -15 390 -15 m 325 85 q 370 89 350 85 q 393 99 390 93 q 431 233 417 149 q 446 436 446 318 q 435 551 446 513 q 403 601 424 589 q 346 613 382 613 q 308 608 328 613 q 283 599 289 604 q 258 540 274 588 q 231 422 243 493 q 219 268 219 350 q 242 128 219 172 q 325 85 265 85 z "}}}
